<svg width="93" height="20" viewBox="0 0 93 20" fill="none" xmlns="http://www.w3.org/2000/svg"><path d="M13.49 15.442h-2.624L9.43 11.044H4.432l-1.37 4.398H.509L5.458.47h3.058l4.975 14.972ZM8.995 9.199l-1.3-3.91C7.558 4.89 7.3 3.95 6.92 2.47h-.046c-.152.637-.395 1.578-.73 2.82L4.866 9.2h4.128ZM26.221 9.911c0 1.836-.51 3.288-1.528 4.353-.913.948-2.047 1.422-3.4 1.422-1.46 0-2.51-.51-3.149-1.532h-.046v5.687h-2.464V8.2c0-1.155-.03-2.34-.091-3.555h2.167l.137 1.712h.046c.822-1.29 2.069-1.933 3.742-1.933 1.308 0 2.4.503 3.274 1.51.876 1.008 1.313 2.333 1.313 3.976Zm-2.51.088c0-1.05-.242-1.917-.73-2.599-.532-.71-1.248-1.066-2.144-1.066-.608 0-1.16.198-1.654.588a2.718 2.718 0 0 0-.97 1.545c-.076.297-.114.54-.114.731v1.8c0 .785.247 1.448.742 1.99.494.54 1.137.81 1.927.81.928 0 1.65-.348 2.167-1.044.518-.696.777-1.614.777-2.755ZM38.974 9.911c0 1.836-.51 3.288-1.53 4.353-.912.948-2.045 1.422-3.398 1.422-1.46 0-2.51-.51-3.148-1.532h-.046v5.687h-2.464V8.2c0-1.155-.031-2.34-.091-3.555h2.166l.138 1.712h.046c.82-1.29 2.068-1.933 3.742-1.933 1.307 0 2.399.503 3.275 1.51.872 1.008 1.31 2.333 1.31 3.976Zm-2.51.088c0-1.05-.243-1.917-.731-2.599-.533-.71-1.246-1.066-2.144-1.066-.609 0-1.16.198-1.654.588a2.717 2.717 0 0 0-.969 1.545c-.075.297-.114.54-.114.731v1.8c0 .785.247 1.448.74 1.99.494.54 1.136.81 1.93.81.927 0 1.65-.348 2.166-1.044.517-.696.776-1.614.776-2.755ZM53.236 11.243c0 1.274-.455 2.31-1.366 3.11-1.002.874-2.397 1.31-4.19 1.31-1.654 0-2.98-.31-3.985-.932l.571-2a6.892 6.892 0 0 0 3.562.957c.927 0 1.65-.205 2.169-.612.516-.407.774-.954.774-1.636 0-.607-.213-1.12-.64-1.534-.423-.415-1.132-.801-2.12-1.158-2.693-.978-4.038-2.41-4.038-4.293 0-1.23.471-2.24 1.415-3.025.94-.786 2.196-1.179 3.765-1.179 1.4 0 2.562.237 3.49.711l-.616 1.955c-.867-.459-1.847-.688-2.943-.688-.867 0-1.544.208-2.03.622-.41.37-.615.821-.615 1.355 0 .592.234 1.082.706 1.466.41.356 1.155.74 2.237 1.156 1.323.518 2.295 1.125 2.92 1.82.623.693.934 1.56.934 2.595ZM61.38 6.446h-2.716v5.242c0 1.333.479 1.999 1.438 1.999.44 0 .805-.037 1.094-.111l.069 1.82c-.486.177-1.125.266-1.916.266-.973 0-1.734-.289-2.283-.866-.546-.578-.821-1.548-.821-2.91V6.444h-1.618v-1.8h1.618V2.668l2.42-.711v2.687h2.715v1.802ZM73.633 9.955c0 1.66-.488 3.022-1.461 4.087-1.02 1.097-2.375 1.644-4.063 1.644-1.627 0-2.922-.525-3.888-1.576-.967-1.051-1.45-2.377-1.45-3.976 0-1.673.497-3.043 1.495-4.108.995-1.067 2.337-1.6 4.026-1.6 1.627 0 2.936.525 3.924 1.577.945 1.02 1.417 2.338 1.417 3.952Zm-2.556.078c0-.996-.219-1.85-.662-2.562C69.9 6.61 69.16 6.18 68.204 6.18c-.99 0-1.743.43-2.26 1.291-.442.713-.66 1.58-.66 2.607 0 .995.218 1.85.66 2.56.533.862 1.278 1.292 2.238 1.292.94 0 1.679-.439 2.212-1.314.454-.726.682-1.589.682-2.583ZM81.64 6.756a4.39 4.39 0 0 0-.777-.067c-.867 0-1.537.319-2.008.957-.41.562-.616 1.273-.616 2.132v5.664h-2.463l.023-7.396c0-1.244-.03-2.377-.092-3.398h2.146l.09 2.065h.068c.26-.71.67-1.281 1.232-1.71a3.033 3.033 0 0 1 1.78-.578c.228 0 .434.016.617.044v2.287ZM92.66 9.533c0 .43-.03.792-.09 1.088h-7.392c.03 1.066.386 1.882 1.073 2.445.622.502 1.428.754 2.417.754 1.094 0 2.093-.17 2.99-.51l.386 1.665c-1.049.445-2.287.667-3.717.667-1.72 0-3.07-.493-4.051-1.477-.98-.985-1.471-2.306-1.471-3.965 0-1.628.456-2.983 1.37-4.064.957-1.155 2.25-1.732 3.877-1.732 1.598 0 2.808.577 3.63 1.732.65.917.977 2.05.977 3.397Zm-2.35-.622c.016-.711-.144-1.325-.478-1.844-.427-.667-1.082-1-1.964-1-.805 0-1.46.325-1.96.978-.41.518-.655 1.14-.73 1.865h5.132v.001Z" fill="#212129"/></svg>