<svg width="54" height="9" viewBox="0 0 54 9" fill="none" xmlns="http://www.w3.org/2000/svg"><path d="M5.077 4.874c0 .572-.219 1.038-.657 1.4-.433.361-.989.542-1.669.542a2.812 2.812 0 0 1-1.44-.37 2.64 2.64 0 0 1-.99-1.039l.714-.523c.445.673 1.014 1.009 1.707 1.009.381 0 .696-.098.944-.295a.938.938 0 0 0 .371-.771.84.84 0 0 0-.324-.695c-.21-.171-.518-.257-.924-.257h-.773v-.866h.744c.305 0 .543-.077.715-.229a.815.815 0 0 0 .257-.628c0-.28-.089-.498-.267-.657-.178-.165-.429-.247-.753-.247-.59 0-1.064.282-1.42.847L.597 1.57C1.048.74 1.769.324 2.76.324c.61 0 1.096.159 1.458.476.37.317.553.743.553 1.276 0 .526-.228.952-.686 1.275.661.318.991.825.991 1.523ZM9.93 3.884v2.828h-.935v-.524c-.35.419-.848.628-1.497.628-.49 0-.883-.123-1.182-.37-.299-.248-.448-.575-.448-.981 0-.407.156-.73.467-.971.312-.242.731-.362 1.259-.362h1.325v-.305c0-.323-.09-.57-.267-.742-.172-.172-.416-.257-.734-.257-.477 0-.91.231-1.297.695l-.581-.59c.457-.667 1.115-1 1.973-1 .585 0 1.049.171 1.392.514.35.343.524.822.524 1.437ZM8.918 4.941v-.086H7.718c-.553 0-.83.19-.83.572 0 .19.073.342.22.456.152.108.352.162.6.162.343 0 .63-.104.858-.314.235-.21.353-.473.353-.79ZM11.332 6.712V2.038h3.298v.866h-2.288v3.808h-1.01ZM20.42 4.37c0 .698-.219 1.282-.657 1.751-.433.464-.98.695-1.64.695-.648 0-1.17-.225-1.564-.676v2.285h-1V2.038h.934v.657c.356-.508.899-.762 1.63-.762.66 0 1.207.235 1.64.704.438.464.657 1.041.657 1.733Zm-1.44 1.104c.274-.285.41-.65.41-1.095 0-.444-.136-.809-.41-1.094a1.34 1.34 0 0 0-1.02-.438 1.38 1.38 0 0 0-1 .4c-.273.266-.41.64-.41 1.123 0 .489.137.866.41 1.133.273.266.607.4 1 .4.408 0 .748-.143 1.02-.429ZM24.628 2.038h1.068l-2.279 5.207c-.197.444-.432.768-.705.97-.273.21-.61.315-1.01.315-.267 0-.525-.032-.773-.095v-.848a6.6 6.6 0 0 0 .553.038c.483 0 .823-.228 1.02-.685l.191-.438-1.869-4.464h1.078l1.344 3.398 1.382-3.398ZM29.994 5.35c0 .464-.165.825-.496 1.086-.324.253-.772.38-1.344.38-.826 0-1.462-.295-1.907-.885l.61-.6c.33.4.747.6 1.25.6.279 0 .498-.057.657-.171a.57.57 0 0 0 .238-.476c0-.19-.076-.34-.228-.448-.147-.108-.353-.161-.62-.161h-.544v-.8h.515c.216 0 .382-.048.496-.143a.48.48 0 0 0 .172-.39.452.452 0 0 0-.191-.38c-.12-.096-.292-.144-.515-.144-.451 0-.832.175-1.144.524l-.61-.6c.426-.54 1.027-.809 1.802-.809.515 0 .915.117 1.201.352.292.229.439.552.439.971 0 .432-.169.762-.506.99.483.235.725.603.725 1.104ZM34.918 1.933h.343v4.779h-1.01V3.808l-2.727 3.008h-.353V2.038h1.01V4.96l2.737-3.027ZM37.664 6.712V2.904h-1.507v-.866h4.014v.866h-1.506v3.808h-1.001ZM45.263 4.703h-3.49c.064.38.232.682.506.904.28.216.62.324 1.02.324.495 0 .95-.184 1.363-.552l.477.685a2.622 2.622 0 0 1-1.869.752c-.712 0-1.309-.231-1.792-.695-.483-.47-.725-1.05-.725-1.742a2.297 2.297 0 0 1 .706-1.732c.483-.489 1.055-.727 1.716-.714.616 0 1.131.206 1.544.619.413.406.62.914.62 1.523 0 .184-.026.393-.076.628Zm-3.47-.78h2.545c-.006-.35-.124-.626-.353-.829a1.21 1.21 0 0 0-.848-.314c-.33 0-.62.105-.868.314-.241.203-.4.48-.477.828ZM53.171 5.293c0 .42-.155.762-.467 1.028-.305.26-.705.39-1.2.39h-2.337V2.039h2.06c.464 0 .842.117 1.134.352.292.235.439.542.439.923 0 .375-.143.667-.43.876.535.203.801.571.801 1.104ZM50.15 2.847v1.056h1.04c.444 0 .667-.177.667-.533 0-.349-.223-.523-.668-.523H50.15Zm2.07 2.427a.516.516 0 0 0-.22-.438c-.14-.108-.337-.161-.591-.161h-1.259v1.237h1.259c.248 0 .445-.057.59-.171a.577.577 0 0 0 .22-.467Z" fill="#212129"/></svg>