<svg width="98" height="20" viewBox="0 0 98 20" fill="none" xmlns="http://www.w3.org/2000/svg"><path d="m95.103 5.811-2.375 6.336h-.071l-2.478-6.336h-2.24l3.712 8.857-2.121 4.926h2.177L97.43 5.811h-2.327ZM78.32.554h-2.074v14.612h2.074V.554Zm-7.805 0H65.53v14.612h2.09V9.634h2.905c.586.021 1.17-.08 1.718-.297a4.4 4.4 0 0 0 1.475-.969 4.64 4.64 0 0 0 1.004-1.49 4.824 4.824 0 0 0 .378-1.78 4.832 4.832 0 0 0-.378-1.783 4.65 4.65 0 0 0-1.006-1.493 4.409 4.409 0 0 0-1.478-.97 4.251 4.251 0 0 0-1.72-.298Zm.055 7.04H67.62V2.62h2.96c.63 0 1.234.262 1.68.728.445.467.695 1.1.695 1.76 0 .66-.25 1.292-.695 1.759a2.321 2.321 0 0 1-1.68.728h-.007Zm12.864-2.098a3.768 3.768 0 0 0-2.175.54 4.024 4.024 0 0 0-1.538 1.7l1.853.829a2.01 2.01 0 0 1 .798-.828c.338-.189.72-.27 1.101-.234.262-.027.526 0 .778.08.251.08.485.21.688.385.203.175.371.39.495.634.123.243.2.51.224.784v.149a4.373 4.373 0 0 0-2.16-.572c-1.988 0-4.014 1.144-4.014 3.317 0 1.957 1.623 3.217 3.459 3.217a2.786 2.786 0 0 0 1.51-.33c.466-.252.857-.63 1.134-1.096h.079v1.128h2.026V9.576c0-2.595-1.852-4.038-4.242-4.038l-.016-.042Zm-.246 8.011c-.68 0-1.63-.365-1.63-1.244 0-1.128 1.18-1.559 2.208-1.559.664-.019 1.32.15 1.9.49a2.687 2.687 0 0 1-.825 1.643 2.462 2.462 0 0 1-1.653.67ZM8.131 15.481c-1.97.007-3.862-.8-5.269-2.245C1.456 11.79.65 9.823.62 7.76c.031-2.063.837-4.03 2.243-5.476C4.27.84 6.162.033 8.132.04a6.77 6.77 0 0 1 2.741.53c.872.365 1.665.91 2.332 1.6l-1.432 1.485A5.033 5.033 0 0 0 8.13 2.113a5.238 5.238 0 0 0-3.79 1.644 5.753 5.753 0 0 0-1.569 3.97c0 1.489.565 2.917 1.57 3.97a5.238 5.238 0 0 0 3.79 1.644 4.746 4.746 0 0 0 2.024-.36 4.94 4.94 0 0 0 1.712-1.19 4.466 4.466 0 0 0 1.1-2.654H8.13V7.088h6.808c.074.436.109.877.103 1.319a7.137 7.137 0 0 1-1.75 4.976 6.764 6.764 0 0 1-2.367 1.625 6.505 6.505 0 0 1-2.794.473Zm17.439-4.976a5.14 5.14 0 0 1-.3 1.946 4.964 4.964 0 0 1-1.006 1.667c-.439.48-.965.86-1.548 1.12a4.518 4.518 0 0 1-3.688 0 4.702 4.702 0 0 1-1.548-1.12 4.964 4.964 0 0 1-1.006-1.667 5.14 5.14 0 0 1-.3-1.946 5.14 5.14 0 0 1 .3-1.946 4.964 4.964 0 0 1 1.006-1.667c.438-.479.965-.86 1.548-1.12a4.519 4.519 0 0 1 3.688 0c.583.26 1.11.641 1.548 1.12.439.479.78 1.046 1.005 1.667a5.14 5.14 0 0 1 .3 1.946Zm-2.058 0a2.903 2.903 0 0 0-.124-1.14 2.811 2.811 0 0 0-.554-.992 2.66 2.66 0 0 0-.89-.671 2.55 2.55 0 0 0-2.145 0 2.66 2.66 0 0 0-.889.671 2.811 2.811 0 0 0-.554.991c-.117.367-.159.756-.124 1.141-.035.385.007.774.124 1.141.117.367.306.705.554.99.249.287.552.516.89.672a2.55 2.55 0 0 0 2.144 0 2.66 2.66 0 0 0 .89-.671 2.81 2.81 0 0 0 .554-.991c.116-.367.159-.756.124-1.14Zm12.586 0a5.04 5.04 0 0 1-1.375 3.477 4.589 4.589 0 0 1-3.32 1.44 4.588 4.588 0 0 1-3.318-1.44 5.039 5.039 0 0 1-1.375-3.477c0-1.304.494-2.555 1.375-3.477a4.588 4.588 0 0 1 3.319-1.44c1.245 0 2.439.518 3.32 1.44a5.04 5.04 0 0 1 1.374 3.477Zm-2.05 0a2.903 2.903 0 0 0-.124-1.14 2.811 2.811 0 0 0-.554-.992 2.66 2.66 0 0 0-.89-.671 2.55 2.55 0 0 0-2.145 0 2.66 2.66 0 0 0-.889.671 2.811 2.811 0 0 0-.554.991c-.117.367-.159.756-.124 1.141-.035.385.007.774.124 1.141.117.367.306.705.554.99.249.287.551.516.89.672a2.55 2.55 0 0 0 2.144 0 2.66 2.66 0 0 0 .89-.671 2.81 2.81 0 0 0 .554-.991c.116-.367.159-.756.124-1.14Zm12.325-4.669v8.932c0 3.665-2.082 5.174-4.536 5.174a4.403 4.403 0 0 1-2.533-.78 4.722 4.722 0 0 1-1.694-2.122l1.797-.83c.186.507.51.944.933 1.258.422.315.924.491 1.442.509 1.583 0 2.549-1.02 2.549-2.92v-.712h-.08a3.27 3.27 0 0 1-1.117.848 3.133 3.133 0 0 1-1.352.288 4.643 4.643 0 0 1-3.359-1.458 5.098 5.098 0 0 1-1.39-3.518c0-1.32.5-2.585 1.39-3.518a4.643 4.643 0 0 1 3.359-1.458c.468-.01.933.083 1.364.275.431.191.819.476 1.137.837h.08v-.83h2.01v.025Zm-1.845 4.694a2.938 2.938 0 0 0-.127-1.11 2.846 2.846 0 0 0-.53-.971 2.7 2.7 0 0 0-.85-.677 2.587 2.587 0 0 0-1.034-.277 2.652 2.652 0 0 0-1.058.262c-.333.16-.632.388-.88.67a2.915 2.915 0 0 0-.563.976 3.011 3.011 0 0 0-.158 1.127c-.017.38.038.76.164 1.118.125.358.317.686.565.965.247.279.546.503.877.66.332.156.69.241 1.053.25a2.553 2.553 0 0 0 1.03-.264c.323-.16.612-.386.85-.665.237-.28.418-.607.531-.961.114-.355.158-.73.13-1.103Zm5.51-9.96v14.604h-2.09V.57h2.09Zm8.232 11.577 1.63 1.128a4.835 4.835 0 0 1-1.714 1.623 4.578 4.578 0 0 1-2.243.583 4.415 4.415 0 0 1-1.815-.362 4.593 4.593 0 0 1-1.533-1.08 4.85 4.85 0 0 1-1.003-1.626 5.025 5.025 0 0 1-.311-1.908 4.735 4.735 0 0 1 .854-3.137 4.352 4.352 0 0 1 2.63-1.744 4.2 4.2 0 0 1 3.072.533 4.543 4.543 0 0 1 1.953 2.54l.214.572-6.333 2.745c.197.465.523.857.935 1.126.412.27.892.403 1.377.384a2.629 2.629 0 0 0 1.313-.379c.4-.24.736-.584.974-.998Zm-4.995-1.791 4.26-1.841a1.904 1.904 0 0 0-.737-.805 1.784 1.784 0 0 0-1.037-.248 2.509 2.509 0 0 0-.998.258 2.617 2.617 0 0 0-.824.643c-.232.269-.41.584-.523.926a2.848 2.848 0 0 0-.14 1.067Z" fill="#212129"/></svg>