<svg width="25" height="29" viewBox="0 0 25 29" fill="none" xmlns="http://www.w3.org/2000/svg"><path d="M20.314 15.257c-.033-3.626 3.05-5.39 3.19-5.472-1.745-2.478-4.452-2.817-5.403-2.844-2.273-.233-4.478 1.324-5.635 1.324-1.181 0-2.964-1.301-4.886-1.263-2.473.037-4.786 1.43-6.055 3.595-2.619 4.414-.666 10.9 1.843 14.467 1.255 1.747 2.721 3.698 4.64 3.629 1.878-.076 2.58-1.166 4.846-1.166 2.245 0 2.904 1.166 4.861 1.122 2.015-.032 3.284-1.755 4.495-3.518 1.45-2.002 2.033-3.974 2.056-4.076-.047-.015-3.914-1.452-3.952-5.798ZM16.616 4.594c1.01-1.23 1.701-2.902 1.51-4.6-1.462.063-3.29.985-4.343 2.187-.931 1.06-1.763 2.797-1.549 4.43 1.643.12 3.328-.806 4.382-2.017Z" fill="#212129"/></svg>