<svg width="26" height="29" viewBox="0 0 26 29" fill="none" xmlns="http://www.w3.org/2000/svg"><path fill-rule="evenodd" clip-rule="evenodd" d="m12.805 14.765 5.912 5.816 5.13-3a3.081 3.081 0 0 0 1.194-1.151 3.182 3.182 0 0 0 0-3.236 3.08 3.08 0 0 0-1.195-1.15h.018l-5.18-3.04-5.88 5.761ZM12.291 14.26.76 2.918c.193-.644.58-1.21 1.105-1.617a3.079 3.079 0 0 1 1.89-.647c.566.001 1.12.156 1.608.449l12.46 7.314-5.532 5.843ZM.764 26.564l11.53-11.299 5.508 5.832L5.32 28.38a3.06 3.06 0 0 1-2.744.198 3.13 3.13 0 0 1-1.156-.832 3.225 3.225 0 0 1-.655-1.183ZM.637 3.805a3.115 3.115 0 0 1 .096-.782L11.818 14.76.736 26.465a3.298 3.298 0 0 1-.1-.796V3.805Z" fill="#212129"/></svg>