<svg width="148" height="29" viewBox="0 0 148 29" fill="none" xmlns="http://www.w3.org/2000/svg"><path d="M24.611 27.902h-3.825a.681.681 0 0 1-.665-.679V17.89c0-1.075-.25-1.952-.776-2.546-.526-.622-1.302-.933-2.3-.933-1.026 0-1.802.34-2.356.99-.554.707-.804 1.527-.804 2.489v9.333a.681.681 0 0 1-.665.679H9.396a.681.681 0 0 1-.666-.679V10.564c0-.367.305-.678.666-.678h3.796c.36 0 .666.31.666.679v1.668h.027c.638-1.131 1.553-1.895 2.772-2.29.942-.284 1.69-.425 2.245-.425 2.106 0 3.686.679 4.767 2.065 1.08 1.386 1.607 3.082 1.607 5.119v10.521a.663.663 0 0 1-.665.679ZM126.936 27.902h-3.824a.682.682 0 0 1-.666-.679V17.89c0-1.075-.249-1.952-.776-2.546-.526-.622-1.302-.933-2.3-.933-1.025 0-1.801.34-2.356.99-.554.707-.804 1.527-.804 2.489v9.333a.68.68 0 0 1-.665.679h-3.852a.681.681 0 0 1-.665-.679V10.564c0-.367.305-.678.665-.678h3.797c.36 0 .665.31.665.679v1.668h.028c.637-1.131 1.552-1.895 2.771-2.29.943-.284 1.691-.425 2.245-.425 2.107 0 3.686.679 4.767 2.065 1.081 1.386 1.608 3.082 1.608 5.119v10.521c0 .396-.277.679-.638.679ZM37.887 27.902h-4.324a.635.635 0 0 1-.61-.424L26.33 10.819c-.166-.452.14-.933.61-.933h4.019c.277 0 .527.17.61.452l4.185 11.596 4.212-11.596a.66.66 0 0 1 .61-.452h4.019c.471 0 .804.48.61.933l-6.68 16.659a.7.7 0 0 1-.637.424ZM72.559 28.298c-1.996 0-3.603-.453-4.823-1.386-.582-.424-1.053-.877-1.413-1.386-.527-.622-.942-1.697-1.136-2.517-.111-.424.221-.849.637-.849h3.409c.25 0 .499.142.61.396.11.283.332.623.665.905.526.51 1.192.764 1.995.764.638 0 1.137-.17 1.497-.48.36-.312.554-.68.554-1.076 0-.763-.582-1.3-1.718-1.555l-2.245-.51c-3.381-.763-5.072-2.516-5.072-5.26 0-1.64.637-3.026 1.912-4.157 1.303-1.16 2.91-1.754 4.823-1.754 2.577 0 4.517.82 5.82 2.46.554.651.942 1.471 1.164 2.348.111.424-.222.849-.637.849h-3.382a.645.645 0 0 1-.582-.368c-.11-.226-.305-.452-.61-.707-.443-.368-1.025-.566-1.718-.566-.582 0-1.025.142-1.413.425-.36.282-.555.65-.555 1.074 0 .679.472 1.103 1.386 1.301l2.44.538c1.718.339 3.048.99 3.99 1.951.915.962 1.386 2.15 1.386 3.507 0 1.584-.582 2.942-1.718 4.101-1.248 1.33-3.021 1.952-5.266 1.952ZM103.739 8.274l2.522 1.697a3.814 3.814 0 0 1 1.663 3.139v14.113a.682.682 0 0 1-.666.679h-3.88a.681.681 0 0 1-.665-.679V8.811a.668.668 0 0 1 1.026-.537ZM86.749 14.467h3.714c.36 0 .665-.31.665-.678v-3.225a.681.681 0 0 0-.665-.679h-3.714v-1.81c0-1.272-.582-2.489-1.607-3.252l-1.996-1.527a.896.896 0 0 0-1.441.735l-.083 15.895c0 4.412 3.492 7.976 7.815 7.976h1.026c.36 0 .665-.312.665-.68V24a.681.681 0 0 0-.665-.68c-2.051 0-3.714-1.696-3.714-3.79v-5.062ZM61.03 11.95c-1.636-1.668-3.742-2.489-6.348-2.489a9.05 9.05 0 0 0-4.656 1.245c-1.469.877-2.605 2.008-3.437 3.45-.859 1.443-1.274 3.027-1.274 4.752 0 1.753.443 3.394 1.302 4.893a8.934 8.934 0 0 0 3.52 3.337c1.497.792 3.104 1.188 4.878 1.188s3.409-.48 4.878-1.414c1.053-.679 1.58-1.244 1.912-1.754.194-.339.111-.763-.221-.961L58.755 22.5a.62.62 0 0 0-.803.113c-.222.226-.471.453-.804.622-.748.453-1.497.679-2.245.679-1.109 0-2.079-.34-2.882-.99-.832-.679-1.303-1.527-1.47-2.574H62.36c.582 0 1.081-.48 1.11-1.074v-.792c0-2.687-.805-4.865-2.44-6.534ZM50.69 16.843c.084-.707.5-1.414 1.22-2.093.693-.678 1.552-1.018 2.633-1.018 1.247 0 2.19.368 2.855 1.075.554.622.859 1.3.914 2.036h-7.622ZM1.469.496l1.968 1.386a4.834 4.834 0 0 1 2.023 3.96v21.381a.681.681 0 0 1-.665.68H.942a.681.681 0 0 1-.665-.68V1.147C.25.523.97.156 1.47.495ZM95.285 1.033l1.968 1.386a4.834 4.834 0 0 1 2.023 3.96v20.844a.681.681 0 0 1-.665.679H94.76a.681.681 0 0 1-.665-.679V1.683c0-.65.693-1.018 1.191-.65ZM131.925 1.033l1.968 1.386a4.834 4.834 0 0 1 2.023 3.96v20.844a.681.681 0 0 1-.665.679h-3.88a.68.68 0 0 1-.665-.679V1.683c0-.65.692-1.018 1.219-.65ZM142.706 17.776l5.017-6.618c.332-.452.028-1.103-.527-1.103h-4.24a.679.679 0 0 0-.527.255l-4.434 5.854a4.659 4.659 0 0 0 0 5.6l4.434 5.855c.139.17.333.254.527.254h4.24c.555 0 .859-.65.527-1.103l-5.017-6.59c-.526-.678-.526-1.697 0-2.404ZM106.566.926h-2.467c-.748 0-1.358.622-1.358 1.386v2.517c0 .763.61 1.386 1.358 1.386h2.467c.748 0 1.358-.623 1.358-1.386V2.312c0-.764-.61-1.386-1.358-1.386Z" fill="#fff"/></svg>