<svg width="148" height="28" viewBox="0 0 148 28" fill="none" xmlns="http://www.w3.org/2000/svg"><path d="M24.611 27.542h-3.824a.681.681 0 0 1-.665-.68V17.53c0-1.074-.25-1.951-.776-2.545-.527-.622-1.303-.933-2.3-.933-1.026 0-1.802.339-2.357.99-.554.707-.803 1.527-.803 2.488v9.334a.681.681 0 0 1-.666.679H9.396a.681.681 0 0 1-.666-.68V10.205c0-.368.305-.679.666-.679h3.797c.36 0 .665.311.665.68v1.668h.027c.638-1.131 1.553-1.895 2.772-2.291.942-.283 1.69-.424 2.245-.424 2.106 0 3.686.678 4.767 2.064 1.08 1.386 1.607 3.083 1.607 5.12v10.52a.663.663 0 0 1-.665.68ZM126.936 27.542h-3.825a.682.682 0 0 1-.665-.68V17.53c0-1.074-.249-1.951-.776-2.545-.527-.622-1.303-.933-2.3-.933-1.026 0-1.802.339-2.356.99-.554.707-.804 1.527-.804 2.488v9.334a.682.682 0 0 1-.665.679h-3.852a.682.682 0 0 1-.666-.68V10.205c0-.368.305-.679.666-.679h3.797c.36 0 .665.311.665.68v1.668h.027c.638-1.131 1.552-1.895 2.772-2.291.942-.283 1.691-.424 2.245-.424 2.106 0 3.686.678 4.767 2.064 1.081 1.386 1.607 3.083 1.607 5.12v10.52c0 .397-.277.68-.637.68ZM37.886 27.542h-4.323a.635.635 0 0 1-.61-.425L26.329 10.46c-.166-.453.139-.934.61-.934h4.018c.278 0 .527.17.61.453l4.185 11.596 4.213-11.596a.66.66 0 0 1 .61-.453h4.018c.472 0 .804.481.61.934l-6.68 16.658a.7.7 0 0 1-.637.425ZM72.558 27.937c-1.996 0-3.603-.452-4.823-1.386-.582-.424-1.053-.876-1.413-1.385-.527-.622-.942-1.697-1.136-2.518-.111-.424.221-.848.637-.848h3.409c.25 0 .499.141.61.396.11.283.332.622.665.905.526.51 1.192.764 1.995.764.638 0 1.137-.17 1.497-.481.36-.311.554-.679.554-1.075 0-.764-.582-1.3-1.718-1.555l-2.245-.51c-3.381-.763-5.072-2.517-5.072-5.26 0-1.64.638-3.026 1.912-4.158 1.303-1.16 2.91-1.753 4.823-1.753 2.578 0 4.518.82 5.82 2.46.555.65.943 1.471 1.164 2.348.111.424-.221.848-.637.848h-3.381a.645.645 0 0 1-.582-.367c-.111-.227-.305-.453-.61-.707-.444-.368-1.026-.566-1.719-.566-.582 0-1.025.141-1.413.424-.36.283-.554.65-.554 1.075 0 .679.47 1.103 1.385 1.3l2.44.538c1.718.34 3.048.99 3.99 1.952.915.961 1.386 2.15 1.386 3.507 0 1.584-.582 2.941-1.718 4.1-1.247 1.33-3.021 1.952-5.266 1.952ZM103.738 7.913l2.522 1.697a3.811 3.811 0 0 1 1.663 3.14v14.113a.68.68 0 0 1-.665.679h-3.88a.682.682 0 0 1-.665-.68V8.452c.028-.51.582-.82 1.025-.538ZM86.748 14.107h3.714c.36 0 .665-.311.665-.679v-3.224a.681.681 0 0 0-.665-.679h-3.714v-1.81c0-1.273-.582-2.489-1.607-3.252l-1.996-1.528a.896.896 0 0 0-1.44.736l-.084 15.894c0 4.413 3.492 7.976 7.816 7.976h1.025c.36 0 .665-.31.665-.678v-3.225a.681.681 0 0 0-.665-.679c-2.05 0-3.714-1.697-3.714-3.79v-5.062ZM61.03 11.59c-1.636-1.669-3.742-2.489-6.348-2.489a9.05 9.05 0 0 0-4.656 1.244c-1.469.877-2.605 2.009-3.437 3.451-.859 1.442-1.274 3.026-1.274 4.752 0 1.753.443 3.394 1.302 4.893a8.933 8.933 0 0 0 3.52 3.337c1.497.792 3.104 1.188 4.878 1.188s3.409-.481 4.878-1.414c1.053-.68 1.58-1.245 1.912-1.754.194-.34.111-.764-.222-.962l-2.827-1.696a.62.62 0 0 0-.803.113c-.222.226-.472.452-.804.622-.748.452-1.497.679-2.245.679-1.109 0-2.079-.34-2.882-.99-.832-.68-1.303-1.528-1.47-2.574H62.36c.582 0 1.081-.48 1.109-1.075v-.792c0-2.687-.804-4.864-2.439-6.533ZM50.69 16.483c.083-.707.5-1.414 1.22-2.093.693-.679 1.552-1.018 2.633-1.018 1.247 0 2.19.367 2.854 1.075.555.622.86 1.3.915 2.036h-7.622ZM1.47.136 3.438 1.52a4.834 4.834 0 0 1 2.023 3.96v21.382a.681.681 0 0 1-.665.679H.943a.681.681 0 0 1-.665-.68V.787C.25.164.971-.204 1.47.136ZM95.285.673l1.968 1.386a4.834 4.834 0 0 1 2.023 3.96v20.844a.682.682 0 0 1-.665.678H94.76a.681.681 0 0 1-.665-.678V1.323c0-.65.693-1.018 1.192-.65ZM131.925.673l1.967 1.386a4.835 4.835 0 0 1 2.024 3.96v20.844a.682.682 0 0 1-.666.678h-3.88a.682.682 0 0 1-.665-.678V1.323c0-.65.693-1.018 1.22-.65ZM142.706 17.416l5.016-6.618c.333-.453.028-1.103-.527-1.103h-4.24a.679.679 0 0 0-.527.254l-4.434 5.855a4.659 4.659 0 0 0 0 5.6l4.434 5.855c.139.17.333.254.527.254h4.24c.555 0 .86-.65.527-1.103l-5.016-6.59c-.527-.679-.527-1.697 0-2.404ZM106.565.565h-2.467c-.748 0-1.358.623-1.358 1.386v2.517c0 .764.61 1.386 1.358 1.386h2.467c.748 0 1.358-.622 1.358-1.386V1.951c0-.763-.61-1.386-1.358-1.386Z" fill="#212129"/></svg>