<svg width="160" height="47" viewBox="0 0 160 47" fill="none" xmlns="http://www.w3.org/2000/svg">
<path d="M153.232 1.14556C155.959 1.14556 158.177 3.31187 158.177 5.97412V40.4741C158.177 43.1364 155.959 45.3027 153.232 45.3027H5.9987C3.27194 45.3027 1.05314 43.1364 1.05314 40.4741V5.97412C1.05314 3.31187 3.27194 1.14556 5.9987 1.14556H153.232ZM153.232 0.224124H5.9987C2.76105 0.224124 0.109375 2.81306 0.109375 5.97412V40.4741C0.109375 43.6352 2.76105 46.2241 5.9987 46.2241H153.232C156.47 46.2241 159.121 43.6352 159.121 40.4741V5.97412C159.121 2.81306 156.47 0.224124 153.232 0.224124Z" fill="#828282"/>
<path d="M54.0471 13.3847C54.0471 13.9686 53.8233 14.4454 53.3756 14.8151C52.9345 15.1849 52.3669 15.3698 51.6728 15.3698C51.1278 15.3698 50.638 15.2433 50.2034 14.9903C49.7688 14.7308 49.4314 14.3772 49.1914 13.9296L49.9212 13.3944C50.3753 14.0821 50.9559 14.4259 51.663 14.4259C52.0523 14.4259 52.3734 14.3253 52.6264 14.1242C52.8794 13.9231 53.0059 13.6604 53.0059 13.3361C53.0059 13.0376 52.8956 12.8009 52.675 12.6257C52.4609 12.4506 52.1463 12.363 51.7311 12.363H50.9429V11.4775H51.7019C52.0133 11.4775 52.2566 11.3996 52.4318 11.2439C52.6069 11.0818 52.6945 10.8677 52.6945 10.6017C52.6945 10.3163 52.6037 10.0925 52.422 9.93028C52.2404 9.76162 51.9841 9.67728 51.6533 9.67728C51.05 9.67728 50.5667 9.96596 50.2034 10.5433L49.4736 10.0081C49.9342 9.15831 50.6705 8.7334 51.6825 8.7334C52.3053 8.7334 52.8015 8.89558 53.1713 9.21994C53.5475 9.5443 53.7357 9.97894 53.7357 10.5239C53.7357 11.0623 53.5021 11.4969 53.0351 11.8278C53.7097 12.1521 54.0471 12.6711 54.0471 13.3847Z" fill="#828282"/>
<path d="M58.9994 12.3727V15.2627H58.0458V14.7276C57.689 15.1557 57.1798 15.3698 56.5181 15.3698C56.0186 15.3698 55.6163 15.2433 55.3115 14.9903C55.0066 14.7373 54.8541 14.4032 54.8541 13.988C54.8541 13.5728 55.013 13.242 55.3309 12.9955C55.6488 12.749 56.0769 12.6257 56.6154 12.6257H57.968V12.3143C57.968 11.9835 57.8771 11.7305 57.6955 11.5553C57.5203 11.3802 57.2706 11.2926 56.9462 11.2926C56.4597 11.2926 56.0186 11.5294 55.6228 12.0029L55.0293 11.3996C55.4963 10.7185 56.1678 10.3779 57.0435 10.3779C57.6403 10.3779 58.1139 10.5531 58.4642 10.9034C58.821 11.2537 58.9994 11.7434 58.9994 12.3727ZM57.968 13.4528V13.3652H56.7419C56.1775 13.3652 55.8953 13.5599 55.8953 13.9491C55.8953 14.1437 55.9699 14.2994 56.1191 14.4162C56.2748 14.5264 56.4791 14.5816 56.7321 14.5816C57.0825 14.5816 57.3744 14.4746 57.6079 14.2605C57.8479 14.0464 57.968 13.7772 57.968 13.4528Z" fill="#828282"/>
<path d="M60.4311 15.2627V10.4849H63.798V11.3704H61.4626V15.2627H60.4311Z" fill="#828282"/>
<path d="M69.7078 12.869C69.7078 13.5826 69.484 14.1794 69.0364 14.6594C68.5953 15.133 68.0374 15.3698 67.3627 15.3698C66.701 15.3698 66.1691 15.1395 65.7669 14.6789V17.0143H64.7451V10.4849H65.6987V11.1564C66.062 10.6374 66.6167 10.3779 67.3627 10.3779C68.0374 10.3779 68.5953 10.6179 69.0364 11.098C69.484 11.5715 69.7078 12.1619 69.7078 12.869ZM68.2385 13.9977C68.5174 13.7058 68.6569 13.3328 68.6569 12.8787C68.6569 12.4246 68.5174 12.0516 68.2385 11.7597C67.9595 11.4613 67.6125 11.3121 67.1973 11.3121C66.7951 11.3121 66.4545 11.4483 66.1756 11.7207C65.8966 11.9932 65.7571 12.3759 65.7571 12.869C65.7571 13.3685 65.8966 13.7545 66.1756 14.0269C66.4545 14.2994 66.7951 14.4356 67.1973 14.4356C67.6125 14.4356 67.9595 14.2897 68.2385 13.9977Z" fill="#828282"/>
<path d="M74.0027 10.4849H75.0926L72.7669 15.8077C72.5658 16.2618 72.3258 16.5926 72.0469 16.8002C71.7679 17.0143 71.4241 17.1213 71.0154 17.1213C70.7429 17.1213 70.4802 17.0889 70.2272 17.024V16.158C70.4932 16.1839 70.6813 16.1969 70.7916 16.1969C71.2846 16.1969 71.6317 15.9634 71.8328 15.4963L72.0274 15.0487L70.1202 10.4849H71.2197L72.5918 13.9588L74.0027 10.4849Z" fill="#828282"/>
<path d="M79.4795 13.8712C79.4795 14.3448 79.3108 14.7146 78.9735 14.9806C78.6426 15.24 78.1853 15.3698 77.6014 15.3698C76.7581 15.3698 76.1094 15.0681 75.6553 14.4648L76.2781 13.8518C76.6154 14.2605 77.0403 14.4648 77.5528 14.4648C77.8382 14.4648 78.062 14.4064 78.2242 14.2897C78.3864 14.1664 78.4675 14.0042 78.4675 13.8031C78.4675 13.6085 78.3896 13.4561 78.2339 13.3458C78.0847 13.2355 77.8739 13.1804 77.6014 13.1804H77.0468V12.363H77.5723C77.7928 12.363 77.9615 12.3143 78.0783 12.217C78.195 12.1197 78.2534 11.9867 78.2534 11.8181C78.2534 11.6559 78.1885 11.5261 78.0588 11.4288C77.9355 11.3315 77.7604 11.2829 77.5333 11.2829C77.0727 11.2829 76.6835 11.4613 76.3656 11.8181L75.7429 11.205C76.1775 10.6536 76.7905 10.3779 77.582 10.3779C78.1074 10.3779 78.5161 10.4979 78.8081 10.7379C79.1065 10.9715 79.2557 11.3023 79.2557 11.7305C79.2557 12.1716 79.0838 12.5089 78.7399 12.7425C79.233 12.9825 79.4795 13.3588 79.4795 13.8712Z" fill="#828282"/>
<path d="M84.5056 10.3779H84.8559V15.2627H83.8244V12.2949L81.0414 15.3698H80.6814V10.4849H81.7128V13.4723L84.5056 10.3779Z" fill="#828282"/>
<path d="M87.3081 15.2627V11.3704H85.7707V10.4849H89.8673V11.3704H88.3298V15.2627H87.3081Z" fill="#828282"/>
<path d="M95.0645 13.2096H91.5031C91.5679 13.5988 91.7398 13.9069 92.0188 14.134C92.3042 14.3545 92.6513 14.4648 93.06 14.4648C93.566 14.4648 94.0298 14.2767 94.4515 13.9004L94.938 14.6011C94.3996 15.1135 93.7639 15.3698 93.0308 15.3698C92.3042 15.3698 91.6944 15.133 91.2014 14.6594C90.7084 14.1794 90.4619 13.5858 90.4619 12.8787C90.4489 12.1911 90.6889 11.6007 91.182 11.1077C91.675 10.6082 92.2588 10.3649 92.9335 10.3779C93.5627 10.3779 94.0882 10.5887 94.5099 11.0104C94.9315 11.4256 95.1424 11.9446 95.1424 12.5673C95.1424 12.7554 95.1164 12.9695 95.0645 13.2096ZM91.5225 12.4116H94.1206C94.1142 12.0548 93.9941 11.7726 93.7606 11.5651C93.5271 11.351 93.2384 11.2439 92.8946 11.2439C92.5572 11.2439 92.2621 11.351 92.0091 11.5651C91.7626 11.7726 91.6004 12.0548 91.5225 12.4116Z" fill="#828282"/>
<path d="M103.137 13.8129C103.137 14.241 102.978 14.5913 102.66 14.8638C102.349 15.1298 101.94 15.2627 101.434 15.2627H99.0501V10.4849H101.152C101.626 10.4849 102.012 10.6049 102.31 10.845C102.608 11.085 102.758 11.3996 102.758 11.7889C102.758 12.1716 102.612 12.47 102.32 12.6841C102.865 12.8917 103.137 13.2679 103.137 13.8129ZM100.052 11.3121V12.3922H101.113C101.567 12.3922 101.794 12.2105 101.794 11.8472C101.794 11.4904 101.567 11.3121 101.113 11.3121H100.052ZM102.164 13.7934C102.164 13.6053 102.089 13.4561 101.94 13.3458C101.797 13.2355 101.596 13.1804 101.337 13.1804H100.052V14.4454H101.337C101.59 14.4454 101.791 14.387 101.94 14.2702C102.089 14.1469 102.164 13.988 102.164 13.7934Z" fill="#828282"/>
<path d="M146.322 25.5871L143.87 32.0636H143.797L141.238 25.5871H138.925L142.759 34.6406L140.568 39.676H142.816L148.725 25.5871H146.322ZM128.994 20.2127H126.853V35.1492H128.994V20.2127ZM120.935 20.2127H115.786V35.1492H117.944V29.495H120.944C121.548 29.5165 122.151 29.4132 122.717 29.191C123.283 28.9688 123.801 28.6323 124.24 28.2009C124.68 27.7695 125.032 27.2519 125.277 26.678C125.523 26.1042 125.655 25.4856 125.668 24.8581C125.655 24.2295 125.522 23.6098 125.277 23.0349C125.031 22.46 124.678 21.9415 124.238 21.5093C123.798 21.0771 123.279 20.7399 122.712 20.5173C122.145 20.2948 121.541 20.1912 120.935 20.2127ZM120.993 27.4097H117.944V22.3234H121.001C121.651 22.3234 122.275 22.5914 122.735 23.0683C123.195 23.5452 123.453 24.1921 123.453 24.8666C123.453 25.541 123.195 26.1879 122.735 26.6648C122.275 27.1417 121.651 27.4097 121.001 27.4097H120.993ZM134.275 25.265C133.49 25.2183 132.71 25.41 132.029 25.8166C131.348 26.2231 130.796 26.8268 130.441 27.5538L132.354 28.4015C132.543 28.0421 132.83 27.7479 133.178 27.5552C133.527 27.3624 133.922 27.2794 134.315 27.3164C134.585 27.2884 134.858 27.3159 135.118 27.3976C135.378 27.4792 135.619 27.6133 135.829 27.7921C136.039 27.971 136.212 28.191 136.34 28.4396C136.467 28.6882 136.546 28.9605 136.571 29.2407V29.3933C135.886 29.0089 135.119 28.8078 134.34 28.8084C132.288 28.8084 130.196 29.9782 130.196 32.1992C130.196 34.1998 131.872 35.4883 133.768 35.4883C134.307 35.5238 134.846 35.407 135.327 35.1503C135.808 34.8935 136.212 34.5065 136.498 34.0303H136.579V35.1831H138.672V29.4357C138.672 26.7824 136.759 25.3074 134.291 25.3074L134.275 25.265ZM134.021 33.4538C133.318 33.4538 132.337 33.0808 132.337 32.1823C132.337 31.0294 133.555 30.5886 134.618 30.5886C135.303 30.5696 135.981 30.7423 136.579 31.0887C136.5 31.737 136.198 32.3337 135.728 32.7684C135.257 33.2032 134.651 33.4467 134.021 33.4538ZM56.5203 35.4714C54.4864 35.4783 52.5318 34.6539 51.08 33.1766C49.6281 31.6994 48.7959 29.6884 48.7637 27.5792C48.7959 25.4701 49.6281 23.459 51.08 21.9818C52.5318 20.5046 54.4864 19.6801 56.5203 19.6871C57.4894 19.6703 58.452 19.8544 59.3517 20.2285C60.2513 20.6026 61.0699 21.1592 61.7595 21.8657L60.2801 23.3831C59.2767 22.3633 57.9251 21.7965 56.5203 21.8063C55.0527 21.8063 53.6453 22.411 52.6076 23.4873C51.5698 24.5635 50.9869 26.0232 50.9869 27.5453C50.9869 29.0674 51.5698 30.5271 52.6076 31.6034C53.6453 32.6796 55.0527 33.2843 56.5203 33.2843C57.2345 33.3147 57.9469 33.1893 58.6114 32.9162C59.276 32.6432 59.8778 32.2285 60.3782 31.6991C61.0434 30.9552 61.4442 29.9984 61.5143 28.9864H56.5203V26.8926H63.5495C63.6261 27.3373 63.6617 27.7887 63.6557 28.2404C63.7263 30.117 63.0768 31.946 61.8494 33.3267C61.1564 34.0527 60.3236 34.6189 59.4054 34.9885C58.4871 35.358 57.504 35.5226 56.5203 35.4714ZM74.5264 30.3851C74.5533 31.0632 74.4477 31.7399 74.216 32.3746C73.9843 33.0093 73.6313 33.5888 73.1782 34.0784C72.7251 34.5681 72.1813 34.9576 71.5794 35.2238C70.9774 35.4899 70.3298 35.6271 69.6755 35.6271C69.0212 35.6271 68.3736 35.4899 67.7716 35.2238C67.1697 34.9576 66.6259 34.5681 66.1728 34.0784C65.7197 33.5888 65.3667 33.0093 65.135 32.3746C64.9033 31.7399 64.7977 31.0632 64.8245 30.3851C64.7977 29.7071 64.9033 29.0304 65.135 28.3957C65.3667 27.761 65.7197 27.1814 66.1728 26.6918C66.6259 26.2022 67.1697 25.8126 67.7716 25.5465C68.3736 25.2804 69.0212 25.1432 69.6755 25.1432C70.3298 25.1432 70.9774 25.2804 71.5794 25.5465C72.1813 25.8126 72.7251 26.2022 73.1782 26.6918C73.6313 27.1814 73.9843 27.761 74.216 28.3957C74.4477 29.0304 74.5533 29.7071 74.5264 30.3851ZM72.4013 30.3851C72.4374 29.9913 72.3937 29.5941 72.2731 29.2188C72.1526 28.8435 71.9577 28.4985 71.7011 28.2059C71.4444 27.9133 71.1317 27.6795 70.7829 27.5195C70.4341 27.3595 70.0569 27.2769 69.6755 27.2769C69.2941 27.2769 68.9169 27.3595 68.5681 27.5195C68.2193 27.6795 67.9065 27.9133 67.6499 28.2059C67.3933 28.4985 67.1984 28.8435 67.0778 29.2188C66.9573 29.5941 66.9136 29.9913 66.9496 30.3851C66.9136 30.7789 66.9573 31.1762 67.0778 31.5515C67.1984 31.9267 67.3933 32.2717 67.6499 32.5644C67.9065 32.857 68.2193 33.0908 68.5681 33.2508C68.9169 33.4107 69.2941 33.4934 69.6755 33.4934C70.0569 33.4934 70.4341 33.4107 70.7829 33.2508C71.1317 33.0908 71.4444 32.857 71.7011 32.5644C71.9577 32.2717 72.1526 31.9267 72.2731 31.5515C72.3937 31.1762 72.4374 30.7789 72.4013 30.3851ZM85.3972 30.3851C85.3972 31.7183 84.8865 32.997 83.9775 33.9397C83.0686 34.8824 81.8358 35.412 80.5503 35.412C79.2648 35.412 78.032 34.8824 77.123 33.9397C76.2141 32.997 75.7034 31.7183 75.7034 30.3851C75.7034 29.0519 76.2141 27.7733 77.123 26.8306C78.032 25.8879 79.2648 25.3582 80.5503 25.3582C81.8358 25.3582 83.0686 25.8879 83.9775 26.8306C84.8865 27.7733 85.3972 29.0519 85.3972 30.3851ZM83.2802 30.3851C83.3163 29.9913 83.2726 29.5941 83.152 29.2188C83.0314 28.8435 82.8366 28.4985 82.58 28.2059C82.3233 27.9133 82.0106 27.6795 81.6618 27.5195C81.313 27.3595 80.9358 27.2769 80.5544 27.2769C80.173 27.2769 79.7958 27.3595 79.447 27.5195C79.0982 27.6795 78.7854 27.9133 78.5288 28.2059C78.2722 28.4985 78.0773 28.8435 77.9567 29.2188C77.8361 29.5941 77.7925 29.9913 77.8285 30.3851C77.7925 30.7789 77.8361 31.1762 77.9567 31.5515C78.0773 31.9267 78.2722 32.2717 78.5288 32.5644C78.7854 32.857 79.0982 33.0908 79.447 33.2508C79.7958 33.4107 80.173 33.4934 80.5544 33.4934C80.9358 33.4934 81.313 33.4107 81.6618 33.2508C82.0106 33.0908 82.3233 32.857 82.58 32.5644C82.8366 32.2717 83.0314 31.9267 83.152 31.5515C83.2726 31.1762 83.3163 30.7789 83.2802 30.3851ZM96.0063 25.6125V34.7423C96.0063 38.4892 93.8567 40.032 91.3229 40.032C90.3941 40.0401 89.4839 39.7626 88.7071 39.2346C87.9302 38.7065 87.3217 37.9516 86.9583 37.065L88.8137 36.2173C89.0061 36.7349 89.3413 37.1821 89.7774 37.5033C90.2135 37.8244 90.7312 38.0051 91.2657 38.023C92.9004 38.023 93.8976 36.9803 93.8976 35.039V34.31H93.8158C93.4952 34.681 93.1018 34.9766 92.662 35.1769C92.2221 35.3772 91.7461 35.4776 91.2657 35.4714C89.9651 35.4714 88.7177 34.9355 87.798 33.9816C86.8783 33.0278 86.3616 31.7341 86.3616 30.3851C86.3616 29.0362 86.8783 27.7425 87.798 26.7886C88.7177 25.8348 89.9651 25.2989 91.2657 25.2989C91.7492 25.2879 92.2295 25.3834 92.6747 25.5792C93.12 25.775 93.5201 26.0667 93.8485 26.4348H93.9303V25.5871H96.0063V25.6125ZM94.1019 30.4106C94.1319 30.0269 94.0873 29.6409 93.9708 29.2755C93.8542 28.91 93.668 28.5726 93.4233 28.2832C93.1786 27.9939 92.8803 27.7584 92.5462 27.5909C92.2121 27.4233 91.8489 27.3271 91.4782 27.308C91.1003 27.3209 90.7287 27.4119 90.3851 27.5756C90.0415 27.7393 89.7328 27.9725 89.4771 28.2613C89.2214 28.5502 89.0238 28.8891 88.8958 29.2581C88.7679 29.6271 88.7122 30.0189 88.7319 30.4106C88.7144 30.7995 88.772 31.1882 88.9012 31.5538C89.0304 31.9194 89.2288 32.2546 89.4846 32.5396C89.7404 32.8247 90.0485 33.0539 90.3908 33.2138C90.7332 33.3737 91.1029 33.461 91.4782 33.4708C91.8467 33.456 92.2084 33.3641 92.5418 33.2008C92.8752 33.0374 93.1734 32.8059 93.4184 32.5201C93.6634 32.2343 93.8502 31.9002 93.9677 31.5377C94.0852 31.1752 94.1308 30.7918 94.1019 30.4106ZM99.7906 20.2296V35.1577H97.6328V20.2296H99.7906ZM108.291 32.0636L109.975 33.2165C109.525 33.9122 108.917 34.4821 108.204 34.8755C107.491 35.2688 106.696 35.4735 105.888 35.4714C105.246 35.4809 104.608 35.3551 104.014 35.1017C103.42 34.8483 102.881 34.4724 102.431 33.9969C101.981 33.5215 101.629 32.9562 101.396 32.3354C101.162 31.7146 101.053 31.0511 101.074 30.3851C100.978 29.2402 101.292 28.0989 101.956 27.1786C102.619 26.2583 103.586 25.6235 104.672 25.3951C105.758 25.1667 106.887 25.3607 107.844 25.9402C108.801 26.5197 109.518 27.444 109.86 28.5371L110.081 29.122L103.542 31.928C103.746 32.4029 104.082 32.8037 104.508 33.0787C104.933 33.3537 105.428 33.4903 105.929 33.4708C106.405 33.463 106.872 33.3298 107.285 33.0837C107.698 32.8375 108.045 32.4865 108.291 32.0636ZM103.134 30.2325L107.531 28.3506C107.361 28.0051 107.097 27.719 106.771 27.5277C106.446 27.3363 106.073 27.2481 105.7 27.274C105.343 27.2902 104.993 27.38 104.67 27.5381C104.347 27.6962 104.057 27.9195 103.818 28.195C103.58 28.4704 103.396 28.7924 103.278 29.1423C103.161 29.4921 103.112 29.8628 103.134 30.2325Z" fill="#828282"/>
<path fill-rule="evenodd" clip-rule="evenodd" d="M24.1738 23.4954L30.2789 29.44L35.575 26.3728C36.0843 26.1023 36.511 25.6957 36.8086 25.1968C37.1063 24.698 37.2636 24.1261 37.2636 23.543C37.2636 22.96 37.1063 22.388 36.8086 21.8892C36.511 21.3904 36.0843 20.9837 35.575 20.7133H35.5928L30.2446 17.6064L24.1738 23.4954Z" fill="#828282"/>
<path fill-rule="evenodd" clip-rule="evenodd" d="M23.6431 22.9788L11.7363 11.3851C11.9355 10.7264 12.3347 10.1475 12.8779 9.73161C13.44 9.30113 14.1256 9.0689 14.83 9.07032C15.4132 9.07191 15.9856 9.23024 16.4889 9.5292L29.355 17.0058L23.6431 22.9788Z" fill="#828282"/>
<path fill-rule="evenodd" clip-rule="evenodd" d="M11.7402 35.5558L23.6462 24.0063L29.3332 29.9674L16.4434 37.4132C16.0176 37.6638 15.5409 37.8124 15.0499 37.8475C14.5588 37.8826 14.0663 37.8033 13.61 37.6158C13.1537 37.4282 12.7459 37.1374 12.4173 36.7654C12.1086 36.4158 11.8778 36.0032 11.7402 35.5558Z" fill="#828282"/>
<path fill-rule="evenodd" clip-rule="evenodd" d="M11.6094 12.2917C11.6082 12.0219 11.6414 11.7532 11.7085 11.4922L23.1544 23.4898L11.7122 35.4551C11.6447 35.1895 11.6102 34.9163 11.6094 34.6419V12.2917Z" fill="#828282"/>
</svg>
