<svg width="30" height="31" viewBox="0 0 30 31" fill="none" xmlns="http://www.w3.org/2000/svg">
<path fill-rule="evenodd" clip-rule="evenodd" d="M2.5 26.7866C1.98223 26.7866 1.5625 27.2064 1.5625 27.7241C1.5625 28.2419 1.98223 28.6616 2.5 28.6616H27.5C28.0178 28.6616 28.4375 28.2419 28.4375 27.7241C28.4375 27.2064 28.0178 26.7866 27.5 26.7866H26.25H23.125H21.25V20.2241C21.25 17.8671 21.25 16.6886 20.5178 15.9564C19.7855 15.2241 18.607 15.2241 16.25 15.2241H13.75C11.393 15.2241 10.2145 15.2241 9.48223 15.9564C8.75 16.6886 8.75 17.8671 8.75 20.2241V26.7866H6.875H3.75H2.5ZM11.5625 18.9741C11.5625 18.4564 11.9822 18.0366 12.5 18.0366H17.5C18.0178 18.0366 18.4375 18.4564 18.4375 18.9741C18.4375 19.4919 18.0178 19.9116 17.5 19.9116H12.5C11.9822 19.9116 11.5625 19.4919 11.5625 18.9741ZM11.5625 22.7241C11.5625 22.2064 11.9822 21.7866 12.5 21.7866H17.5C18.0178 21.7866 18.4375 22.2064 18.4375 22.7241C18.4375 23.2419 18.0178 23.6616 17.5 23.6616H12.5C11.9822 23.6616 11.5625 23.2419 11.5625 22.7241Z" fill="#212129"/>
<path d="M10 5.84912C11.1785 5.84912 11.7678 5.84912 12.1339 6.21524C12.5 6.58135 12.5 7.17061 12.5 8.34912L12.5 10.5897C12.696 10.6849 12.8664 10.805 13.0178 10.9564C13.5229 11.4615 13.6796 12.1789 13.7281 13.3491V15.2241C11.3857 15.2241 10.2122 15.2264 9.48223 15.9564C8.75 16.6886 8.75 17.8671 8.75 20.2241V26.7866H3.75V15.2241C3.75 12.8671 3.75 11.6886 4.48223 10.9564C4.6336 10.805 4.80403 10.6849 5 10.5897V8.34912C5 7.17061 5 6.58135 5.36612 6.21524C5.73223 5.84912 6.32149 5.84912 7.5 5.84912H7.8125V3.97412C7.8125 3.45635 8.23223 3.03662 8.75 3.03662C9.26777 3.03662 9.6875 3.45635 9.6875 3.97412V5.84912H10Z" fill="#F3CC50"/>
<path d="M25.8048 6.78257C25.3596 6.14016 24.575 5.84591 23.0056 5.25741C19.9366 4.10652 18.402 3.53106 17.326 4.27674C16.25 5.02242 16.25 6.6613 16.25 9.93905V15.2241C18.607 15.2241 19.7855 15.2241 20.5178 15.9564C21.25 16.6886 21.25 17.8671 21.25 20.2241V26.7866H26.25V9.93905C26.25 8.263 26.25 7.42497 25.8048 6.78257Z" fill="#F3CC50"/>
</svg>
