<svg width="25" height="26" viewBox="0 0 25 26" fill="none" xmlns="http://www.w3.org/2000/svg">
<g clip-path="url(#clip0_3868_26630)">
<path d="M25 12.7241C25 5.82056 19.4036 0.224121 12.5 0.224121C5.59644 0.224121 0 5.82056 0 12.7241C0 18.9631 4.57104 24.1345 10.5469 25.0723V16.3374H7.37305V12.7241H10.5469V9.97022C10.5469 6.8374 12.4131 5.10693 15.2683 5.10693C16.6355 5.10693 18.0664 5.35107 18.0664 5.35107V8.42725H16.4902C14.9375 8.42725 14.4531 9.39087 14.4531 10.3804V12.7241H17.9199L17.3657 16.3374H14.4531V25.0723C20.429 24.1345 25 18.9631 25 12.7241Z" fill="white"/>
</g>
<defs>
<clipPath id="clip0_3868_26630">
<rect width="25" height="25" fill="white" transform="translate(0 0.224121)"/>
</clipPath>
</defs>
</svg>
