<svg width="25" height="26" viewBox="0 0 25 26" fill="none" xmlns="http://www.w3.org/2000/svg">
<g clip-path="url(#clip0_3868_26631)">
<path d="M12.5 2.4751C15.8398 2.4751 16.2354 2.48975 17.5488 2.54834C18.7695 2.60205 19.4287 2.80713 19.8682 2.97803C20.4492 3.20264 20.8691 3.47607 21.3037 3.91064C21.7432 4.3501 22.0117 4.76514 22.2363 5.34619C22.4072 5.78565 22.6123 6.44971 22.666 7.66553C22.7246 8.98389 22.7393 9.3794 22.7393 12.7144C22.7393 16.0542 22.7246 16.4497 22.666 17.7632C22.6123 18.9839 22.4072 19.6431 22.2363 20.0825C22.0117 20.6636 21.7383 21.0835 21.3037 21.5181C20.8643 21.9575 20.4492 22.2261 19.8682 22.4507C19.4287 22.6216 18.7646 22.8267 17.5488 22.8804C16.2305 22.939 15.835 22.9536 12.5 22.9536C9.16016 22.9536 8.76465 22.939 7.45117 22.8804C6.23047 22.8267 5.57129 22.6216 5.13184 22.4507C4.55078 22.2261 4.13086 21.9526 3.69629 21.5181C3.25684 21.0786 2.98828 20.6636 2.76367 20.0825C2.59277 19.6431 2.3877 18.979 2.33398 17.7632C2.27539 16.4448 2.26074 16.0493 2.26074 12.7144C2.26074 9.37451 2.27539 8.979 2.33398 7.66553C2.3877 6.44482 2.59277 5.78565 2.76367 5.34619C2.98828 4.76514 3.26172 4.34522 3.69629 3.91064C4.13574 3.47119 4.55078 3.20264 5.13184 2.97803C5.57129 2.80713 6.23535 2.60205 7.45117 2.54834C8.76465 2.48975 9.16016 2.4751 12.5 2.4751ZM12.5 0.224121C9.10645 0.224121 8.68164 0.23877 7.34863 0.297363C6.02051 0.355957 5.10742 0.570801 4.31641 0.878418C3.49121 1.20068 2.79297 1.62549 2.09961 2.32373C1.40137 3.01709 0.976562 3.71533 0.654297 4.53565C0.34668 5.33154 0.131836 6.23975 0.0732422 7.56787C0.0146484 8.90576 0 9.33057 0 12.7241C0 16.1177 0.0146484 16.5425 0.0732422 17.8755C0.131836 19.2036 0.34668 20.1167 0.654297 20.9077C0.976562 21.7329 1.40137 22.4312 2.09961 23.1245C2.79297 23.8179 3.49121 24.2476 4.31152 24.5649C5.10742 24.8726 6.01562 25.0874 7.34375 25.146C8.67676 25.2046 9.10156 25.2192 12.4951 25.2192C15.8887 25.2192 16.3135 25.2046 17.6465 25.146C18.9746 25.0874 19.8877 24.8726 20.6787 24.5649C21.499 24.2476 22.1973 23.8179 22.8906 23.1245C23.584 22.4312 24.0137 21.7329 24.3311 20.9126C24.6387 20.1167 24.8535 19.2085 24.9121 17.8804C24.9707 16.5474 24.9854 16.1226 24.9854 12.729C24.9854 9.33545 24.9707 8.91065 24.9121 7.57764C24.8535 6.24951 24.6387 5.33643 24.3311 4.54541C24.0234 3.71533 23.5986 3.01709 22.9004 2.32373C22.207 1.63037 21.5088 1.20068 20.6885 0.883301C19.8926 0.575684 18.9844 0.36084 17.6562 0.302246C16.3184 0.23877 15.8936 0.224121 12.5 0.224121Z" fill="white"/>
<path d="M12.5 6.30322C8.95508 6.30322 6.0791 9.1792 6.0791 12.7241C6.0791 16.269 8.95508 19.145 12.5 19.145C16.0449 19.145 18.9209 16.269 18.9209 12.7241C18.9209 9.1792 16.0449 6.30322 12.5 6.30322ZM12.5 16.8892C10.2002 16.8892 8.33496 15.0239 8.33496 12.7241C8.33496 10.4243 10.2002 8.55908 12.5 8.55908C14.7998 8.55908 16.665 10.4243 16.665 12.7241C16.665 15.0239 14.7998 16.8892 12.5 16.8892Z" fill="white"/>
<path d="M20.6738 6.04932C20.6738 6.8794 20 7.54834 19.1748 7.54834C18.3447 7.54834 17.6758 6.87451 17.6758 6.04932C17.6758 5.21924 18.3496 4.55029 19.1748 4.55029C20 4.55029 20.6738 5.22412 20.6738 6.04932Z" fill="white"/>
</g>
<defs>
<clipPath id="clip0_3868_26631">
<rect width="25" height="25" fill="white" transform="translate(0 0.224121)"/>
</clipPath>
</defs>
</svg>
