<svg width="161" height="47" viewBox="0 0 161 47" fill="none" xmlns="http://www.w3.org/2000/svg">
<path d="M154.212 1.14555C156.943 1.14555 159.165 3.31187 159.165 5.97412V40.4741C159.165 43.1364 156.943 45.3027 154.212 45.3027H6.77634C4.04583 45.3027 1.82397 43.1364 1.82397 40.4741V5.97412C1.82397 3.31187 4.04583 1.14555 6.77634 1.14555H154.212ZM154.212 0.224119H6.77634C3.53423 0.224119 0.878906 2.81306 0.878906 5.97412V40.4741C0.878906 43.6352 3.53423 46.2241 6.77634 46.2241H154.212C157.454 46.2241 160.11 43.6352 160.11 40.4741V5.97412C160.11 2.81306 157.454 0.224119 154.212 0.224119Z" fill="#828282"/>
<path d="M36.4145 22.9756C36.3803 19.2691 39.5272 17.4659 39.6711 17.382C37.8889 14.8485 35.1265 14.5024 34.1558 14.4748C31.8357 14.2367 29.5853 15.8283 28.4034 15.8283C27.198 15.8283 25.378 14.4978 23.4166 14.5369C20.8924 14.5748 18.5311 15.9997 17.236 18.2123C14.5633 22.7237 16.5567 29.3535 19.1173 33.0001C20.3982 34.7861 21.895 36.7802 23.8541 36.71C25.7708 36.633 26.4868 35.5186 28.7997 35.5186C31.0915 35.5186 31.7638 36.71 33.7618 36.6652C35.8189 36.633 37.1139 34.8712 38.35 33.0691C39.8303 31.0221 40.4248 29.0062 40.4483 28.9027C40.4 28.8866 36.4534 27.418 36.4145 22.9756Z" fill="#828282"/>
<path d="M32.6401 12.0759C33.671 10.8189 34.3763 9.10889 34.1805 7.37354C32.6885 7.43794 30.8226 8.37979 29.748 9.60914C28.7974 10.6924 27.9481 12.468 28.1675 14.1378C29.8436 14.2597 31.5644 13.3133 32.6401 12.0759Z" fill="#828282"/>
<path d="M64.1529 36.4536H61.4743L60.007 31.9583H54.9069L53.5092 36.4536H50.9014L55.9543 21.1494H59.0752L64.1529 36.4536ZM59.5647 30.0723L58.2378 26.076C58.0974 25.6678 57.8344 24.7064 57.4463 23.193H57.3992C57.2446 23.8439 56.9958 24.8053 56.6537 26.076L55.3504 30.0723H59.5647Z" fill="#828282"/>
<path d="M77.1477 30.8004C77.1477 32.6772 76.6275 34.1607 75.5872 35.2498C74.6554 36.2192 73.4984 36.7034 72.1172 36.7034C70.6263 36.7034 69.5553 36.1813 68.9031 35.1371H68.8559V40.9503H66.3412V29.0513C66.3412 27.8714 66.3094 26.6604 66.248 25.4184H68.4596L68.5999 27.1676H68.6471C69.4857 25.8497 70.7584 25.1919 72.4663 25.1919C73.8015 25.1919 74.9161 25.7059 75.8078 26.7352C76.7018 27.7656 77.1477 29.1203 77.1477 30.8004ZM74.5858 30.8901C74.5858 29.816 74.3381 28.9305 73.8404 28.2336C73.2967 27.5068 72.5666 27.1434 71.6513 27.1434C71.0309 27.1434 70.4671 27.3458 69.9634 27.7449C69.4586 28.1474 69.1284 28.6729 68.9738 29.3238C68.896 29.6274 68.8571 29.8758 68.8571 30.0713V31.9113C68.8571 32.714 69.1095 33.3914 69.6143 33.9445C70.1191 34.4977 70.7749 34.7737 71.5817 34.7737C72.5288 34.7737 73.266 34.4172 73.7932 33.7065C74.3216 32.9946 74.5858 32.0562 74.5858 30.8901Z" fill="#828282"/>
<path d="M90.1651 30.8004C90.1651 32.6772 89.6449 34.1607 88.6034 35.2498C87.6728 36.2192 86.5157 36.7034 85.1346 36.7034C83.6437 36.7034 82.5727 36.1813 81.9216 35.1371H81.8744V40.9503H79.3598V29.0513C79.3598 27.8714 79.3279 26.6604 79.2666 25.4184H81.4781L81.6185 27.1676H81.6657C82.5031 25.8497 83.7758 25.1919 85.4849 25.1919C86.8189 25.1919 87.9335 25.7059 88.8275 26.7352C89.718 27.7656 90.1651 29.1203 90.1651 30.8004ZM87.6032 30.8901C87.6032 29.816 87.3543 28.9305 86.8566 28.2336C86.3129 27.5068 85.5851 27.1434 84.6687 27.1434C84.0471 27.1434 83.4845 27.3458 82.9796 27.7449C82.4748 28.1474 82.1457 28.6729 81.9912 29.3238C81.9145 29.6274 81.8744 29.8758 81.8744 30.0713V31.9113C81.8744 32.714 82.1269 33.3914 82.6293 33.9445C83.1341 34.4965 83.7899 34.7737 84.5991 34.7737C85.5462 34.7737 86.2834 34.4172 86.8106 33.7065C87.339 32.9946 87.6032 32.0562 87.6032 30.8901Z" fill="#828282"/>
<path d="M104.72 32.1619C104.72 33.4637 104.257 34.5229 103.326 35.3405C102.304 36.2341 100.88 36.6803 99.0505 36.6803C97.3615 36.6803 96.0074 36.3629 94.9824 35.7269L95.5651 33.6834C96.6691 34.3343 97.8804 34.6609 99.2003 34.6609C100.147 34.6609 100.885 34.4516 101.414 34.0353C101.941 33.619 102.204 33.0601 102.204 32.3632C102.204 31.7422 101.987 31.2189 101.552 30.7946C101.119 30.3702 100.396 29.9758 99.3866 29.6112C96.6384 28.6119 95.2655 27.1479 95.2655 25.2228C95.2655 23.9647 95.7467 22.9332 96.7104 22.1305C97.6705 21.3266 98.9514 20.9253 100.553 20.9253C101.981 20.9253 103.168 21.1679 104.115 21.6521L103.487 23.6508C102.602 23.1816 101.602 22.947 100.482 22.947C99.5978 22.947 98.9066 23.1597 98.4112 23.5829C97.9925 23.9613 97.7825 24.4224 97.7825 24.9687C97.7825 25.5736 98.022 26.0738 98.5032 26.4671C98.9219 26.8305 99.6827 27.2238 100.787 27.6482C102.137 28.1783 103.129 28.7982 103.767 29.5089C104.403 30.2173 104.72 31.1039 104.72 32.1619Z" fill="#828282"/>
<path d="M113.035 27.2581H110.263V32.616C110.263 33.9787 110.751 34.6595 111.73 34.6595C112.179 34.6595 112.552 34.6216 112.847 34.5457L112.917 36.4075C112.421 36.5881 111.769 36.6789 110.961 36.6789C109.968 36.6789 109.192 36.3834 108.631 35.7934C108.074 35.2023 107.793 34.211 107.793 32.8184V27.2558H106.142V25.4158H107.793V23.3953L110.263 22.6685V25.4158H113.035V27.2581Z" fill="#828282"/>
<path d="M125.54 30.8451C125.54 32.5414 125.042 33.934 124.049 35.0231C123.008 36.1443 121.625 36.7032 119.902 36.7032C118.241 36.7032 116.919 36.1662 115.933 35.0921C114.947 34.018 114.454 32.6621 114.454 31.028C114.454 29.3179 114.961 27.9172 115.979 26.8282C116.995 25.738 118.365 25.1929 120.089 25.1929C121.749 25.1929 123.086 25.7299 124.094 26.8052C125.059 27.8482 125.54 29.1949 125.54 30.8451ZM122.931 30.9245C122.931 29.9067 122.708 29.0339 122.256 28.3059C121.729 27.425 120.975 26.9857 119.999 26.9857C118.988 26.9857 118.22 27.4262 117.693 28.3059C117.241 29.035 117.018 29.9217 117.018 30.9705C117.018 31.9882 117.241 32.8611 117.693 33.5879C118.237 34.4688 118.996 34.9081 119.976 34.9081C120.937 34.9081 121.69 34.4596 122.234 33.5649C122.698 32.8231 122.931 31.9411 122.931 30.9245Z" fill="#828282"/>
<path d="M133.715 27.5747C133.466 27.5298 133.2 27.5068 132.922 27.5068C132.037 27.5068 131.353 27.8323 130.872 28.4843C130.453 29.0593 130.243 29.7861 130.243 30.6636V36.4538H127.73L127.754 28.8937C127.754 27.6218 127.722 26.4638 127.659 25.4196H129.849L129.941 27.531H130.011C130.276 26.8053 130.695 26.2211 131.268 25.783C131.829 25.3885 132.434 25.1919 133.086 25.1919C133.318 25.1919 133.528 25.208 133.715 25.2367V27.5747Z" fill="#828282"/>
<path d="M144.961 30.4137C144.961 30.853 144.932 31.2233 144.869 31.5258H137.325C137.354 32.616 137.719 33.4497 138.42 34.0247C139.055 34.5388 139.877 34.7964 140.887 34.7964C142.004 34.7964 143.023 34.6227 143.94 34.2743L144.334 35.9763C143.263 36.4317 141.998 36.6582 140.539 36.6582C138.784 36.6582 137.406 36.1545 136.404 35.1483C135.404 34.142 134.902 32.7908 134.902 31.0957C134.902 29.4316 135.368 28.0459 136.301 26.9407C137.278 25.7608 138.598 25.1709 140.258 25.1709C141.89 25.1709 143.125 25.7608 143.963 26.9407C144.627 27.878 144.961 29.0372 144.961 30.4137ZM142.563 29.7778C142.58 29.051 142.416 28.4231 142.075 27.8929C141.64 27.211 140.971 26.8706 140.071 26.8706C139.249 26.8706 138.58 27.2029 138.069 27.8699C137.651 28.4001 137.402 29.036 137.325 29.7766H142.563V29.7778Z" fill="#828282"/>
<path d="M56.5861 13.3847C56.5861 13.9686 56.3623 14.4454 55.9147 14.8151C55.4736 15.1849 54.9059 15.3698 54.2118 15.3698C53.6669 15.3698 53.1771 15.2433 52.7425 14.9903C52.3078 14.7308 51.9705 14.3772 51.7305 13.9296L52.4603 13.3944C52.9144 14.0821 53.495 14.4259 54.2021 14.4259C54.5913 14.4259 54.9124 14.3253 55.1654 14.1242C55.4184 13.9231 55.5449 13.6604 55.5449 13.3361C55.5449 13.0376 55.4346 12.8009 55.2141 12.6257C55 12.4506 54.6854 12.363 54.2702 12.363H53.482V11.4775H54.241C54.5524 11.4775 54.7957 11.3996 54.9708 11.2439C55.146 11.0818 55.2335 10.8677 55.2335 10.6017C55.2335 10.3163 55.1427 10.0925 54.9611 9.93028C54.7794 9.76162 54.5232 9.67728 54.1924 9.67728C53.589 9.67728 53.1058 9.96596 52.7425 10.5433L52.0127 10.0081C52.4733 9.15831 53.2095 8.7334 54.2215 8.7334C54.8443 8.7334 55.3406 8.89558 55.7104 9.21994C56.0866 9.5443 56.2747 9.97894 56.2747 10.5239C56.2747 11.0623 56.0412 11.4969 55.5741 11.8278C56.2488 12.1521 56.5861 12.6711 56.5861 13.3847Z" fill="#828282"/>
<path d="M61.5385 12.3727V15.2627H60.5849V14.7276C60.2281 15.1557 59.7188 15.3698 59.0571 15.3698C58.5576 15.3698 58.1554 15.2433 57.8505 14.9903C57.5456 14.7373 57.3932 14.4032 57.3932 13.988C57.3932 13.5728 57.5521 13.242 57.87 12.9955C58.1878 12.749 58.616 12.6257 59.1544 12.6257H60.507V12.3143C60.507 11.9835 60.4162 11.7305 60.2346 11.5553C60.0594 11.3802 59.8096 11.2926 59.4853 11.2926C58.9987 11.2926 58.5576 11.5294 58.1619 12.0029L57.5683 11.3996C58.0354 10.7185 58.7068 10.3779 59.5826 10.3779C60.1794 10.3779 60.653 10.5531 61.0033 10.9034C61.3601 11.2537 61.5385 11.7434 61.5385 12.3727ZM60.507 13.4528V13.3652H59.2809C58.7166 13.3652 58.4344 13.5599 58.4344 13.9491C58.4344 14.1437 58.509 14.2994 58.6582 14.4162C58.8139 14.5265 59.0182 14.5816 59.2712 14.5816C59.6215 14.5816 59.9134 14.4746 60.147 14.2605C60.387 14.0464 60.507 13.7772 60.507 13.4528Z" fill="#828282"/>
<path d="M62.9702 15.2627V10.4849H66.337V11.3704H64.0017V15.2627H62.9702Z" fill="#828282"/>
<path d="M72.2469 12.869C72.2469 13.5826 72.0231 14.1794 71.5755 14.6594C71.1343 15.133 70.5764 15.3698 69.9018 15.3698C69.2401 15.3698 68.7081 15.1395 68.3059 14.6789V17.0143H67.2842V10.4849H68.2378V11.1564C68.6011 10.6374 69.1557 10.3779 69.9018 10.3779C70.5764 10.3779 71.1343 10.6179 71.5755 11.098C72.0231 11.5715 72.2469 12.1619 72.2469 12.869ZM70.7775 13.9977C71.0565 13.7058 71.196 13.3328 71.196 12.8787C71.196 12.4246 71.0565 12.0516 70.7775 11.7597C70.4986 11.4613 70.1515 11.3121 69.7363 11.3121C69.3341 11.3121 68.9936 11.4483 68.7146 11.7207C68.4357 11.9932 68.2962 12.376 68.2962 12.869C68.2962 13.3685 68.4357 13.7545 68.7146 14.0269C68.9936 14.2994 69.3341 14.4356 69.7363 14.4356C70.1515 14.4356 70.4986 14.2897 70.7775 13.9977Z" fill="#828282"/>
<path d="M76.5418 10.4849H77.6316L75.306 15.8077C75.1049 16.2618 74.8649 16.5926 74.5859 16.8002C74.307 17.0143 73.9632 17.1213 73.5545 17.1213C73.282 17.1213 73.0193 17.0889 72.7663 17.024V16.158C73.0322 16.1839 73.2204 16.1969 73.3307 16.1969C73.8237 16.1969 74.1707 15.9634 74.3718 15.4963L74.5665 15.0487L72.6592 10.4849H73.7588L75.1308 13.9588L76.5418 10.4849Z" fill="#828282"/>
<path d="M82.0186 13.8712C82.0186 14.3448 81.8499 14.7146 81.5126 14.9806C81.1817 15.24 80.7244 15.3698 80.1405 15.3698C79.2972 15.3698 78.6485 15.0681 78.1944 14.4648L78.8171 13.8518C79.1545 14.2605 79.5794 14.4648 80.0919 14.4648C80.3773 14.4648 80.6011 14.4064 80.7633 14.2897C80.9255 14.1664 81.0066 14.0042 81.0066 13.8031C81.0066 13.6085 80.9287 13.4561 80.773 13.3458C80.6238 13.2355 80.413 13.1804 80.1405 13.1804H79.5859V12.363H80.1113C80.3319 12.363 80.5006 12.3143 80.6173 12.217C80.7341 12.1197 80.7925 11.9867 80.7925 11.8181C80.7925 11.6559 80.7276 11.5261 80.5979 11.4288C80.4746 11.3315 80.2995 11.2829 80.0724 11.2829C79.6118 11.2829 79.2226 11.4613 78.9047 11.8181L78.2819 11.205C78.7166 10.6536 79.3296 10.3779 80.1211 10.3779C80.6465 10.3779 81.0552 10.4979 81.3471 10.7379C81.6455 10.9715 81.7947 11.3023 81.7947 11.7305C81.7947 12.1716 81.6228 12.5089 81.279 12.7425C81.772 12.9825 82.0186 13.3588 82.0186 13.8712Z" fill="#828282"/>
<path d="M87.0446 10.3779H87.395V15.2627H86.3635V12.2949L83.5805 15.3698H83.2205V10.4849H84.2519V13.4723L87.0446 10.3779Z" fill="#828282"/>
<path d="M89.8472 15.2627V11.3704H88.3097V10.4849H92.4064V11.3704H90.8689V15.2627H89.8472Z" fill="#828282"/>
<path d="M97.6036 13.2096H94.0421C94.107 13.5988 94.2789 13.9069 94.5579 14.134C94.8433 14.3545 95.1904 14.4648 95.5991 14.4648C96.1051 14.4648 96.5689 14.2767 96.9906 13.9004L97.4771 14.6011C96.9387 15.1135 96.3029 15.3698 95.5699 15.3698C94.8433 15.3698 94.2335 15.133 93.7405 14.6594C93.2475 14.1794 93.0009 13.5858 93.0009 12.8787C92.988 12.1911 93.228 11.6007 93.721 11.1077C94.214 10.6082 94.7979 10.3649 95.4726 10.3779C96.1018 10.3779 96.6273 10.5887 97.0489 11.0104C97.4706 11.4256 97.6814 11.9446 97.6814 12.5673C97.6814 12.7555 97.6555 12.9695 97.6036 13.2096ZM94.0616 12.4116H96.6597C96.6532 12.0548 96.5332 11.7726 96.2997 11.5651C96.0661 11.351 95.7775 11.2439 95.4336 11.2439C95.0963 11.2439 94.8011 11.351 94.5481 11.5651C94.3016 11.7726 94.1394 12.0548 94.0616 12.4116Z" fill="#828282"/>
<path d="M105.676 13.8129C105.676 14.241 105.517 14.5913 105.199 14.8638C104.888 15.1298 104.479 15.2627 103.973 15.2627H101.589V10.4849H103.691C104.165 10.4849 104.551 10.6049 104.849 10.845C105.147 11.085 105.297 11.3996 105.297 11.7889C105.297 12.1716 105.151 12.47 104.859 12.6841C105.404 12.8917 105.676 13.2679 105.676 13.8129ZM102.591 11.3121V12.3922H103.652C104.106 12.3922 104.333 12.2105 104.333 11.8472C104.333 11.4904 104.106 11.3121 103.652 11.3121H102.591ZM104.703 13.7934C104.703 13.6053 104.628 13.4561 104.479 13.3458C104.337 13.2355 104.135 13.1804 103.876 13.1804H102.591V14.4454H103.876C104.129 14.4454 104.33 14.387 104.479 14.2702C104.628 14.147 104.703 13.988 104.703 13.7934Z" fill="#828282"/>
</svg>
