<svg width="25" height="26" viewBox="0 0 25 26" fill="none" xmlns="http://www.w3.org/2000/svg">
<g clip-path="url(#clip0_3916_5336)">
<path d="M23.1494 0.5H1.8457C0.825195 0.5 0 1.30566 0 2.30176V23.6934C0 24.6895 0.825195 25.5 1.8457 25.5H23.1494C24.1699 25.5 25 24.6895 25 23.6982V2.30176C25 1.30566 24.1699 0.5 23.1494 0.5ZM7.41699 21.8037H3.70605V9.87012H7.41699V21.8037ZM5.56152 8.24414C4.37012 8.24414 3.4082 7.28223 3.4082 6.0957C3.4082 4.90918 4.37012 3.94727 5.56152 3.94727C6.74805 3.94727 7.70996 4.90918 7.70996 6.0957C7.70996 7.27734 6.74805 8.24414 5.56152 8.24414ZM21.3037 21.8037H17.5977V16.0029C17.5977 14.6211 17.5732 12.8389 15.6689 12.8389C13.7402 12.8389 13.4473 14.3477 13.4473 15.9053V21.8037H9.74609V9.87012H13.3008V11.501H13.3496C13.8428 10.5635 15.0537 9.57227 16.8555 9.57227C20.6104 9.57227 21.3037 12.043 21.3037 15.2559V21.8037Z" fill="white"/>
</g>
<defs>
<clipPath id="clip0_3916_5336">
<rect width="25" height="25" fill="white" transform="translate(0 0.5)"/>
</clipPath>
</defs>
</svg>
