<svg width="162" height="31" viewBox="0 0 162 31" fill="none" xmlns="http://www.w3.org/2000/svg">
<path d="M6.8823 6.2257V24.8702C6.8823 25.3015 6.39763 25.5651 6.03412 25.3255L2.08408 22.9051C0.77547 22.0903 0 20.7003 0 19.1905V0.546088C0 0.114726 0.484669 -0.148885 0.84817 0.090761L4.79822 2.53515C6.10682 3.30202 6.8823 4.71593 6.8823 6.2257Z" fill="#F3CC50"/>
<path d="M17.06 6.2257V30.4539C17.06 30.8853 16.5754 31.1489 16.2119 30.9092L12.2618 28.4649C10.9774 27.674 10.1777 26.2601 10.1777 24.7503V0.546088C10.1777 0.114726 10.6624 -0.148885 11.0259 0.090761L14.976 2.53515C16.2846 3.30202 17.06 4.71593 17.06 6.2257Z" fill="#F3CC50"/>
<path d="M54.2344 26.2122H50.8902C50.5751 26.2122 50.3086 25.9486 50.3086 25.6371V17.7288C50.3086 16.8181 50.0905 16.0752 49.63 15.572C49.1696 15.0447 48.4911 14.7811 47.6187 14.7811C46.722 14.7811 46.0435 15.0687 45.5588 15.6199C45.0742 16.219 44.8561 16.914 44.8561 17.7288V25.6371C44.8561 25.9486 44.5895 26.2122 44.2744 26.2122H40.9302C40.6152 26.2122 40.3486 25.9486 40.3486 25.6371V11.5219C40.3486 11.2104 40.6152 10.9468 40.9302 10.9468H44.2502C44.5653 10.9468 44.8318 11.2104 44.8318 11.5219V12.9359H44.8561C45.4134 11.9773 46.2131 11.3302 47.2794 10.9947C48.1033 10.7551 48.7576 10.6353 49.2423 10.6353C51.084 10.6353 52.4653 11.2104 53.4104 12.3847C54.3556 13.5589 54.816 14.9968 54.816 16.7223V25.6371C54.816 25.9726 54.5494 26.2122 54.2344 26.2122Z" fill="#212129"/>
<path d="M143.704 26.2122H140.36C140.045 26.2122 139.778 25.9486 139.778 25.6371V17.7288C139.778 16.8181 139.56 16.0752 139.1 15.572C138.639 15.0447 137.961 14.7811 137.088 14.7811C136.192 14.7811 135.513 15.0687 135.028 15.6199C134.544 16.219 134.326 16.914 134.326 17.7288V25.6371C134.326 25.9486 134.059 26.2122 133.744 26.2122H130.376C130.061 26.2122 129.794 25.9486 129.794 25.6371V11.5219C129.794 11.2104 130.061 10.9468 130.376 10.9468H133.696C134.011 10.9468 134.277 11.2104 134.277 11.5219V12.9359H134.301C134.859 11.9773 135.658 11.3302 136.725 10.9947C137.549 10.7551 138.203 10.6353 138.688 10.6353C140.529 10.6353 141.911 11.2104 142.856 12.3847C143.801 13.5589 144.261 14.9968 144.261 16.7223V25.6371C144.261 25.9726 144.019 26.2122 143.704 26.2122Z" fill="#212129"/>
<path d="M65.8427 26.2122H62.0623C61.82 26.2122 61.6018 26.0684 61.5291 25.8528L55.7374 11.7376C55.592 11.3542 55.8585 10.9468 56.2705 10.9468H59.7843C60.0267 10.9468 60.2448 11.0906 60.3175 11.3302L63.9767 21.1557L67.6602 11.3302C67.7329 11.1145 67.951 10.9468 68.1933 10.9468H71.7072C72.1192 10.9468 72.41 11.3542 72.2403 11.7376L66.4001 25.8528C66.3031 26.0684 66.085 26.2122 65.8427 26.2122Z" fill="#212129"/>
<path d="M96.1583 26.5476C94.4135 26.5476 93.0079 26.1642 91.9417 25.3734C91.4328 25.0139 91.0208 24.6305 90.7058 24.1991C90.2453 23.6719 89.8818 22.7612 89.7122 22.0662C89.6153 21.7068 89.9061 21.3473 90.2696 21.3473H93.2503C93.4684 21.3473 93.6865 21.4671 93.7834 21.6828C93.8804 21.9225 94.0742 22.21 94.365 22.4497C94.8255 22.881 95.4071 23.0967 96.1098 23.0967C96.6672 23.0967 97.1034 22.9529 97.4184 22.6893C97.7335 22.4257 97.9031 22.1142 97.9031 21.7787C97.9031 21.1316 97.3942 20.6763 96.4006 20.4606L94.4377 20.0293C91.4812 19.3822 90.003 17.8964 90.003 15.5718C90.003 14.1819 90.5604 13.0076 91.6751 12.049C92.8141 11.0665 94.2196 10.5632 95.8917 10.5632C98.1454 10.5632 99.8418 11.2582 100.981 12.6482C101.465 13.1993 101.805 13.8943 101.999 14.6372C102.095 14.9967 101.805 15.3562 101.441 15.3562H98.4847C98.2666 15.3562 98.0727 15.2363 97.9758 15.0446C97.8789 14.8529 97.7092 14.6612 97.4427 14.4455C97.0549 14.134 96.546 13.9662 95.9402 13.9662C95.4313 13.9662 95.0436 14.086 94.7043 14.3257C94.3893 14.5653 94.2196 14.8769 94.2196 15.2363C94.2196 15.8115 94.6316 16.1709 95.4313 16.3387L97.5638 16.794C99.0663 17.0816 100.23 17.6328 101.053 18.4476C101.853 19.2624 102.265 20.2689 102.265 21.4192C102.265 22.7612 101.756 23.9115 100.763 24.8941C99.6721 26.0204 98.1212 26.5476 96.1583 26.5476Z" fill="#212129"/>
<path d="M123.421 9.1015L125.626 10.5394C126.523 11.1385 127.08 12.121 127.08 13.1995V25.6371C127.08 25.9486 126.814 26.2122 126.499 26.2122H123.106C122.791 26.2122 122.524 25.9486 122.524 25.6371V9.55683C122.549 9.12547 123.033 8.86186 123.421 9.1015Z" fill="#212129"/>
<path d="M108.566 14.8289H111.813C112.129 14.8289 112.395 14.5653 112.395 14.2538V11.5218C112.395 11.2103 112.129 10.9467 111.813 10.9467H108.566V9.41294C108.566 8.33454 108.057 7.30406 107.161 6.65702L105.416 5.36293C104.883 4.97949 104.156 5.33896 104.156 5.98601L104.083 19.4541C104.083 23.1926 107.136 26.2121 110.917 26.2121H111.813C112.129 26.2121 112.395 25.9485 112.395 25.637V22.905C112.395 22.5935 112.129 22.3299 111.813 22.3299C110.02 22.3299 108.566 20.892 108.566 19.1186V14.8289Z" fill="#212129"/>
<path d="M86.0773 12.696C84.6475 11.2821 82.8058 10.5872 80.5278 10.5872C79.0253 10.5872 77.6925 10.9466 76.4566 11.6416C75.1722 12.3845 74.1787 13.3431 73.4517 14.5653C72.7004 15.7875 72.3369 17.1295 72.3369 18.5913C72.3369 20.0771 72.7247 21.4671 73.4759 22.7372C74.2514 23.9834 75.2934 24.918 76.5535 25.565C77.8621 26.236 79.2677 26.5715 80.8186 26.5715C82.3696 26.5715 83.7993 26.1642 85.0837 25.3733C86.0046 24.7982 86.465 24.3189 86.7558 23.8875C86.9254 23.5999 86.8527 23.2405 86.5619 23.0727L84.0901 21.6348C83.8478 21.4911 83.557 21.539 83.3874 21.7307C83.1935 21.9224 82.9754 22.1141 82.6846 22.2579C82.0303 22.6414 81.376 22.8331 80.7217 22.8331C79.7523 22.8331 78.9042 22.5455 78.2014 21.9943C77.4744 21.4192 77.0624 20.7002 76.917 19.8135H82.7331H87.2405C87.7494 19.8135 88.1856 19.4061 88.2098 18.9029C88.2098 18.6872 88.2098 18.4715 88.2098 18.2319C88.2098 15.9552 87.507 14.11 86.0773 12.696ZM77.0382 16.8419C77.1109 16.2428 77.4744 15.6437 78.1045 15.0685C78.7103 14.4934 79.4615 14.2058 80.4066 14.2058C81.4972 14.2058 82.3211 14.5174 82.9027 15.1165C83.3874 15.6437 83.6539 16.2188 83.7024 16.8419H77.0382Z" fill="#212129"/>
<path d="M33.9997 2.03192L35.7203 3.20618C36.8351 3.97305 37.4894 5.21921 37.4894 6.56123V25.6371C37.4894 25.9486 37.2228 26.2122 36.9078 26.2122H33.5393C33.2243 26.2122 32.9577 25.9486 32.9577 25.6371V2.5831C32.9335 2.05588 33.5635 1.74434 33.9997 2.03192Z" fill="#212129"/>
<path d="M116.029 2.48717L117.75 3.66143C118.865 4.4283 119.519 5.67446 119.519 7.01648V25.637C119.519 25.9485 119.252 26.2121 118.937 26.2121H115.569C115.254 26.2121 114.987 25.9485 114.987 25.637V3.03835C114.987 2.48717 115.593 2.17563 116.029 2.48717Z" fill="#212129"/>
<path d="M148.066 2.48717L149.787 3.66143C150.902 4.4283 151.556 5.67446 151.556 7.01648V25.637C151.556 25.9485 151.289 26.2121 150.974 26.2121H147.582C147.267 26.2121 147 25.9485 147 25.637V3.03835C147 2.48717 147.606 2.17563 148.066 2.48717Z" fill="#212129"/>
<path d="M157.493 17.6329L161.879 12.0252C162.17 11.6418 161.904 11.0906 161.419 11.0906H157.711C157.542 11.0906 157.372 11.1625 157.251 11.3063L153.374 16.2669C152.283 17.6569 152.283 19.622 153.374 21.0119L157.251 25.9726C157.372 26.1164 157.542 26.1883 157.711 26.1883H161.419C161.904 26.1883 162.17 25.6371 161.879 25.2537L157.493 19.6699C157.033 19.0948 157.033 18.232 157.493 17.6329Z" fill="#212129"/>
<path d="M125.893 3.20605H123.736C123.082 3.20605 122.549 3.73328 122.549 4.38032V6.51317C122.549 7.16021 123.082 7.68744 123.736 7.68744H125.893C126.547 7.68744 127.08 7.16021 127.08 6.51317V4.38032C127.08 3.73328 126.547 3.20605 125.893 3.20605Z" fill="#212129"/>
</svg>
