<svg width="30" height="31" viewBox="0 0 30 31" fill="none" xmlns="http://www.w3.org/2000/svg">
<path fill-rule="evenodd" clip-rule="evenodd" d="M27.5 18.9741V22.7241C27.5 25.0811 27.5 26.2597 26.7678 26.9919C26.0355 27.7241 24.857 27.7241 22.5 27.7241C20.143 27.7241 18.9645 27.7241 18.2322 26.9919C17.5 26.2597 17.5 25.0811 17.5 22.7241V18.9741C17.5 16.6171 17.5 15.4386 18.2322 14.7064C18.9645 13.9741 20.143 13.9741 22.5 13.9741C24.857 13.9741 26.0355 13.9741 26.7678 14.7064C27.5 15.4386 27.5 16.6171 27.5 18.9741ZM20.3125 25.2241C20.3125 24.7064 20.7322 24.2866 21.25 24.2866H23.75C24.2678 24.2866 24.6875 24.7064 24.6875 25.2241C24.6875 25.7419 24.2678 26.1616 23.75 26.1616H21.25C20.7322 26.1616 20.3125 25.7419 20.3125 25.2241Z" fill="#212129"/>
<path d="M9.99967 21.4741C6.46413 21.4741 4.69637 21.4741 3.59802 20.3758C2.88639 19.6641 2.58822 18.6715 2.5 17.0991V16.4741H15.6452V17.0991C15.6245 17.6448 15.6246 18.2386 15.6247 18.8622V22.836C15.6245 23.918 15.6244 24.9101 15.7329 25.7171C15.8524 26.6058 16.1335 27.5452 16.9061 28.3177L16.9379 28.3491H9.99967C9.4819 28.3491 9.06217 27.9294 9.06217 27.4116C9.06217 26.8939 9.4819 26.4741 9.99967 26.4741H14.0622V21.4741H9.99967Z" fill="#212129"/>
<path d="M12.4997 2.72412H17.4997C22.2138 2.72412 24.5708 2.72412 26.0352 4.18859C27.4997 5.65305 27.4997 8.01008 27.4997 12.7241V12.897C26.8643 12.4801 26.1641 12.2976 25.4927 12.2074C24.6857 12.0989 23.6936 12.099 22.6116 12.0991H22.3878C21.3058 12.099 20.3137 12.0989 19.5067 12.2074C18.618 12.3269 17.6787 12.608 16.9061 13.3805C16.1717 14.1149 15.8814 15.0001 15.7519 15.8491V16.4741H2.49971L2.49976 15.8491C2.49161 15.2859 2.49971 14.6636 2.49971 13.9741V12.7241C2.49971 8.01008 2.49971 5.65305 3.96418 4.18859C5.42865 2.72412 7.78567 2.72412 12.4997 2.72412Z" fill="#F3CC50"/>
</svg>
