<svg width="30" height="31" viewBox="0 0 30 31" fill="none" xmlns="http://www.w3.org/2000/svg">
<path d="M7.77761 5.97531C8.33331 5.604 8.9168 5.28195 9.52138 5.0112C11.2362 4.24323 12.0936 3.85925 13.2343 4.59825C14.375 5.33726 14.375 6.54951 14.375 8.97401V10.849C14.375 13.206 14.375 14.3845 15.1072 15.1168C15.8395 15.849 17.018 15.849 19.375 15.849H21.25C23.6745 15.849 24.8868 15.849 25.6258 16.9897C26.3648 18.1304 25.9808 18.9878 25.2128 20.7026C24.9421 21.3072 24.62 21.8907 24.2487 22.4464C22.9439 24.3992 21.0892 25.9213 18.9194 26.8201C16.7495 27.7189 14.3618 27.954 12.0583 27.4958C9.75478 27.0376 7.63886 25.9066 5.97811 24.2459C4.31736 22.5851 3.18638 20.4692 2.72818 18.1657C2.26998 15.8622 2.50515 13.4745 3.40394 11.3046C4.30273 9.13477 5.82477 7.28015 7.77761 5.97531Z" fill="#F3CC50"/>
<path d="M26.8075 9.06014C25.7928 6.48427 23.7396 4.43111 21.1638 3.41635C19.2368 2.65724 17.5 4.40283 17.5 6.4739V11.4739C17.5 12.1643 18.0596 12.7239 18.75 12.7239H23.75C25.8211 12.7239 27.5667 10.9871 26.8075 9.06014Z" fill="#212129"/>
</svg>
