<svg width="30" height="31" viewBox="0 0 30 31" fill="none" xmlns="http://www.w3.org/2000/svg">
<path d="M5 13.3491V3.66162H25V13.3491C25 17.1793 25 19.0944 23.7447 20.2842C22.4895 21.4741 20.4692 21.4741 16.4286 21.4741H15.9375H14.0625H13.5714C9.53082 21.4741 7.51051 21.4741 6.25526 20.2842C5 19.0944 5 17.1793 5 13.3491Z" fill="#F3CC50"/>
<path d="M19.4129 11.512C19.779 11.1459 19.779 10.5523 19.4129 10.1862C19.0468 9.82009 18.4532 9.82009 18.0871 10.1862L16.471 11.8023C16.3834 11.8899 16.3124 11.9609 16.25 12.0213C16.1876 11.9609 16.1166 11.8899 16.029 11.8023L15.2663 11.0396C15.0851 10.8582 14.8891 10.6621 14.7014 10.5189C14.4815 10.3511 14.1668 10.1705 13.75 10.1705C13.3332 10.1705 13.0185 10.3511 12.7986 10.5189C12.6108 10.6622 12.4149 10.8583 12.2336 11.0396L10.5871 12.6862C10.221 13.0523 10.221 13.6459 10.5871 14.012C10.9532 14.3782 11.5468 14.3782 11.9129 14.012L13.529 12.3959C13.6166 12.3083 13.6876 12.2374 13.75 12.177C13.8124 12.2374 13.8834 12.3083 13.971 12.3959L14.7336 13.1586C14.9149 13.34 15.1108 13.5361 15.2986 13.6793C15.5185 13.8471 15.8332 14.0277 16.25 14.0277C16.6668 14.0277 16.9815 13.8471 17.2014 13.6793C17.3892 13.5361 17.5851 13.34 17.7664 13.1586L19.4129 11.512Z" fill="#212129"/>
<path d="M2.5 1.78662C1.98223 1.78662 1.5625 2.20635 1.5625 2.72412C1.5625 3.24189 1.98223 3.66162 2.5 3.66162H5H25H27.5C28.0178 3.66162 28.4375 3.24189 28.4375 2.72412C28.4375 2.20635 28.0178 1.78662 27.5 1.78662H2.5Z" fill="#212129"/>
<path d="M14.0627 21.4741V25.8947L12.0809 26.8856C11.6178 27.1171 11.4301 27.6803 11.6617 28.1434C11.8932 28.6065 12.4564 28.7942 12.9195 28.5626L15.0002 27.5223L17.0809 28.5626C17.544 28.7942 18.1072 28.6065 18.3387 28.1434C18.5703 27.6803 18.3826 27.1171 17.9195 26.8856L15.9377 25.8947V21.4741H14.0627Z" fill="#212129"/>
</svg>
