<svg width="22" height="23" viewBox="0 0 22 23" fill="none" xmlns="http://www.w3.org/2000/svg">
<path fill-rule="evenodd" clip-rule="evenodd" d="M20.1666 11.2242C20.1666 16.2868 16.0625 20.3908 10.9999 20.3908C5.93731 20.3908 1.83325 16.2868 1.83325 11.2242C1.83325 6.16155 5.93731 2.0575 10.9999 2.0575C16.0625 2.0575 20.1666 6.16155 20.1666 11.2242ZM12.4286 7.2471C11.5376 6.05914 9.67908 6.36073 9.2095 7.76948L8.90214 8.69157C8.78207 9.05178 8.39272 9.24645 8.03251 9.12638C7.6723 9.00631 7.47763 8.61697 7.5977 8.25676L7.90506 7.33467C8.72539 4.87368 11.9721 4.34681 13.5286 6.4221C14.4403 7.63775 14.3767 9.32567 13.3761 10.4693L12.5335 11.4322C11.988 12.0556 11.6874 12.8557 11.6874 13.6839V13.9742C11.6874 14.3539 11.3796 14.6617 10.9999 14.6617C10.6202 14.6617 10.3124 14.3539 10.3124 13.9742V13.6839C10.3124 12.5226 10.7339 11.4008 11.4987 10.5268L12.3413 9.56382C12.9141 8.90919 12.9505 7.94297 12.4286 7.2471ZM10.9999 17.6408C11.5062 17.6408 11.9166 17.2304 11.9166 16.7242C11.9166 16.2179 11.5062 15.8075 10.9999 15.8075C10.4937 15.8075 10.0833 16.2179 10.0833 16.7242C10.0833 17.2304 10.4937 17.6408 10.9999 17.6408Z" fill="#2D264B"/>
</svg>
