<svg width="22" height="23" viewBox="0 0 22 23" fill="none" xmlns="http://www.w3.org/2000/svg">
<path d="M8.24992 8.47416L8.55728 7.55207C9.20224 5.6172 11.7549 5.20297 12.9786 6.83459C13.6954 7.79036 13.6454 9.11743 12.8587 10.0165L12.0161 10.9795C11.361 11.7282 10.9999 12.6892 10.9999 13.6839V13.9742M20.1666 11.2242C20.1666 16.2868 16.0625 20.3908 10.9999 20.3908C5.93731 20.3908 1.83325 16.2868 1.83325 11.2242C1.83325 6.16155 5.93731 2.0575 10.9999 2.0575C16.0625 2.0575 20.1666 6.16155 20.1666 11.2242Z" stroke="#CBD8E6" stroke-width="1.5" stroke-linecap="round"/>
<path d="M11.9166 16.7242C11.9166 17.2304 11.5062 17.6408 10.9999 17.6408C10.4937 17.6408 10.0833 17.2304 10.0833 16.7242C10.0833 16.2179 10.4937 15.8075 10.9999 15.8075C11.5062 15.8075 11.9166 16.2179 11.9166 16.7242Z" fill="#CBD8E6"/>
</svg>
