<svg width="20" height="20" viewBox="0 0 20 20" fill="none" xmlns="http://www.w3.org/2000/svg">
<path d="M8.51762 16.6666H10.715C12.5713 16.6666 13.4994 16.6666 14.2741 16.2487C15.0489 15.8309 15.5408 15.065 16.5246 13.5332L17.0919 12.6499C17.9196 11.3612 18.3334 10.7169 18.3334 9.99992C18.3334 9.28293 17.9196 8.6386 17.0919 7.34993L17.0919 7.34992L16.5246 6.46659L16.5246 6.46658C15.5408 4.93484 15.0489 4.16897 14.2741 3.75111C13.4994 3.33325 12.5713 3.33325 10.715 3.33325H8.51762C5.28809 3.33325 3.67332 3.33325 2.67003 4.30956C1.66675 5.28587 1.66675 6.85722 1.66675 9.99992C1.66675 13.1426 1.66675 14.714 2.67003 15.6903C3.67332 16.6666 5.28809 16.6666 8.51762 16.6666Z" fill="#F3CC50"/>
<path d="M5.83325 5.87891C6.17843 5.87891 6.45825 6.14227 6.45825 6.46714V13.5298C6.45825 13.8547 6.17843 14.118 5.83325 14.118C5.48807 14.118 5.20825 13.8547 5.20825 13.5298V6.46714C5.20825 6.14227 5.48807 5.87891 5.83325 5.87891Z" fill="#212129"/>
</svg>
