<svg width="30" height="31" viewBox="0 0 30 31" fill="none" xmlns="http://www.w3.org/2000/svg">
<path d="M3.75 15.2133C3.75 22.2609 9.0487 25.681 12.3732 27.1332C13.275 27.5272 13.7259 27.7241 15 27.7241V10.2241L3.75 13.9741V15.2133Z" fill="#212129"/>
<path d="M17.6268 27.1332C20.9513 25.681 26.25 22.2609 26.25 15.2133V13.9741L15 10.2241V27.7241C16.2741 27.7241 16.725 27.5272 17.6268 27.1332Z" fill="#F3CC50"/>
<path d="M11.0472 3.73002L10.3311 3.97511C6.57291 5.26157 4.69379 5.90479 4.22189 6.57713C3.75 7.24947 3.75 9.24796 3.75 13.2449V13.9741L15 10.2241V2.72412C13.9858 2.72412 13.0062 3.05942 11.0472 3.73002Z" fill="#F3CC50"/>
<path d="M19.6689 3.97511L18.9528 3.73002C16.9938 3.05942 16.0142 2.72412 15 2.72412V10.2241L26.25 13.9741V13.2449C26.25 9.24796 26.25 7.24947 25.7781 6.57713C25.3062 5.90479 23.4271 5.26157 19.6689 3.97511Z" fill="#212129"/>
</svg>
