<svg width="145" height="80" viewBox="0 0 145 80" fill="none" xmlns="http://www.w3.org/2000/svg">
<g clip-path="url(#clip0_3_946)">
<path fill-rule="evenodd" clip-rule="evenodd" d="M33.5304 11.3937L30.577 8.42777V8.40798L34.3112 10.6095L35.1844 9.73262L33.0648 5.95783H33.0845L36.0132 8.90024L36.8618 8.04683L33.3604 4.53053L31.8517 6.04564L33.6708 8.98187L33.6609 8.99176L30.7174 7.18476L29.1792 8.72955L32.6818 12.2458L33.5304 11.3937Z" fill="black"/>
<path d="M41.5614 5.93676L41.1858 5.04871L38.9763 5.99118L38.5662 5.02027L40.5996 4.15449L40.2239 3.26645L38.1906 4.13346L37.7916 3.18853L40.001 2.24607L39.6266 1.35926L36.1536 2.83851L38.0884 7.41724L41.5614 5.93676Z" fill="black"/>
<path d="M43.8447 5.44074L43.4075 1.26893L43.4198 1.25408L44.9433 5.32448L46.1712 5.19585L46.8892 0.922614L46.9039 0.934982L47.3375 5.07216L48.5309 4.94601L48.0136 -5.8651e-05L45.8916 0.223808L45.4655 3.656L45.4507 3.65724L44.2955 0.392016L42.1328 0.620829L42.6513 5.56689L43.8447 5.44074Z" fill="black"/>
<path fill-rule="evenodd" clip-rule="evenodd" d="M52.1579 5.62135C52.2047 5.63371 53.9646 6.17297 54.3131 4.77041C54.4843 4.0815 54.0668 3.54348 53.4486 3.29735L53.4522 3.28374C54.0163 3.31838 54.605 3.08214 54.7528 2.48723C54.9634 1.63877 54.3057 1.04138 53.403 0.807619L51.0999 0.231258L49.9016 5.05612L52.1579 5.62135ZM51.4657 4.45378L51.7243 3.41114L52.5963 3.63006C52.8906 3.72529 53.0138 4.02584 52.9473 4.29299C52.8722 4.59354 52.5766 4.73207 52.2441 4.6492L51.4657 4.45378ZM52.1985 1.50024L52.9239 1.68205C53.2367 1.75998 53.4215 2.01229 53.3537 2.28686C53.2626 2.6542 52.9941 2.73583 52.6357 2.64554L51.9547 2.48228L52.1985 1.50024Z" fill="black"/>
<path d="M58.2272 8.44873L58.7506 7.63985L56.7369 6.32757L57.3084 5.44324L59.1607 6.65039L59.6841 5.84274L57.8306 4.63436L58.3885 3.77353L60.4009 5.0858L60.9243 4.27815L57.7604 2.21389L55.0632 6.3857L58.2272 8.44873Z" fill="black"/>
<path fill-rule="evenodd" clip-rule="evenodd" d="M62.193 8.4266L63.0772 7.70677L63.4147 8.12481C63.6906 8.46741 63.911 8.83846 63.5157 9.1588C63.1216 9.48037 62.8063 9.18725 62.5292 8.84465L62.193 8.4266ZM61.4466 9.03388L61.7705 9.43461C62.2114 9.98129 62.0366 10.1582 61.6067 10.5787C61.3567 10.826 61.1055 11.0845 60.8863 11.3591L61.8235 12.5217C62.0587 12.1791 62.3149 11.8724 62.6129 11.5855C63.1536 11.0314 63.3974 10.6207 62.8605 9.92316L62.8814 9.9046C63.3814 10.3944 64.044 10.591 64.6192 10.1223C65.4357 9.45935 64.9295 8.47112 64.4024 7.81808L62.9602 6.02963L59.1128 9.1588L59.9749 10.2299L61.4466 9.03388Z" fill="black"/>
<path d="M42.1563 12.4622C41.8472 12.2767 41.4777 12.2148 41.107 12.2148C40.2424 12.5859 39.4407 12.8963 38.6992 13.3923C36.6006 15.0657 35.7989 17.7929 35.4282 20.3346C35.305 21.637 35.8605 22.8144 36.1068 23.9919C36.4159 25.9757 37.4652 27.5255 38.6992 29.0752L39.07 29.1989C39.1315 29.0752 39.0084 28.8897 39.0084 28.7029C37.8359 26.4099 36.4159 23.9919 36.7866 21.0791C37.1573 20.4595 37.9591 19.9017 37.7743 19.0953H37.6512C37.2805 19.7149 36.9713 20.4595 36.4159 20.7687C36.9713 19.9017 37.0329 18.723 37.2189 17.6692C37.4036 17.36 37.7128 17.7929 37.8359 17.8547L38.0206 17.6074C38.1438 17.5455 38.3298 17.4837 38.3914 17.6074C38.5145 18.4126 38.5145 19.219 38.3298 19.9017C38.5761 19.7149 38.6992 19.4045 38.8236 19.1571C39.1315 18.4756 38.7621 17.7929 38.8236 17.1114C39.2559 16.7391 39.3791 16.1813 39.687 15.7472C40.7979 15.3143 40.1193 16.9259 40.6747 17.2351C40.9222 16.864 40.9838 16.4299 41.2301 16.0576C40.8607 15.7472 40.5515 15.2512 40.1808 15.0039C39.5022 14.5079 39.3175 15.6235 38.7621 15.6854C37.9591 15.8721 38.0206 16.7391 37.5884 17.1733C37.2805 16.9259 37.342 16.4918 37.4036 16.1195C37.4652 15.5617 38.0822 15.4998 38.4529 15.1894C39.07 14.942 39.1931 14.2593 39.4407 13.7646C39.687 13.7015 39.9961 13.7646 40.1193 14.0119C41.0454 13.8882 40.7979 15.0039 41.4777 15.3143C42.2794 15.3761 42.527 16.0576 43.2056 16.3062C43.6994 15.6854 42.6501 15.438 42.5886 14.8183C42.0947 14.0738 42.8349 13.0818 42.1563 12.4622ZM41.7856 16.1813C41.4777 16.3681 41.2929 16.864 41.107 17.2351C41.1686 17.36 41.2929 17.2969 41.4161 17.2969C41.91 17.1114 41.8472 16.5536 41.7856 16.1813ZM43.0824 16.6773C41.91 16.3681 42.2179 17.8547 41.724 18.4126C41.5393 18.5375 41.3545 18.723 41.1686 18.5375C41.0454 18.2889 41.1686 18.0415 41.107 17.9178C41.0454 18.227 40.7363 18.227 40.5515 18.3519C40.6131 18.5993 40.9222 18.4756 41.0454 18.5993C41.6008 19.7149 40.7979 20.8305 40.2424 21.7606L40.1808 22.5671C40.5515 23.9919 41.4161 25.1706 41.8472 26.4717C41.7856 25.2943 40.9838 24.426 40.9838 23.2485C40.7363 22.008 41.9715 21.7606 42.2794 20.8305C42.4038 20.3964 42.1563 19.6531 42.7733 19.5912C42.8977 19.2808 42.8349 18.7848 42.8349 18.5375C42.527 18.9098 41.7856 19.1571 42.0947 19.8386C41.91 20.5832 41.7856 21.8225 40.7979 21.9462C40.5515 21.8843 40.6131 21.637 40.6131 21.4514C41.1686 21.0791 41.5393 20.2727 41.4161 19.5294C41.4777 18.5993 42.6501 18.1652 42.527 17.1114C42.5886 16.801 42.9593 16.801 43.0824 16.6773ZM39.8114 19.0953C39.8729 18.723 39.9345 18.227 39.5638 18.0415C39.7486 18.8467 39.2559 19.4045 39.1315 20.0254C39.5022 19.9017 39.7486 19.4676 39.8114 19.0953ZM40.49 19.7768C40.5515 19.7149 40.6131 19.4676 40.4284 19.4676C40.1193 19.9623 39.8729 20.4595 39.4407 20.8305C39.1315 21.2647 39.2559 21.9462 39.07 22.4421C39.1931 22.5671 39.1377 22.7563 39.3175 22.9369C39.5638 23.1855 39.7486 23.6208 39.9345 23.9919C40.0577 25.1075 40.8607 25.9139 40.9838 27.0295C41.0454 27.4636 40.9222 27.9596 41.2301 28.3319C41.3545 27.9596 41.4777 27.4636 41.3545 27.0295C41.2301 26.5954 41.107 26.0994 40.9222 25.6653C40.7979 24.922 40.4961 24.0018 39.9665 23.3549C39.5515 22.8453 39.687 22.504 39.5638 21.9462C39.7486 21.2028 40.2424 20.5213 40.49 19.7768ZM38.2066 23.3104C37.9591 22.567 38.3914 21.512 37.6512 21.0173C37.342 21.3884 37.4036 22.0711 37.4036 22.5671C37.4036 24.426 38.3914 25.9139 39.0084 27.4636C39.2559 27.8359 39.3175 28.4556 39.687 28.7648C39.7732 28.6695 39.9961 27.7729 39.5638 27.34C39.07 25.9757 38.2066 24.7983 38.2066 23.3104ZM38.8852 22.6289C38.8433 22.2393 38.9468 21.9462 38.6377 21.8225C38.4529 22.567 38.4665 23.4675 38.6992 24.2405C38.9616 25.105 39.687 26.7809 40.3052 28.0215C40.49 28.5174 40.4284 29.1989 40.3668 29.6949C40.49 29.4475 40.6747 29.1989 40.7363 28.9515C40.5515 27.9596 40.49 26.7809 39.9961 25.8521C39.6254 24.7364 39.0379 24.0401 38.8852 22.6289ZM44.0702 22.6289C43.8842 22.3803 43.6995 22.0711 43.4531 21.8843C42.8977 22.8144 42.527 23.93 42.8977 24.9838C43.4531 24.8601 43.2056 24.1774 43.4531 23.8682C43.5147 23.3104 44.1933 23.1867 44.0702 22.6289ZM42.4654 24.9838C41.6624 24.1156 42.2179 22.9381 42.4654 22.0711L41.6008 22.7526C41.3545 23.6814 41.6624 24.6746 42.341 25.2943C42.527 25.2943 42.4654 25.1075 42.4654 24.9838ZM45.5517 25.3561C45.3658 24.6115 45.4889 23.5577 44.6256 23.3722C44.3165 23.7445 43.8657 23.7655 43.9889 24.2615C44.1305 24.3901 44.2549 25.1706 44.6872 24.9838C45.0579 25.0456 45.1195 25.4179 45.2426 25.6653C45.4286 25.7902 45.5517 25.5416 45.5517 25.3561ZM44.378 28.3319C43.761 28.3937 43.8226 27.711 43.5763 27.34C43.3916 27.8359 43.5147 28.3319 43.5763 28.8266C43.761 28.8897 43.8842 28.6411 44.1317 28.6411C44.564 28.7648 44.2549 29.3226 44.3165 29.5712C44.4396 29.5094 44.5024 29.3844 44.564 29.2608C45.4286 28.8897 44.9963 30.0672 45.4286 30.3764C45.7981 30.3145 45.6133 29.8186 45.9212 29.633C46.0456 29.5094 46.2919 29.5712 46.2919 29.3844C46.2303 29.0134 45.9828 28.5174 45.5517 28.8266C45.0579 28.8266 44.9335 28.207 44.378 28.3319ZM43.9458 30.8723C43.761 30.5631 43.5763 30.0672 43.144 29.8816C42.9593 30.0672 42.7117 30.1908 42.6501 30.5013C42.8349 30.625 42.8349 30.9354 43.144 30.9973C43.3916 30.9973 43.8226 31.2446 43.9458 30.8723ZM45.9483 27.6467C46.0271 27.528 45.6946 26.4346 45.8227 26.306C45.8781 26.4123 45.9101 26.4544 45.9138 26.4519C45.9212 26.4482 45.8547 26.306 45.8227 26.306C45.6244 25.9238 45.1429 26.6622 44.6428 26.348C44.5283 26.1192 44.1995 26.3196 43.9827 26.3616C43.9187 26.557 43.9901 26.729 44.0775 26.8984L44.1404 27.0171L44.4864 26.8205C44.7278 26.6028 44.851 26.8205 44.851 27.0171C44.851 27.4105 44.7266 27.4389 44.9692 27.6863C45.0037 27.6281 45.4237 27.2645 45.4778 27.1359C45.4778 27.1359 45.7857 27.8928 45.9483 27.6467ZM58.3281 15.8721L57.2172 14.2593C56.2911 13.0818 55.2418 12.0268 53.9462 11.5321C53.4696 11.349 52.8562 10.9669 52.2786 11.5321C51.1714 12.6168 52.0323 13.8264 51.6616 14.942C51.2305 15.6854 50.4891 16.3062 49.563 16.2432C49.1319 15.9958 48.8228 15.5617 48.2674 15.6854C47.8967 16.1195 47.2181 15.6235 46.9705 16.2432C46.7242 16.3681 46.4767 16.3062 46.2919 16.1195C45.9828 15.8103 45.7981 16.3062 45.6133 16.4299C45.1195 16.864 44.5024 16.1195 44.0086 16.6154C43.0824 17.7311 43.5763 19.5912 43.8842 20.9542C44.1933 22.0711 45.2426 22.7526 46.1072 23.4341C46.2919 23.7445 45.8596 23.93 45.9828 24.3642C46.1688 25.1075 46.4151 26.0376 47.3412 26.0994C47.1565 25.1075 46.7858 23.6814 47.7119 22.9381C47.8967 22.8763 48.0198 22.8144 48.1442 22.9999C48.2058 23.5577 47.6503 23.9919 47.7735 24.6115C47.8967 25.2943 47.7735 26.2862 48.6997 26.348C48.8844 26.0994 48.8228 25.7902 49.0691 25.6035C49.3167 25.5416 49.4398 25.6653 49.563 25.8521C49.8105 26.0994 49.8721 25.7271 49.9953 25.5416C50.1197 25.4798 50.366 25.4179 50.4891 25.6035C50.6751 25.7902 51.0446 25.7902 51.169 25.4798C50.9214 24.3023 50.6123 23.1236 49.3167 22.7526C48.946 22.6289 49.1935 22.1329 49.3783 22.0711C48.946 21.5751 48.6997 22.4421 48.2674 22.0711C48.0814 21.637 48.7612 21.637 48.8228 21.2647C49.2551 21.0791 49.6861 21.637 49.9337 21.0173C50.1197 20.9542 50.1812 21.141 50.1812 21.2647C50.1197 21.637 49.9953 21.9462 49.6258 22.1329C49.8721 22.4421 50.3044 22.3803 50.4891 22.7526C51.1062 22.9381 51.2305 23.7445 51.6616 24.1774C51.6 24.3642 51.6616 24.6115 51.8476 24.6115L52.1555 23.8682C52.5262 23.4341 52.4646 22.8144 52.9584 22.5671C53.0816 22.504 53.1432 22.7526 53.2048 22.8144L52.5262 24.4878C52.5262 24.6115 52.403 24.8601 52.5877 24.922C52.7109 24.4878 53.1432 24.1156 53.02 23.6208C53.2663 23.3104 53.5755 22.9381 53.5139 22.4421C52.8969 22.2566 52.4646 21.7606 52.217 21.141C52.0939 20.7069 52.1555 20.2109 51.9091 19.8386C51.4769 19.9017 51.0446 19.7768 50.7367 19.5294C50.4276 19.0953 50.1197 18.4126 49.4398 18.3519C49.3783 18.2889 49.3167 18.1033 49.5014 18.0415C50.1197 17.9178 50.8598 17.8547 51.4153 17.4219C52.403 16.5536 52.5262 15.1894 52.403 13.8882C52.3414 13.0818 53.2663 13.5778 53.4523 13.02C53.6986 12.8963 53.8846 12.8963 54.0693 13.1437C54.44 14.3224 56.2295 13.7015 56.7234 14.8802C56.785 15.2512 56.2295 15.0657 56.1064 15.1275C56.2295 15.5617 56.785 15.8103 56.7234 16.3681C56.6002 16.5536 56.4155 16.7391 56.1679 16.6773C55.4893 16.1813 55.3034 15.3761 54.9339 14.6934H54.7479C54.5016 15.4998 55.3662 15.934 55.6741 16.6154L55.5509 16.864C55.3034 16.9877 55.0571 16.801 54.8723 16.6773C54.5016 15.934 53.637 15.3143 53.9462 14.3842C53.8846 14.1975 53.7602 14.0738 53.5755 14.0738C53.2663 14.0738 53.1432 14.3224 53.2048 14.6316C53.823 15.5617 54.0078 16.7391 55.0571 17.2969C55.3662 17.5455 55.2418 18.0415 55.1186 18.2889C54.9955 18.9704 55.3662 19.5294 55.7972 19.9017C55.9216 19.9017 56.1064 19.9623 56.0448 19.7149C55.6741 19.0953 55.4893 18.4756 55.5509 17.7311C55.5509 17.4219 55.9216 17.1114 56.1064 17.2351C55.9832 17.9797 56.1679 18.6612 56.3527 19.3426C56.3527 19.4676 56.5386 19.5912 56.6618 19.4676C56.5386 18.9098 56.2911 18.2889 56.5386 17.7311C56.7234 17.6074 56.9081 17.36 57.1557 17.4219C56.9081 17.9178 56.9081 18.5993 56.9081 19.219C56.9709 19.5912 57.2788 19.9017 57.6495 19.9623C58.3281 19.219 57.2172 18.4126 57.6495 17.4219C57.8343 17.2351 57.7111 16.864 58.0818 16.7391C58.2665 16.7391 58.3281 16.9259 58.3281 17.1114C57.9587 17.6692 57.9587 18.6612 58.3281 19.219C58.6988 19.4676 58.7604 20.3346 59.2543 19.9623C59.5006 18.5375 59.0067 17.0496 58.3281 15.8721ZM54.3785 17.8547V17.6074L53.2048 16.4299C53.2663 17.1733 53.8846 17.6074 54.3785 17.8547ZM53.5755 18.3519L52.8969 17.7311C52.8969 17.6074 52.7109 17.2969 52.5877 17.4837C52.403 17.9178 52.9584 18.1652 53.2048 18.4756C53.3907 18.5993 53.5139 18.4756 53.5755 18.3519ZM52.8353 18.9704C52.3414 18.7848 52.2786 18.227 51.8476 18.0415C51.786 18.227 51.9091 18.4756 52.0939 18.5993C52.3414 18.8467 52.5877 19.3426 52.8969 19.3426C53.02 19.219 52.9584 19.0334 52.8353 18.9704ZM52.0323 19.4045C51.6616 19.0953 51.4153 18.4126 50.9214 18.5993C50.983 19.1571 51.6 19.219 51.8476 19.5294C51.9707 19.5912 52.0939 19.4676 52.0323 19.4045ZM55.4893 20.7069C54.9955 20.2109 54.5632 19.4676 54.3785 18.723C54.1925 18.9704 54.2541 19.4676 54.44 19.7768C54.5016 20.3346 55.0571 20.4595 55.4893 20.7069ZM54.1925 20.7687L53.8846 20.2727C53.823 20.5213 54.0078 20.8305 54.1925 20.7687ZM55.86 24.8601C56.4771 23.4341 56.5386 21.8225 56.8465 20.2727L56.4771 20.7069C55.5509 21.8843 55.6741 23.5577 55.1802 24.9838C54.9955 26.0994 54.1925 27.0914 53.4523 28.0215C53.3907 28.207 53.1432 28.6411 53.5139 28.7029C54.44 27.5255 54.9955 26.1613 55.86 24.8601ZM53.8846 21.637C53.4523 21.2647 53.2663 20.7069 52.9584 20.3346L52.8969 20.5832C52.8969 21.0791 53.1432 21.3884 53.5139 21.637C53.637 21.6988 53.823 21.7606 53.8846 21.637ZM59.2543 21.2647C59.1311 20.8305 58.6988 20.645 58.3897 20.5213C58.3897 21.9462 58.0818 23.1867 57.5879 24.426C57.0941 26.2231 55.9216 27.9596 54.8723 29.5712L54.8095 29.8816C55.4278 29.6949 55.6741 29.1371 56.2295 28.8266C57.6495 26.5336 59.0695 24.0537 59.2543 21.2647ZM57.6495 22.2566C57.7727 21.8843 57.8958 21.2028 57.5264 21.0173C56.9709 21.8225 56.785 22.8763 56.7234 23.93L56.2295 25.2312C55.6125 25.8521 55.4893 26.7203 54.9339 27.4018C54.7479 27.711 54.44 27.7729 54.3785 28.0833C54.2541 28.4556 53.8846 28.8266 53.9462 29.1371C54.1309 29.0752 54.0078 29.2608 54.1309 29.3226C54.5016 29.2608 54.5016 28.8266 54.8095 28.7648C55.9216 26.6572 57.3404 24.6746 57.6495 22.2566ZM55.1802 21.637C54.6248 21.8843 54.5632 22.6907 54.3156 23.2485C54.2541 24.0537 54.5016 25.1075 53.8846 25.6653V23.3722L53.7602 23.3104C53.3907 23.8063 53.4523 24.4878 52.9584 24.9838C52.4646 25.7271 52.7109 26.844 53.1432 27.5873C53.5755 27.34 53.8846 26.7809 54.0078 26.348C54.5632 25.7902 54.6248 25.1075 54.8095 24.426C55.1802 23.6208 55.2418 22.6289 55.1802 21.637ZM51.9707 27.0914C51.8476 26.7809 51.5384 25.9757 51.1062 26.5954C50.3044 26.9058 49.3783 26.9677 48.5753 27.2781C48.5753 27.7729 48.8228 28.1451 49.1935 28.4556C49.1935 28.6411 49.2551 28.7029 49.4398 28.7029C49.8721 28.7029 49.749 28.1451 49.8721 27.8978C50.3044 27.4018 50.3044 28.4556 50.8598 28.2688C50.983 27.8978 50.7367 27.34 51.2305 27.1532C51.4769 27.2781 51.5384 27.6492 51.7232 27.7728C51.9707 27.6492 51.9091 27.34 51.9707 27.0914ZM52.8353 29.1371C52.6493 28.8897 52.6493 28.5174 52.3414 28.5174C51.9707 29.1371 51.2305 28.4556 50.9214 29.0752C50.5507 29.5094 49.563 29.5094 49.6861 30.129H50.9214C51.169 30.2527 51.4769 30.3145 51.6 30.0053C51.8476 29.633 52.0939 30.129 52.403 30.0053C52.4646 29.6949 52.7109 29.4475 52.8353 29.1371ZM52.0323 31.1209C51.4769 31.3065 51.169 30.7487 50.6751 30.6868C50.5507 30.8105 50.5507 30.9973 50.5507 31.1209C50.4891 31.4314 49.1553 31.8964 49.2785 32.145C49.9571 31.9583 51.8476 31.7406 52.2786 31.2446L52.0323 31.1209ZM45.0234 11.6137C45.0234 11.6137 46.0468 11.4443 46.2303 11.9031C47.0506 13.9649 44.378 14.1356 44.4396 15.7472C44.9335 15.8103 45.6133 15.9958 45.9212 15.438L46.7858 15.7472C47.2181 15.6854 47.2796 14.8802 47.8351 15.1894C48.0814 15.0039 48.3905 14.942 48.6381 15.0657C48.946 14.942 48.8844 14.5079 48.7612 14.2593C48.3289 14.5079 47.7119 14.5697 47.1565 14.6934C47.0321 14.6316 46.7242 14.3842 46.9089 14.1975C47.5888 14.4461 47.5888 13.3923 48.3289 13.7646C48.6997 13.5778 48.8228 13.0818 48.7612 12.6477C48.6516 11.5964 48.4595 10.7096 47.2427 10.4462C47.1392 10.4239 47.0456 10.4189 46.8769 10.508C46.8769 10.534 46.8375 10.623 46.9631 10.6564C47.1269 10.7009 47.159 10.8902 47.0198 10.9916C46.7772 11.1697 46.3683 11.0435 46.2537 10.9112C46.1946 10.8432 46.1109 10.7987 45.9422 10.8024C45.6453 10.8395 45.1355 10.9458 45.0234 11.6137ZM41.5048 31.4586C41.4567 31.2694 41.6267 30.9824 42.2745 30.249C43.0516 29.3684 43.1415 27.8075 43.2881 26.9232C43.4679 25.8372 44.1453 25.084 44.1453 25.084C44.1453 25.084 42.995 25.4526 42.4494 27.0963C42.0393 28.3307 41.676 30.7499 40.6082 30.8464C40.5232 30.8538 40.4592 30.8699 40.4111 30.8934C39.7904 30.74 39.3101 30.5285 38.8766 30.0659C38.8766 30.0659 38.5318 29.7035 38.416 29.6306C36.2459 27.1421 34.8112 23.7556 34.6868 20.269C35.2434 16.7342 36.6721 12.8468 40.3508 11.6582C41.1082 11.5197 41.8028 11.2241 42.559 11.6026C43.4642 12.2532 43.3349 13.6434 43.3903 14.6143C43.4162 14.66 43.6293 14.806 43.6293 14.806C44.3571 14.1962 45.133 13.5308 45.6737 12.6316C45.6601 12.4313 45.404 12.2099 45.1736 12.1517C44.9901 12.1517 44.7956 12.2457 44.6071 12.2618C44.3842 12.2791 44.1933 12.1987 44.1933 11.8462C44.128 11.2563 44.713 10.4907 44.9433 10.4363C46.0099 10.3014 46.7094 9.34538 47.8622 9.98853C48.4891 10.2408 49.058 10.6836 49.313 11.3243C49.749 12.5735 49.5519 13.892 49.6861 15.1795C49.7379 15.3836 49.882 15.4367 50.1197 15.4367C50.9768 15.1758 51.0138 14.4386 50.967 13.5815C50.9251 12.8196 50.7761 11.8005 51.4375 11.2365C52.1111 10.6824 52.8168 10.1407 54.0373 10.6094C55.8563 11.3082 57.2049 13.0435 58.317 14.4708C59.1853 15.7163 59.8072 17.031 60.1188 18.5276C60.3664 21.3302 59.7469 23.8237 58.6939 26.1254C57.8885 27.9918 56.8293 29.5539 55.2122 30.74C54.8341 30.9305 54.3846 31.0034 53.9733 30.8662C53.9733 30.8662 53.4806 30.3826 53.2626 30.3294C53.2639 30.4728 53.7811 30.9886 53.8156 31.0937C53.9634 31.3151 54.0718 31.5575 54.0028 31.8346L53.8612 31.9768C53.6703 32.1401 53.5361 32.077 53.4141 32.0683C53.3058 32.0597 53.1481 32.0597 52.9055 32.0857C51.403 32.2415 51.1406 32.2947 50.1899 32.4852C49.5765 32.5458 48.8364 32.6694 48.223 32.855C47.8843 32.8574 47.8388 32.4802 47.9595 32.2774C47.9989 31.8816 48.2711 31.7146 48.5211 31.5699L48.7083 31.4598C48.8881 31.3448 49.0285 31.2137 49.0691 30.9898C49.1295 29.8458 48.5322 29.0653 48.1528 28.0586C48.1528 28.0586 47.5149 26.0809 46.5419 26.5509C46.4249 26.8638 46.654 27.69 46.654 27.69C46.606 28.7165 46.8252 29.5799 47.2181 30.5508C47.2181 30.667 47.2907 31.3263 47.1503 31.4672C46.7193 31.6874 46.4693 31.7171 46.0776 31.7876C45.9385 31.8074 45.7722 31.8173 44.8571 31.915C43.0627 32.3194 41.4789 31.9892 41.5048 31.4586ZM49.0075 19.1571C48.6997 19.7768 47.8967 19.1571 47.4644 19.6531C47.1565 19.7149 46.9705 19.5912 46.8474 19.4045V19.1571C47.2181 19.1571 47.5888 19.0953 47.8351 18.8467C48.0814 18.7848 48.3905 19.1571 48.6997 18.8467C48.8844 18.723 48.8228 18.4126 49.0691 18.2889C49.4398 18.4756 49.1319 18.9098 49.0075 19.1571ZM51.1062 22.008C51.0446 22.504 51.9091 22.3803 51.6616 22.8763C51.2921 23.0618 51.0446 22.6907 50.8598 22.4421C50.6751 22.0711 50.5507 21.4514 50.6751 21.141C51.3537 21.0791 50.8598 21.6988 51.1062 22.008ZM52.5262 22.0711C52.5262 22.1948 52.7109 22.4421 52.4646 22.504C52.1555 22.6289 51.786 22.4421 51.5384 22.1948C51.169 21.6988 50.983 20.9542 51.2921 20.2727C51.4153 20.0872 51.6 20.2727 51.6616 20.3964C51.9091 20.8305 51.5384 21.4514 51.9707 21.8225L52.5262 22.0711ZM49.8105 20.3964C49.6861 20.5832 49.563 20.8924 49.2551 20.8305C48.2058 20.5213 48.3289 22.0711 47.2796 21.8843C46.9089 21.7606 46.2919 22.0711 46.1688 21.4514C46.2919 21.141 46.8474 21.3265 47.0949 21.141C47.2796 21.2028 47.526 21.2647 47.7119 21.2647C48.0198 21.0173 47.5888 20.7069 47.8967 20.5213C48.2674 20.7069 48.5753 20.3346 48.8228 20.1491C49.1935 20.2727 49.563 20.2109 49.749 19.8386C49.9337 19.8386 49.8721 20.2109 49.8105 20.3964Z" fill="black"/>
<path d="M2.46742 78.4154C2.45363 78.8908 2.45363 80.0135 3.91453 79.9999C4.73094 79.9999 5.45104 79.6625 5.45104 78.6154C5.45104 77.0378 3.22878 77.1961 3.22878 76.1009C3.22878 75.5635 3.61279 75.3708 3.99015 75.3708C4.58684 75.3708 4.75828 75.729 4.75151 76.2732H5.40991C5.45104 75.2606 4.94363 74.8197 4.03818 74.8197C3.20822 74.8197 2.58405 75.2878 2.58405 76.1699C2.58405 77.6646 4.80631 77.5408 4.80631 78.6427C4.80631 79.2351 4.42218 79.4487 3.92155 79.4487C3.51673 79.4487 3.09159 79.2351 3.09159 78.5601V78.4154H2.46742Z" fill="black"/>
<path d="M8.95978 79.8965V79.3455H6.99813V77.6236H8.78157V77.0722H6.99813V75.4743H8.91865V74.9233H6.36694V79.8965H8.95978Z" fill="black"/>
<path d="M12.5738 76.2939C12.6354 75.3297 12.2586 74.8198 11.2774 74.8198C10.3033 74.8198 9.68604 75.2193 9.68604 76.6246V78.03C9.68604 79.9586 10.6327 80 11.2499 80C11.5723 80 12.6773 80 12.649 78.4294H11.9975C11.9913 79.4005 11.4077 79.4695 11.2158 79.4695C10.7287 79.4695 10.3309 79.3248 10.3309 78.1056V76.7762C10.3309 75.9219 10.4543 75.7979 10.4749 75.7428C10.4956 75.6741 10.7012 75.357 11.2226 75.357C11.3529 75.357 11.6477 75.4124 11.7782 75.5706C11.9088 75.7291 11.9297 76.0115 11.9223 76.2939H12.5738Z" fill="black"/>
<path d="M13.4766 78.0781C13.4766 79.4557 13.984 80 15.0333 80C16.0826 80 16.5912 79.4557 16.5912 78.0781V74.9233H15.9594V78.1057C15.9594 79.1938 15.6306 79.4695 15.0333 79.4695C14.4372 79.4695 14.1071 79.1938 14.1071 78.1057V74.9233H13.4766V78.0781Z" fill="black"/>
<path fill-rule="evenodd" clip-rule="evenodd" d="M18.2478 75.4743H19.201C19.6887 75.4743 19.866 75.8738 19.866 76.2321C19.866 76.666 19.6468 77.0586 19.1948 77.0586H18.2478V75.4743ZM18.9879 77.6096C19.201 77.6096 19.6887 77.6372 19.7355 78.2432C19.7909 78.9045 19.7503 79.5522 19.9276 79.8965H20.5865C20.4905 79.5865 20.4215 78.8082 20.4153 78.5946C20.3808 77.5957 20.1752 77.4029 19.6062 77.3134V77.2994C20.1887 77.1962 20.5114 76.7486 20.5114 76.1631C20.5114 75.543 20.2023 74.9233 19.3242 74.9233H17.6172V79.8965H18.2478V77.6096H18.9879Z" fill="black"/>
<path d="M21.4683 79.8965H22.0992V74.9233H21.4683V79.8965Z" fill="black"/>
<path d="M22.7749 74.9231V75.4741H24.0779V79.8962H24.7097V75.4741H26.0127V74.9231H22.7749Z" fill="black"/>
<path d="M26.6914 79.8965H27.3224V74.9233H26.6914V79.8965Z" fill="black"/>
<path d="M31.0512 79.8965V79.3455H29.0893V77.6236H30.8726V77.0722H29.0893V75.4743H31.0093V74.9233H28.4587V79.8965H31.0512Z" fill="black"/>
<path d="M31.6878 78.4154C31.6743 78.8908 31.6743 80.0135 33.1349 79.9999C33.9515 79.9999 34.6719 79.6625 34.6719 78.6154C34.6719 77.0378 32.4489 77.1961 32.4489 76.1009C32.4489 75.5635 32.8332 75.3708 33.2101 75.3708C33.8074 75.3708 33.9786 75.729 33.9724 76.2732H34.6301C34.6719 75.2606 34.1645 74.8197 33.2581 74.8197C32.4292 74.8197 31.8048 75.2878 31.8048 76.1699C31.8048 77.6646 34.0266 77.5408 34.0266 78.6427C34.0266 79.2351 33.6423 79.4487 33.1423 79.4487C32.7371 79.4487 32.3122 79.2351 32.3122 78.5601V78.4154H31.6878Z" fill="black"/>
<path d="M37.1365 79.8965H37.7676V74.9233H37.1365V79.8965Z" fill="black"/>
<path d="M41.7696 74.9231V79.18H41.7561L39.8287 74.9231H38.937V79.8962H39.4998V75.584H39.5134L41.4679 79.8962H42.3325V74.9231H41.7696Z" fill="black"/>
<path d="M46.5912 74.9231H45.9458L44.7869 79.2971H44.7734L43.6416 74.9231H42.9556L44.3891 79.8962H45.1441L46.5912 74.9231Z" fill="black"/>
<path d="M49.7712 79.8965V79.3455H47.8093V77.6236H49.5926V77.0722H47.8093V75.4743H49.7305V74.9233H47.1787V79.8965H49.7712Z" fill="black"/>
<path d="M50.4078 78.4154C50.3942 78.8908 50.3942 80.0135 51.8549 79.9999C52.6714 79.9999 53.3919 79.6625 53.3919 78.6154C53.3919 77.0378 51.1689 77.1961 51.1689 76.1009C51.1689 75.5635 51.5532 75.3708 51.9313 75.3708C52.5273 75.3708 52.6985 75.729 52.6924 76.2732H53.35C53.3919 75.2606 52.8833 74.8197 51.9781 74.8197C51.1492 74.8197 50.5248 75.2878 50.5248 76.1699C50.5248 77.6646 52.7466 77.5408 52.7466 78.6427C52.7466 79.2351 52.3623 79.4487 51.8623 79.4487C51.4571 79.4487 51.0322 79.2351 51.0322 78.5601V78.4154H50.4078Z" fill="black"/>
<path d="M53.8477 74.9231V75.4741H55.1507V79.8962H55.7825V75.4741H57.0855V74.9231H53.8477Z" fill="black"/>
<path fill-rule="evenodd" clip-rule="evenodd" d="M59.2186 80C60.2679 80 60.7753 79.4555 60.7753 78.0781V76.4455C60.7753 75.4536 60.2679 74.8198 59.2186 74.8198C58.1693 74.8198 57.6619 75.4536 57.6619 76.4455V78.0781C57.6619 79.4555 58.1693 80 59.2186 80ZM59.2186 79.4695C58.6213 79.4695 58.306 79.1938 58.306 78.1057V76.425C58.306 75.3845 59.0203 75.3503 59.2186 75.3503C59.4169 75.3503 60.1312 75.3845 60.1312 76.425V78.1057C60.1312 79.1938 59.8147 79.4695 59.2186 79.4695Z" fill="black"/>
<path fill-rule="evenodd" clip-rule="evenodd" d="M62.4318 75.4743H63.3851C63.8728 75.4743 64.0514 75.8738 64.0514 76.2321C64.0514 76.666 63.8309 77.0586 63.3789 77.0586H62.4318V75.4743ZM63.1732 77.6096C63.3851 77.6096 63.8728 77.6372 63.9208 78.2432C63.975 78.9045 63.9344 79.5522 64.1129 79.8965H64.7706C64.6745 79.5865 64.6068 78.8082 64.5994 78.5946C64.5649 77.5957 64.3593 77.4029 63.7903 77.3134V77.2994C64.3728 77.1962 64.6955 76.7486 64.6955 76.1631C64.6955 75.543 64.3864 74.9233 63.5095 74.9233H61.8013V79.8965H62.4318V77.6096H63.1732Z" fill="black"/>
<path fill-rule="evenodd" clip-rule="evenodd" d="M67.7497 75.4743H68.6204C68.7571 75.4743 69.32 75.55 69.32 76.3077C69.32 77.086 68.703 77.1551 68.4431 77.1551H67.7497V75.4743ZM67.7497 79.8965V77.7062H68.5798C69.0872 77.7062 69.9653 77.4719 69.9653 76.3422C69.9653 75.1711 69.251 74.9233 68.586 74.9233H67.1179V79.8965H67.7497Z" fill="black"/>
<path fill-rule="evenodd" clip-rule="evenodd" d="M71.4086 75.4743H72.3619C72.8496 75.4743 73.0269 75.8738 73.0269 76.2321C73.0269 76.666 72.8077 77.0586 72.3557 77.0586H71.4086V75.4743ZM72.1501 77.6096C72.3619 77.6096 72.8496 77.6372 72.8976 78.2432C72.9518 78.9045 72.9112 79.5522 73.0898 79.8965H73.7474C73.6514 79.5865 73.5836 78.8082 73.5762 78.5946C73.5417 77.5957 73.3361 77.4029 72.7671 77.3134V77.2994C73.3496 77.1962 73.6723 76.7486 73.6723 76.1631C73.6723 75.543 73.3632 74.9233 72.485 74.9233H70.7781V79.8965H71.4086V77.6096H72.1501Z" fill="black"/>
<path fill-rule="evenodd" clip-rule="evenodd" d="M76.0838 80C77.1331 80 77.6405 79.4555 77.6405 78.0781V76.4455C77.6405 75.4536 77.1331 74.8198 76.0838 74.8198C75.0345 74.8198 74.5271 75.4536 74.5271 76.4455V78.0781C74.5271 79.4555 75.0345 80 76.0838 80ZM76.0838 79.4695C75.4877 79.4695 75.1712 79.1938 75.1712 78.1057V76.425C75.1712 75.3845 75.8855 75.3503 76.0838 75.3503C76.2821 75.3503 76.9964 75.3845 76.9964 76.425V78.1057C76.9964 79.1938 76.6799 79.4695 76.0838 79.4695Z" fill="black"/>
<path d="M78.2207 74.9231V75.4741H79.5237V79.8962H80.1555V75.4741H81.4585V74.9231H78.2207Z" fill="black"/>
<path d="M84.6469 79.8965V79.3455H82.685V77.6236H84.4683V77.0722H82.685V75.4743H84.605V74.9233H82.0544V79.8965H84.6469Z" fill="black"/>
<path d="M88.2616 76.2939C88.3232 75.3297 87.9463 74.8198 86.9647 74.8198C85.9906 74.8198 85.3735 75.2193 85.3735 76.6246V78.03C85.3735 79.9586 86.3206 80 86.9376 80C87.2603 80 88.3638 80 88.3367 78.4294H87.6852C87.6791 79.4005 87.0953 79.4695 86.9032 79.4695C86.4167 79.4695 86.0189 79.3248 86.0189 78.1056V76.7762C86.0189 75.9219 86.142 75.7979 86.163 75.7428C86.1827 75.6741 86.3884 75.357 86.9105 75.357C87.0411 75.357 87.3354 75.4124 87.466 75.5706C87.5965 75.7291 87.6162 76.0115 87.6101 76.2939H88.2616Z" fill="black"/>
<path d="M88.7249 74.9231V75.4741H90.0279V79.8962H90.6597V75.4741H91.9627V74.9231H88.7249Z" fill="black"/>
<path d="M92.6411 79.8965H93.2724V74.9233H92.6411V79.8965Z" fill="black"/>
<path fill-rule="evenodd" clip-rule="evenodd" d="M95.9442 80C96.9935 80 97.5009 79.4555 97.5009 78.0781V76.4455C97.5009 75.4536 96.9935 74.8198 95.9442 74.8198C94.8949 74.8198 94.3875 75.4536 94.3875 76.4455V78.0781C94.3875 79.4555 94.8949 80 95.9442 80ZM95.9442 79.4695C95.3481 79.4695 95.0316 79.1938 95.0316 78.1057V76.425C95.0316 75.3845 95.7459 75.3503 95.9442 75.3503C96.1424 75.3503 96.8568 75.3845 96.8568 76.425V78.1057C96.8568 79.1938 96.5415 79.4695 95.9442 79.4695Z" fill="black"/>
<path d="M101.408 74.9231V79.18H101.394L99.4666 74.9231H98.575V79.8962H99.1378V75.584H99.1513L101.106 79.8962H101.97V74.9231H101.408Z" fill="black"/>
<path d="M107.359 76.2939C107.42 75.3297 107.043 74.8198 106.062 74.8198C105.087 74.8198 104.47 75.2193 104.47 76.6246V78.03C104.47 79.9586 105.418 80 106.035 80C106.357 80 107.461 80 107.434 78.4294H106.782C106.776 79.4005 106.192 79.4695 106 79.4695C105.514 79.4695 105.116 79.3248 105.116 78.1056V76.7762C105.116 75.9219 105.239 75.7979 105.26 75.7428C105.28 75.6741 105.485 75.357 106.007 75.357C106.138 75.357 106.432 75.4124 106.563 75.5706C106.693 75.7291 106.713 76.0115 106.707 76.2939H107.359Z" fill="black"/>
<path fill-rule="evenodd" clip-rule="evenodd" d="M109.818 80C110.867 80 111.375 79.4555 111.375 78.0781V76.4455C111.375 75.4536 110.867 74.8198 109.818 74.8198C108.769 74.8198 108.261 75.4536 108.261 76.4455V78.0781C108.261 79.4555 108.769 80 109.818 80ZM109.818 79.4695C109.221 79.4695 108.905 79.1938 108.905 78.1057V76.425C108.905 75.3845 109.62 75.3503 109.818 75.3503C110.016 75.3503 110.731 75.3845 110.731 76.425V78.1057C110.731 79.1938 110.414 79.4695 109.818 79.4695Z" fill="black"/>
<path fill-rule="evenodd" clip-rule="evenodd" d="M113.031 75.4743H113.984C114.472 75.4743 114.65 75.8738 114.65 76.2321C114.65 76.666 114.43 77.0586 113.978 77.0586H113.031V75.4743ZM113.771 77.6096C113.984 77.6096 114.472 77.6372 114.52 78.2432C114.574 78.9045 114.534 79.5522 114.712 79.8965H115.37C115.274 79.5865 115.206 78.8082 115.199 78.5946C115.164 77.5957 114.959 77.4029 114.39 77.3134V77.2994C114.972 77.1962 115.295 76.7486 115.295 76.1631C115.295 75.543 114.986 74.9233 114.108 74.9233H112.399V79.8965H113.031V77.6096H113.771Z" fill="black"/>
<path fill-rule="evenodd" clip-rule="evenodd" d="M116.883 75.4743H117.754C117.892 75.4743 118.454 75.55 118.454 76.3077C118.454 77.086 117.837 77.1551 117.577 77.1551H116.883V75.4743ZM116.883 79.8965V77.7062H117.714C118.221 77.7062 119.099 77.4719 119.099 76.3422C119.099 75.1711 118.386 74.9233 117.72 74.9233H116.253V79.8965H116.883Z" fill="black"/>
<path fill-rule="evenodd" clip-rule="evenodd" d="M121.462 80C122.512 80 123.019 79.4555 123.019 78.0781V76.4455C123.019 75.4536 122.512 74.8198 121.462 74.8198C120.413 74.8198 119.906 75.4536 119.906 76.4455V78.0781C119.906 79.4555 120.413 80 121.462 80ZM121.462 79.4695C120.865 79.4695 120.55 79.1938 120.55 78.1057V76.425C120.55 75.3845 121.263 75.3503 121.462 75.3503C121.661 75.3503 122.375 75.3845 122.375 76.425V78.1057C122.375 79.1938 122.059 79.4695 121.462 79.4695Z" fill="black"/>
<path fill-rule="evenodd" clip-rule="evenodd" d="M124.676 75.4743H125.629C126.117 75.4743 126.294 75.8738 126.294 76.2321C126.294 76.666 126.075 77.0586 125.623 77.0586H124.676V75.4743ZM125.417 77.6096C125.629 77.6096 126.117 77.6372 126.165 78.2432C126.219 78.9045 126.178 79.5522 126.357 79.8965H127.014C126.918 79.5865 126.851 78.8082 126.843 78.5946C126.809 77.5957 126.603 77.4029 126.034 77.3134V77.2994C126.617 77.1962 126.939 76.7486 126.939 76.1631C126.939 75.543 126.63 74.9233 125.752 74.9233H124.045V79.8965H124.676V77.6096H125.417Z" fill="black"/>
<path fill-rule="evenodd" clip-rule="evenodd" d="M127.362 79.8965H128L128.37 78.7117H130.284L130.64 79.8965H131.347L129.735 74.9233H128.932L127.362 79.8965ZM130.112 78.1607H128.528L129.303 75.5086H129.316L130.112 78.1607Z" fill="black"/>
<path d="M130.98 74.9231V75.4741H132.283V79.8962H132.915V75.4741H134.218V74.9231H130.98Z" fill="black"/>
<path d="M134.896 79.8965H135.528V74.9233H134.896V79.8965Z" fill="black"/>
<path fill-rule="evenodd" clip-rule="evenodd" d="M138.2 80C139.249 80 139.756 79.4555 139.756 78.0781V76.4455C139.756 75.4536 139.249 74.8198 138.2 74.8198C137.15 74.8198 136.643 75.4536 136.643 76.4455V78.0781C136.643 79.4555 137.15 80 138.2 80ZM138.2 79.4695C137.604 79.4695 137.287 79.1938 137.287 78.1057V76.425C137.287 75.3845 138.001 75.3503 138.2 75.3503C138.398 75.3503 139.112 75.3845 139.112 76.425V78.1057C139.112 79.1938 138.796 79.4695 138.2 79.4695Z" fill="black"/>
<path d="M143.664 74.9231V79.18H143.651L141.723 74.9231H140.832V79.8962H141.393V75.584H141.407L143.362 79.8962H144.227V74.9231H143.664Z" fill="black"/>
<path d="M33.8703 12.9298V31.6776C33.5513 31.9967 33.5513 31.7568 33.4848 31.3301C33.0365 28.4718 32.7828 23.642 28.4501 19.7287C18.7945 11.009 6.99356 14.8049 9.37173 25.5046C12.3953 39.1072 33.6744 31.643 36.4615 49.3445C39.4074 68.0663 22.371 73.9523 8.82615 66.8938C8.82615 66.8938 5.3297 64.6935 3.94787 65.2488C3.34932 65.4887 2.95522 66.7194 2.86285 68.0626C2.81728 70.0069 2.28031 69.4243 2.30987 69.2561C2.30494 68.4485 2.30987 49.2356 2.30987 49.2356C2.32465 48.8708 2.62146 48.9734 2.62146 49.0934C2.96507 71.2907 26.9525 74.1243 26.4857 61.2266C25.9328 45.9778 2.41086 49.932 0.249442 34.2898C-2.40953 15.0634 16.8179 9.66336 28.0129 17.9748C30.2285 19.6186 32.2877 17.093 32.6412 16.5735C33.3961 15.4678 33.151 14.372 33.4478 12.9212C33.5661 12.346 33.8703 12.5303 33.8703 12.9298Z" fill="black"/>
<path d="M143.907 31.8273C144.025 33.2162 143.28 32.86 143.28 32.86C145.094 18.4906 116.388 1.61903 114.537 38.4319C112.901 70.9765 135.384 77.3944 144.191 55.1662C144.279 54.857 144.837 53.1922 144.861 53.05C144.965 52.4625 145.051 53.1378 144.965 53.7958C139.984 82.2662 92.2408 72.7959 103.19 31.2323C105.789 21.3637 118.535 11.8612 128.752 14.7022C134.84 16.3941 134.08 17.2884 137.761 19.2413C141.892 21.433 142.956 16.3459 143.466 13.7622C143.93 13.5037 143.903 14.388 143.903 14.388L143.907 31.8273Z" fill="black"/>
<path d="M87.9142 20.8851C85.7245 17.5048 82.1775 15.4999 78.0628 15.8141C77.4988 15.7918 77.5296 16.1221 77.5296 16.1221V42.5493C77.5333 43.117 78.0628 43.1133 78.0628 43.1133C82.6763 43.4893 86.6506 40.6595 88.849 36.6645C91.4686 31.9052 90.6114 25.0495 87.9142 20.8851ZM101.091 25.4527C102.233 32.1031 100.862 37.4252 97.5156 40.4207C91.689 45.1429 85.2885 43.7144 78.3338 43.9902C77.4544 43.937 77.5296 45.0081 77.5296 45.0081V69.2697L63.3775 69.2747L63.3701 16.1258C63.4551 15.0868 61.4476 15.375 60.1816 15.3132C59.5658 15.2316 59.87 14.7752 60.1569 14.7269C65.6473 14.8469 82.164 14.2235 91.4021 16.1258C96.183 17.1103 100.173 20.0972 101.091 25.4527Z" fill="black"/>
<path d="M56.3725 34.8365V69.2697C54.3662 69.2895 41.8805 69.2747 41.8805 69.2747L41.8903 36.2317C41.8903 36.2317 41.9556 35.0047 41.1514 34.9726C39.4789 34.9058 37.2251 34.7227 37.2251 34.7227C36.9382 34.7054 36.6426 34.3257 37.2251 34.2849C38.9309 34.2849 55.6015 34.2849 55.6015 34.2849C56.4217 34.2602 56.3725 34.8365 56.3725 34.8365Z" fill="black"/>
</g>
<defs>
<clipPath id="clip0_3_946">
<rect width="145" height="80" fill="white"/>
</clipPath>
</defs>
</svg>
