<svg width="30" height="31" viewBox="0 0 30 31" fill="none" xmlns="http://www.w3.org/2000/svg">
<path d="M27.5 15.2241C27.5 22.1277 21.9036 27.7241 15 27.7241C8.09644 27.7241 2.5 22.1277 2.5 15.2241C2.5 8.32056 8.09644 2.72412 15 2.72412C21.9036 2.72412 27.5 8.32056 27.5 15.2241Z" fill="#F3CC50"/>
<path d="M12.6444 18.1649C11.1758 16.6984 11.1758 14.3208 12.6444 12.8543C14.1129 11.3878 16.4939 11.3878 17.9624 12.8543C18.521 13.4121 18.9111 14.5701 19.1801 15.791C19.5824 17.6167 19.7835 18.5295 19.0555 19.2565C18.3275 19.9835 17.4134 19.7827 15.5851 19.381C14.3626 19.1123 13.203 18.7228 12.6444 18.1649Z" fill="#212129"/>
<path d="M5.52596 7.0695C5.93252 6.59758 6.37374 6.15638 6.84567 5.74983C6.86881 5.76892 6.89126 5.78929 6.91291 5.81094L8.78791 7.68594C9.15403 8.05206 9.15403 8.64565 8.78791 9.01177C8.4218 9.37788 7.8282 9.37788 7.46209 9.01177L5.58709 7.13677C5.56543 7.11511 5.54505 7.09266 5.52596 7.0695Z" fill="#212129"/>
<path d="M2.53461 16.1614C2.51167 15.8519 2.5 15.5394 2.5 15.2241C2.5 14.9087 2.51169 14.5959 2.53465 14.2864H5C5.51777 14.2864 5.9375 14.7061 5.9375 15.2239C5.9375 15.7416 5.51777 16.1614 5 16.1614H2.53461Z" fill="#212129"/>
<path d="M6.84535 24.6981C6.37346 24.2916 5.93226 23.8504 5.52573 23.3785C5.54489 23.3552 5.56534 23.3327 5.58709 23.3109L7.46209 21.4359C7.8282 21.0698 8.4218 21.0698 8.78791 21.4359C9.15403 21.8021 9.15403 22.3957 8.78791 22.7618L6.91291 24.6368C6.89116 24.6585 6.86861 24.679 6.84535 24.6981Z" fill="#212129"/>
<path d="M24.4743 23.3785C24.0677 23.8504 23.6265 24.2916 23.1546 24.6981C23.1314 24.679 23.1088 24.6585 23.0871 24.6368L21.2121 22.7618C20.846 22.3957 20.846 21.8021 21.2121 21.4359C21.5782 21.0698 22.1718 21.0698 22.5379 21.4359L24.4129 23.3109C24.4347 23.3327 24.4551 23.3552 24.4743 23.3785Z" fill="#212129"/>
<path d="M27.4654 14.2864C27.4883 14.5959 27.5 14.9087 27.5 15.2241C27.5 15.5394 27.4883 15.8519 27.4654 16.1614H24.9997C24.482 16.1614 24.0622 15.7416 24.0622 15.2239C24.0622 14.7061 24.482 14.2864 24.9997 14.2864H27.4654Z" fill="#212129"/>
<path d="M23.1543 5.74983C23.6263 6.15638 24.0675 6.59759 24.474 7.0695C24.4549 7.09266 24.4346 7.11511 24.4129 7.13677L22.5379 9.01177C22.1718 9.37788 21.5782 9.37788 21.2121 9.01177C20.846 8.64565 20.846 8.05206 21.2121 7.68594L23.0871 5.81094C23.1087 5.78929 23.1312 5.76892 23.1543 5.74983Z" fill="#212129"/>
<path d="M15.9375 2.75875V5.22412C15.9375 5.74189 15.5178 6.16162 15 6.16162C14.4822 6.16162 14.0625 5.74189 14.0625 5.22412V2.75875C14.372 2.7358 14.6846 2.72412 15 2.72412C15.3154 2.72412 15.628 2.7358 15.9375 2.75875Z" fill="#212129"/>
</svg>
