<svg width="1260" height="963" viewBox="0 0 1260 963" fill="none" xmlns="http://www.w3.org/2000/svg">
<path opacity="0.7" d="M27.1497 761.71C127.922 977.366 480.136 1027 812.375 872.333C1144.64 717.669 1332.93 416.356 1232.22 200.706C1131.85 -14.1668 781.895 -64.2916 450.78 88.2344C449.509 88.82 448.239 89.408 446.969 89.9988C114.73 244.668 -73.5761 546.007 27.1497 761.71ZM1228.67 202.336C1328.75 416.572 1141.43 715.964 811.155 869.722C480.854 1023.47 130.759 974.302 30.7088 760.053C-25.2831 640.2 8.6741 493.686 107.291 360.932C15.4589 488.724 -15.2193 628.648 38.4562 743.597C136.473 953.495 479.284 1001.79 802.551 851.299C1125.82 700.779 1309.09 407.571 1211.06 197.712C1157.35 82.6973 1030.14 16.1996 872.926 4.3413C1038.3 14.1907 1172.66 82.4053 1228.67 202.336ZM366.68 218.727C385.982 260.096 453.454 269.677 517.062 240.068C580.668 210.458 616.681 152.707 597.35 111.34C587.241 89.6689 563.909 76.7274 534.84 73.5669C572.055 74.735 602.539 89.4045 614.956 115.992C636.298 161.685 596.232 225.596 525.647 258.457C455.063 291.319 380.272 280.878 358.926 235.185C346.521 208.599 354.847 175.885 377.838 146.693C361.61 170.939 356.558 197.08 366.68 218.727ZM378.005 200.648C394.631 236.202 452.611 244.442 507.209 219.024C561.879 193.573 592.828 143.92 576.231 108.377C567.591 89.8916 547.799 78.7932 523.12 75.9528C555.963 76.7882 582.911 89.6004 593.823 112.982C612.451 152.887 577.477 208.699 515.832 237.396C454.151 266.11 388.823 257.006 370.201 217.088C359.264 193.674 366.797 164.764 387.347 139.073C373.597 159.81 369.357 182.133 378.005 200.648ZM389.303 182.562C403.203 212.364 451.678 219.2 497.377 197.929C543.075 176.657 568.97 135.16 555.059 105.386C554.843 104.923 554.618 104.465 554.386 104.014C554.305 103.859 554.222 103.711 554.141 103.559C553.983 103.263 553.826 102.967 553.662 102.675C553.56 102.493 553.451 102.317 553.345 102.138C553.196 101.879 553.048 101.62 552.891 101.37C552.772 101.179 552.646 100.993 552.526 100.804C552.375 100.568 552.227 100.329 552.071 100.098C551.939 99.9034 551.8 99.7121 551.666 99.519C551.513 99.2986 551.361 99.0755 551.203 98.859C551.06 98.6623 550.909 98.471 550.763 98.277C550.605 98.0697 550.452 97.8593 550.29 97.655C550.129 97.4508 549.973 97.2669 549.814 97.0725C549.656 96.8782 549.497 96.6782 549.331 96.487C549.166 96.296 548.993 96.1014 548.821 95.9074C548.658 95.7225 548.496 95.5343 548.329 95.3519C548.15 95.1564 547.965 94.967 547.783 94.775C547.617 94.6 547.453 94.4225 547.282 94.2517C547.092 94.0584 546.896 93.8701 546.701 93.6797C546.532 93.5146 546.366 93.3472 546.197 93.1851C545.994 92.9924 545.787 92.8074 545.582 92.6202C545.411 92.4644 545.244 92.3069 545.069 92.1528C544.854 91.9626 544.633 91.7787 544.414 91.5924C544.242 91.4466 544.073 91.2981 543.898 91.1547C543.671 90.9667 543.439 90.7826 543.206 90.6016C543.032 90.4651 542.864 90.3258 542.688 90.191C542.448 90.0065 542.202 89.827 541.956 89.6463C541.785 89.5157 541.615 89.3857 541.439 89.2625C541.186 89.0804 540.926 88.904 540.668 88.7262C540.496 88.6074 540.326 88.4858 540.151 88.3683C539.885 88.1895 539.612 88.0159 539.341 87.8416C539.169 87.7313 539 87.6188 538.828 87.5104C538.55 87.3355 538.261 87.1644 537.975 86.9953C537.806 86.8946 537.638 86.7894 537.466 86.6896C537.173 86.5148 536.871 86.3507 536.571 86.1832C536.4 86.0883 536.239 85.994 536.07 85.9012C535.761 85.7329 535.446 85.5702 535.133 85.4063C534.969 85.3212 534.806 85.2327 534.64 85.1486C534.315 84.9844 533.987 84.8259 533.658 84.6663C533.497 84.5884 533.337 84.5082 533.175 84.4311C532.836 84.2712 532.494 84.1152 532.149 83.9626C531.991 83.8917 531.836 83.819 531.679 83.7503C531.325 83.5951 530.968 83.4464 530.607 83.2966C530.455 83.233 530.304 83.1672 530.15 83.1044C529.78 82.9547 529.406 82.8097 529.033 82.6664C528.883 82.6121 528.738 82.5506 528.59 82.4945C528.205 82.35 527.815 82.2129 527.426 82.0716C527.284 82.02 527.143 81.9687 527 81.9169C526.6 81.7782 526.194 81.6453 525.788 81.5128C525.651 81.4684 525.516 81.422 525.379 81.3789C524.963 81.2456 524.542 81.1188 524.121 80.9906C523.992 80.9515 523.863 80.9115 523.732 80.8734C523.298 80.7474 522.863 80.6264 522.427 80.5096C522.303 80.476 522.179 80.4397 522.054 80.4067C521.608 80.2879 521.155 80.1748 520.701 80.0645C520.585 80.0355 520.469 80.0054 520.351 79.9768C519.887 79.8656 519.419 79.7598 518.95 79.657C518.84 79.6328 518.731 79.6069 518.622 79.5834C518.143 79.4777 517.658 79.3829 517.174 79.2874L516.866 79.2256C516.372 79.1306 515.873 79.0414 515.37 78.9552C515.276 78.9388 515.182 78.9211 515.087 78.9048C514.576 78.8189 514.062 78.7374 513.545 78.6607C513.458 78.6475 513.372 78.6332 513.286 78.6212C512.759 78.5441 512.23 78.4721 511.698 78.4049C511.618 78.395 511.54 78.3835 511.46 78.3739C511.407 78.3671 511.351 78.3619 511.296 78.3552C539.816 78.8393 563.277 89.8183 572.709 110.028C588.636 144.103 558.704 191.791 505.985 216.357C453.286 240.868 397.453 233.108 381.558 199.026C372.135 178.854 378.729 153.934 396.581 131.861C385.496 148.976 382.172 167.318 389.303 182.562ZM400.592 164.504C411.798 188.451 450.793 194.007 487.552 176.89C524.312 159.775 545.12 126.37 533.941 102.436C528.293 90.3584 515.576 82.9525 499.647 80.7659C502.656 80.787 505.595 80.9479 508.463 81.2482L508.472 81.2515C509.177 81.3256 509.876 81.4078 510.57 81.4984L510.617 81.5041C513.35 81.8573 516.063 82.3572 518.742 83.0019L518.871 83.034C519.473 83.1804 520.068 83.3338 520.658 83.4945L520.826 83.5399C522.739 84.0652 524.593 84.6631 526.387 85.3339L526.419 85.3454C526.979 85.5557 527.532 85.7745 528.08 85.9982L528.349 86.1101C528.828 86.309 529.3 86.513 529.767 86.722L530.064 86.8553C530.554 87.0787 531.039 87.3073 531.517 87.5409L531.688 87.6236C532.776 88.1613 533.833 88.7298 534.859 89.3291C534.931 89.3707 535.001 89.4144 535.072 89.4563C535.493 89.7047 535.908 89.9589 536.32 90.2184C536.441 90.2951 536.562 90.3745 536.682 90.4511C537.045 90.6846 537.404 90.9225 537.758 91.165C537.884 91.2516 538.009 91.3363 538.135 91.4233C538.501 91.6786 538.86 91.9399 539.218 92.2045C539.314 92.2748 539.412 92.3431 539.506 92.4163C540.405 93.0951 541.271 93.8022 542.103 94.5381C542.207 94.6284 542.302 94.7191 542.401 94.8092C542.708 95.0846 543.008 95.3639 543.305 95.6471C543.433 95.7691 543.557 95.8932 543.684 96.017C543.951 96.2794 544.214 96.5443 544.472 96.8121C544.598 96.9433 544.723 97.0735 544.848 97.2054C545.114 97.4892 545.373 97.7766 545.628 98.0662C545.732 98.1829 545.837 98.2977 545.938 98.4152C546.642 99.2311 547.309 100.075 547.941 100.945C548.036 101.078 548.128 101.213 548.222 101.346C548.438 101.651 548.649 101.959 548.856 102.271C548.963 102.433 549.069 102.597 549.173 102.762C549.361 103.058 549.545 103.355 549.726 103.654C549.827 103.823 549.928 103.992 550.028 104.163C550.212 104.483 550.391 104.807 550.565 105.131C550.647 105.283 550.729 105.432 550.809 105.585C551.059 106.063 551.3 106.547 551.531 107.037C564.743 135.325 539.91 174.901 496.126 195.304C452.39 215.666 406.034 209.211 392.823 180.921C392.592 180.427 392.375 179.933 392.171 179.436C392.105 179.276 392.045 179.117 391.982 178.957C391.845 178.614 391.711 178.269 391.584 177.925C391.514 177.738 391.451 177.553 391.387 177.366C391.272 177.036 391.163 176.705 391.057 176.372C390.999 176.186 390.94 175.999 390.885 175.812C390.778 175.455 390.678 175.095 390.583 174.735C390.541 174.577 390.497 174.42 390.456 174.261C390.194 173.219 389.975 172.166 389.802 171.103C389.777 170.952 389.756 170.796 389.733 170.644C389.674 170.262 389.621 169.878 389.574 169.493C389.552 169.314 389.533 169.133 389.513 168.952C389.474 168.583 389.438 168.212 389.408 167.84C389.394 167.665 389.381 167.489 389.368 167.312C389.342 166.904 389.324 166.497 389.306 166.087C389.303 165.949 389.294 165.816 389.291 165.681C389.261 164.572 389.275 163.455 389.332 162.332C389.337 162.214 389.349 162.096 389.354 161.977C389.379 161.534 389.411 161.091 389.45 160.647C389.463 160.495 389.478 160.344 389.494 160.193C389.536 159.766 389.583 159.34 389.636 158.913C389.655 158.769 389.672 158.627 389.692 158.483C389.756 158.005 389.828 157.527 389.907 157.047C389.922 156.962 389.935 156.878 389.948 156.794C390.146 155.625 390.39 154.451 390.677 153.275C390.693 153.212 390.708 153.155 390.722 153.094C390.851 152.577 390.987 152.059 391.131 151.54C391.161 151.435 391.19 151.331 391.22 151.226C391.36 150.734 391.508 150.241 391.662 149.748C391.692 149.654 391.72 149.561 391.75 149.467C391.929 148.908 392.115 148.35 392.313 147.79C392.318 147.775 392.324 147.761 392.33 147.745C392.965 145.944 393.697 144.143 394.524 142.343C394.549 142.29 394.574 142.237 394.598 142.184C394.853 141.631 395.117 141.079 395.39 140.526L395.452 140.4C396.679 137.939 398.037 135.545 399.521 133.228C399.527 133.214 399.539 133.202 399.547 133.189C399.923 132.601 400.308 132.015 400.703 131.43C400.706 131.423 400.711 131.419 400.715 131.413C402.324 129.033 404.088 126.684 406.006 124.366C397.449 137.955 394.958 152.439 400.592 164.504ZM411.926 146.401C420.388 164.56 449.923 168.759 477.711 155.819C505.528 142.894 521.264 117.597 512.775 99.4406C508.635 90.568 499.453 85.0216 487.903 83.1808C507.613 83.0027 523.973 90.2667 530.422 104.061C540.919 126.561 521.128 158.016 486.317 174.242C451.48 190.463 414.619 185.346 404.116 162.861C397.657 149.034 402.621 131.833 415.475 116.856C409.425 126.896 407.763 137.507 411.926 146.401ZM423.218 128.34C428.976 140.67 449.034 143.564 467.876 134.812C486.766 126.019 497.407 108.823 491.654 96.4801C488.998 90.8023 483.326 87.1179 476.143 85.6472C491.471 85.1031 504.304 90.4999 509.246 101.09C517.042 117.761 502.339 141.128 476.476 153.169C450.639 165.222 423.218 161.431 415.452 144.756C410.49 134.159 414.609 120.857 424.892 109.481C421.387 115.932 420.558 122.646 423.218 128.34ZM434.525 110.228C437.601 116.766 448.126 118.33 458.044 113.714C467.962 109.097 473.564 100.024 470.52 93.4811C469.343 90.9622 467.058 89.1876 464.134 88.2136C475.187 87.1702 484.661 90.6734 488.131 98.1197C493.211 109 483.577 124.258 466.649 132.137C449.723 140.016 431.822 137.581 426.74 126.701C423.271 119.24 426.671 109.743 434.579 101.964C433.445 104.829 433.344 107.716 434.526 110.229L434.525 110.228ZM355.405 236.822C377.442 284.003 454.361 294.908 526.911 261.111C599.422 227.355 640.522 161.517 618.484 114.336C606.823 89.3823 579.799 74.5692 546.191 71.1501C587.963 72.5434 622.159 89.0558 636.116 118.92C660.19 170.441 615.045 242.486 535.49 279.523C455.962 316.569 371.647 304.779 347.576 253.245C333.635 223.368 342.952 186.585 368.749 153.734C349.755 181.648 343.744 211.853 355.407 236.823L355.405 236.822ZM344.053 254.888C368.802 307.874 455.246 320.104 536.726 282.172C618.207 244.241 664.387 170.267 639.639 117.28C626.538 89.2229 596.112 72.5891 558.28 68.7893C604.252 70.5916 641.814 88.9415 657.218 121.922C684.004 179.244 633.804 259.363 545.315 300.558C456.825 341.753 363.069 328.642 336.308 271.344C320.867 238.262 331.025 197.598 359.358 161.203C337.793 192.663 330.911 226.746 344.053 254.888ZM332.791 272.958C360.212 331.764 456.125 345.325 546.568 303.244C636.992 261.123 688.205 179.057 660.772 120.279C646.127 88.946 612.048 70.4519 569.723 66.3828C620.234 68.4365 661.489 88.6487 678.42 124.901C707.912 188.04 652.617 276.258 555.146 321.658C457.718 367.012 354.505 352.543 325.014 289.404C308.096 253.204 319.057 208.728 349.868 168.818C325.839 203.773 318.154 241.668 332.794 272.96L332.791 272.958ZM321.482 291.072C351.661 355.636 457.032 370.555 556.392 324.279C655.778 278.008 712.096 187.812 681.95 123.248C665.813 88.6976 628.144 68.3587 581.386 63.9938C636.279 66.3548 681.085 88.4051 699.51 127.865C731.714 196.794 671.359 293.184 564.999 342.701C458.609 392.206 345.892 376.42 313.681 307.507C295.215 267.945 307.193 219.364 340.848 175.784C314.001 214.423 305.317 256.425 321.483 291.072H321.482ZM310.168 309.12C343.035 379.54 457.936 395.788 566.225 345.374C674.547 294.945 735.912 196.618 703.034 126.225C685.37 88.4094 644.044 66.2219 592.783 61.5993C595.541 61.7202 598.273 61.8872 600.983 62.1005L601.26 62.1226C602.044 62.1854 602.826 62.2517 603.607 62.3216L604.046 62.3617C604.783 62.4295 605.517 62.5007 606.25 62.5752L606.711 62.6234C607.461 62.7008 608.208 62.7822 608.954 62.8675L609.311 62.9072C610.16 63.0053 611.007 63.1082 611.852 63.216L611.867 63.2177C614.499 63.5524 617.102 63.9329 619.675 64.359L619.987 64.4113C620.717 64.5334 621.445 64.6584 622.168 64.7863L622.629 64.8687C623.313 64.9926 623.995 65.1192 624.674 65.2481L625.155 65.3405C625.848 65.4744 626.539 65.6116 627.227 65.7519L627.619 65.8314C628.4 65.9922 629.177 66.1573 629.951 66.3272L630.04 66.3461C632.517 66.8899 634.963 67.4779 637.376 68.1099L637.75 68.209C638.407 68.3826 639.061 68.5594 639.714 68.7395L640.221 68.8806C640.836 69.0523 641.45 69.2273 642.061 69.4054L642.585 69.558C643.207 69.7412 643.827 69.9273 644.443 70.1165L644.89 70.253C645.586 70.4687 646.278 70.6876 646.966 70.9094L647.156 70.9695C648.709 71.4734 650.246 71.9972 651.768 72.5406C651.805 72.5541 651.843 72.5676 651.88 72.5813C652.574 72.8296 653.264 73.0816 653.95 73.3376L654.4 73.5069C654.975 73.7242 655.55 73.9441 656.122 74.1663L656.675 74.3835C657.215 74.5969 657.755 74.8124 658.292 75.0304L658.857 75.2613C659.401 75.486 659.943 75.7129 660.483 75.9421C660.65 76.0133 660.818 76.0836 660.985 76.1554C661.587 76.4138 662.185 76.6753 662.78 76.9401C662.878 76.9838 662.976 77.0266 663.075 77.0704C664.494 77.7042 665.894 78.3569 667.276 79.0288C667.359 79.0691 667.441 79.11 667.524 79.1509C668.111 79.4372 668.696 79.7271 669.276 80.0204C669.445 80.1059 669.614 80.193 669.783 80.2796C670.277 80.5318 670.77 80.7864 671.26 81.0437C671.455 81.1465 671.649 81.2499 671.844 81.354C672.31 81.6014 672.773 81.851 673.234 82.1026L673.827 82.428C674.293 82.6857 674.756 82.9453 675.218 83.2068L675.759 83.5148C676.269 83.8078 676.775 84.1034 677.277 84.4019C677.402 84.4759 677.528 84.5487 677.653 84.6231C678.926 85.3831 680.18 86.1609 681.413 86.9562C681.529 87.0314 681.645 87.1087 681.761 87.1839C682.247 87.4996 682.732 87.818 683.212 88.1393L683.749 88.5032C684.166 88.7852 684.579 89.0688 684.992 89.3541C685.189 89.4941 685.386 89.63 685.583 89.7686C685.975 90.045 686.366 90.3236 686.755 90.6042C686.953 90.7474 687.151 90.8909 687.35 91.0349C687.742 91.3222 688.132 91.6111 688.519 91.9016C688.703 92.0367 688.887 92.1762 689.069 92.3153C689.492 92.6362 689.913 92.96 690.33 93.2869C690.469 93.3956 690.61 93.5036 690.75 93.6132C691.868 94.4949 692.966 95.3947 694.044 96.3127C694.177 96.4293 694.308 96.5456 694.444 96.6574C694.841 96.9979 695.234 97.3404 695.626 97.6853C695.804 97.8423 695.98 98.0018 696.157 98.1589C696.5 98.466 696.844 98.776 697.186 99.0888C697.375 99.2619 697.563 99.4361 697.748 99.6102C698.075 99.9136 698.399 100.219 698.721 100.526C698.909 100.704 699.095 100.884 699.282 101.063C699.606 101.377 699.927 101.693 700.247 102.01C700.422 102.183 700.599 102.357 700.77 102.531C701.117 102.879 701.46 103.229 701.799 103.583C701.939 103.728 702.081 103.871 702.221 104.017C703.179 105.019 704.115 106.037 705.03 107.072C705.164 107.224 705.295 107.377 705.428 107.529C705.747 107.895 706.065 108.262 706.379 108.631C706.542 108.823 706.703 109.018 706.865 109.21C707.146 109.546 707.423 109.882 707.698 110.22C707.868 110.428 708.037 110.637 708.203 110.846C708.469 111.177 708.732 111.51 708.993 111.844C709.16 112.057 709.325 112.27 709.489 112.484C709.751 112.826 710.011 113.17 710.269 113.516C710.424 113.723 710.579 113.928 710.731 114.137C711.009 114.514 711.284 114.895 711.556 115.276C711.683 115.453 711.811 115.629 711.936 115.807C712.726 116.928 713.492 118.066 714.236 119.221C714.355 119.403 714.47 119.59 714.587 119.774C714.837 120.17 715.087 120.565 715.333 120.965C715.469 121.188 715.605 121.414 715.74 121.639C715.961 122.004 716.18 122.371 716.396 122.74C716.536 122.978 716.674 123.218 716.813 123.458C717.021 123.821 717.227 124.184 717.431 124.55C717.566 124.791 717.701 125.035 717.835 125.279C718.04 125.654 718.242 126.029 718.442 126.408C718.567 126.642 718.693 126.878 718.815 127.113C719.03 127.526 719.239 127.943 719.449 128.362C719.55 128.564 719.655 128.764 719.755 128.966C720.06 129.588 720.361 130.213 720.655 130.841C755.562 205.599 690.148 310.073 574.825 363.741C459.515 417.444 337.307 400.316 302.396 325.571C302.102 324.942 301.816 324.31 301.537 323.676C301.445 323.47 301.358 323.262 301.268 323.054C301.083 322.625 300.897 322.195 300.72 321.763C300.617 321.517 300.517 321.271 300.417 321.025C300.256 320.628 300.098 320.231 299.941 319.833C299.839 319.574 299.739 319.315 299.642 319.056C299.492 318.665 299.345 318.273 299.201 317.88C299.106 317.621 299.011 317.361 298.917 317.102C298.773 316.698 298.632 316.294 298.493 315.889C298.408 315.64 298.322 315.394 298.24 315.145C298.09 314.698 297.946 314.25 297.802 313.801C297.737 313.596 297.669 313.39 297.606 313.183C297.402 312.528 297.204 311.869 297.012 311.21C297.009 311.197 297.006 311.184 297.002 311.17C296.816 310.524 296.637 309.877 296.465 309.228C296.409 309.018 296.355 308.805 296.302 308.595C296.183 308.142 296.069 307.688 295.956 307.232C295.896 306.983 295.837 306.732 295.777 306.484C295.677 306.063 295.58 305.643 295.484 305.221C295.426 304.959 295.369 304.697 295.313 304.433C295.224 304.017 295.138 303.601 295.053 303.183C295.001 302.922 294.949 302.662 294.898 302.4C294.814 301.968 294.735 301.535 294.658 301.103C294.614 300.858 294.568 300.613 294.527 300.369C294.443 299.883 294.364 299.396 294.288 298.909C294.258 298.717 294.226 298.526 294.197 298.335C293.99 296.968 293.81 295.595 293.657 294.217C293.635 294.016 293.617 293.815 293.595 293.614C293.544 293.127 293.497 292.639 293.449 292.15C293.428 291.907 293.407 291.665 293.388 291.421C293.347 290.969 293.313 290.518 293.282 290.066C293.263 289.81 293.246 289.556 293.23 289.301C293.201 288.853 293.175 288.405 293.151 287.956C293.138 287.704 293.126 287.452 293.114 287.2C293.093 286.733 293.075 286.264 293.061 285.794C293.054 285.565 293.045 285.336 293.038 285.103C293.025 284.565 293.016 284.025 293.013 283.486C293.011 283.328 293.006 283.17 293.005 283.011C292.995 281.596 293.011 280.174 293.055 278.747C293.06 278.571 293.068 278.395 293.074 278.219C293.093 277.688 293.114 277.156 293.139 276.624C293.152 276.4 293.165 276.177 293.175 275.952C293.201 275.462 293.231 274.972 293.263 274.483C293.278 274.246 293.295 274.009 293.313 273.771C293.347 273.284 293.386 272.797 293.428 272.311C293.447 272.08 293.467 271.848 293.487 271.618C293.534 271.106 293.584 270.594 293.638 270.08C293.658 269.879 293.677 269.679 293.7 269.477C293.765 268.873 293.835 268.266 293.91 267.66C293.923 267.551 293.934 267.446 293.948 267.34C294.131 265.879 294.342 264.414 294.578 262.946C294.601 262.806 294.625 262.666 294.647 262.526C294.743 261.945 294.842 261.363 294.945 260.782C294.981 260.586 295.019 260.391 295.052 260.194C295.149 259.663 295.25 259.13 295.354 258.597C295.395 258.384 295.438 258.174 295.479 257.966C295.585 257.436 295.695 256.907 295.808 256.378C295.85 256.176 295.893 255.974 295.937 255.773C296.06 255.21 296.184 254.648 296.315 254.085C296.353 253.923 296.389 253.76 296.424 253.597C296.582 252.913 296.747 252.231 296.92 251.548C296.93 251.509 296.939 251.468 296.949 251.428C297.325 249.93 297.726 248.43 298.154 246.929C298.183 246.831 298.212 246.733 298.24 246.635C298.421 246.002 298.606 245.37 298.794 244.737C298.843 244.575 298.893 244.412 298.943 244.251C299.118 243.677 299.297 243.102 299.48 242.526C299.537 242.347 299.594 242.168 299.652 241.99C299.835 241.418 300.023 240.848 300.214 240.275C300.27 240.109 300.326 239.942 300.383 239.774C300.591 239.161 300.801 238.549 301.017 237.937C301.061 237.817 301.101 237.7 301.142 237.58C301.942 235.328 302.797 233.076 303.71 230.823C303.73 230.767 303.756 230.711 303.778 230.654C304.055 229.978 304.335 229.301 304.62 228.624C304.673 228.496 304.729 228.366 304.784 228.238C305.043 227.626 305.306 227.014 305.574 226.402C305.638 226.255 305.702 226.109 305.767 225.961C306.035 225.353 306.307 224.746 306.584 224.14C306.643 224.007 306.704 223.874 306.765 223.741C307.065 223.085 307.37 222.429 307.679 221.773C307.716 221.696 307.751 221.62 307.787 221.544C308.86 219.277 309.989 217.014 311.173 214.755C311.181 214.731 311.197 214.71 311.209 214.688C311.581 213.978 311.957 213.27 312.34 212.563C312.393 212.462 312.448 212.363 312.504 212.263C312.85 211.625 313.2 210.987 313.554 210.35C313.621 210.23 313.688 210.11 313.755 209.989C314.109 209.356 314.468 208.722 314.83 208.09C314.891 207.986 314.951 207.881 315.013 207.777C315.409 207.091 315.809 206.404 316.214 205.72C316.239 205.679 316.263 205.636 316.288 205.594C317.626 203.336 319.018 201.084 320.464 198.84C320.464 198.84 320.466 198.835 320.466 198.834C320.931 198.113 321.4 197.394 321.875 196.675C321.93 196.592 321.986 196.51 322.039 196.428C322.468 195.782 322.902 195.134 323.34 194.488L323.548 194.18C323.985 193.539 324.426 192.898 324.872 192.258L325.053 191.997C325.541 191.299 326.031 190.603 326.527 189.908L326.571 189.846C328.162 187.621 329.805 185.405 331.499 183.201C302.057 225.399 292.491 271.297 310.168 309.12ZM298.868 327.206C334.457 403.403 458.788 420.999 576.056 366.383C693.347 311.802 759.762 205.404 724.177 129.197C705.052 88.2484 660.289 64.2227 604.767 59.2311C668.456 62.215 720.386 87.9591 741.818 133.843C779.439 214.392 708.936 326.952 584.663 384.805C460.389 442.657 328.706 424.229 291.083 343.679C269.621 297.729 283.316 241.37 322.094 190.686C290.117 236.419 279.713 286.192 298.869 327.205L298.868 327.206ZM287.56 345.321C325.841 427.282 459.695 446.231 585.927 387.462C712.124 328.714 783.624 214.165 745.339 132.203C724.696 88.0051 676.326 62.1299 616.356 56.8494C684.482 60.1223 740.009 87.7111 762.936 136.805C803.268 223.156 727.722 343.837 594.477 405.866C461.28 467.854 320.099 448.081 279.795 361.74C256.878 312.674 271.353 252.538 312.544 198.375C278.128 247.595 266.935 301.165 287.56 345.321ZM276.235 363.398C317.253 451.171 460.591 471.399 595.724 408.485C730.882 345.586 807.495 222.973 766.458 135.166C744.304 87.7065 692.274 59.9849 627.796 54.4478C700.437 57.9731 759.644 87.4129 784.107 139.787C827.153 231.924 746.49 360.772 604.356 426.92C462.175 493.111 311.512 471.967 268.484 379.853C244.048 327.534 259.448 263.4 303.326 205.621C266.227 258.444 254.093 315.99 276.238 363.398H276.235ZM264.945 381.455C308.654 475.086 461.489 496.654 605.584 429.594C749.697 362.48 831.349 231.75 787.631 138.144C763.995 87.5317 708.494 57.9695 639.733 52.077C716.642 55.9626 779.28 87.2281 805.202 142.726C850.982 240.688 765.269 377.592 614.181 447.954C463.062 518.305 302.904 495.819 257.143 397.891C231.191 342.304 247.547 274.187 294.149 212.8C254.346 269.239 241.278 330.78 264.946 381.455H264.945ZM253.63 399.507C300.068 498.976 462.364 521.877 615.408 450.629C768.451 379.38 855.201 240.538 808.758 141.079C783.587 87.1961 724.355 55.7876 651.01 49.6692C732.522 53.7671 798.912 86.8877 826.385 145.678C874.838 249.465 784.099 394.523 624.013 469.053C463.962 543.563 294.307 519.736 245.827 415.943C218.406 357.234 235.592 285.28 284.693 220.372C242.383 280.328 228.491 345.706 253.632 399.507H253.63ZM242.305 417.583C291.478 522.866 463.244 547.098 625.259 471.672C787.227 396.292 879.057 249.311 829.91 144.038C803.321 87.1246 740.823 53.9033 663.404 47.3359C748.983 51.9109 818.631 86.8654 847.512 148.702C898.69 258.249 802.836 411.387 633.839 490.082C464.824 568.745 285.721 543.622 234.548 434.06C205.644 372.204 223.634 296.425 275.203 228.001C230.427 291.456 215.719 360.637 242.306 417.583H242.305ZM231.012 435.732C282.874 546.714 464.114 572.346 635.075 492.735C806.026 413.15 902.892 258.061 851.04 147.051C822.932 86.8417 756.764 51.7563 674.82 44.9362C764.913 49.7553 838.238 86.5523 868.661 151.66C922.537 267.037 821.612 428.299 643.678 511.157C465.717 594.006 277.102 567.506 223.229 452.114C192.785 386.961 211.744 307.147 266.081 235.091C218.531 302.203 202.86 375.457 231.013 435.732H231.012ZM219.697 453.781C274.248 570.621 465.056 597.558 644.916 513.804C824.802 430.059 926.739 266.847 872.185 150.019C842.559 86.5788 772.798 49.6535 686.433 42.545C780.961 47.6511 857.878 86.2963 889.799 154.644C946.392 275.809 840.399 445.182 653.513 532.164C466.608 619.2 268.516 591.391 211.923 470.227C179.98 401.84 199.811 318.117 256.729 242.508C206.599 313.166 190.052 390.31 219.699 453.781H219.697ZM208.391 471.893C265.679 594.546 465.916 622.744 654.741 534.84C843.589 446.942 950.618 275.644 893.331 152.993C862.217 86.3775 788.927 47.6103 698.204 40.1743C797.099 45.6101 877.548 86.0979 910.954 157.604C970.247 284.598 859.188 462.068 663.329 553.226C467.495 644.396 259.929 615.282 200.608 488.278C167.16 416.69 187.901 329.019 247.47 249.819C194.688 324.078 177.231 405.186 208.391 471.893ZM197.072 489.945C257.069 618.399 466.806 647.939 664.565 555.873C862.325 463.808 974.442 284.421 914.445 155.966C881.808 86.069 804.819 45.4463 709.544 37.771C812.967 43.4404 897.101 85.7787 932.033 160.581C994.064 293.389 877.95 478.941 673.17 574.297C468.372 669.617 251.348 639.143 189.317 506.336C154.351 431.474 176.016 339.814 238.276 257.013C182.79 334.875 164.391 419.971 197.073 489.945H197.072ZM185.795 507.977C248.499 642.231 467.702 673.193 674.399 576.97C881.102 480.715 998.272 293.182 935.561 158.939C901.42 85.8464 820.898 43.3889 721.265 35.3983C829.083 41.3823 916.779 85.5668 953.206 163.56C1017.95 302.171 896.701 495.839 682.996 595.329C469.282 694.843 242.75 663.058 178.01 524.447C141.574 446.414 164.074 350.91 228.833 264.588C170.864 345.957 151.649 434.874 185.795 507.979V507.977ZM174.487 526.089C239.894 666.171 468.563 698.379 684.232 597.976C899.901 497.574 1022.15 301.981 956.731 161.921C921.135 85.6969 837.19 41.404 733.305 33.0385C845.348 39.4106 936.45 85.4252 974.347 166.547C1041.8 310.956 915.478 512.748 692.836 616.4C470.184 720.074 234.17 686.92 166.708 542.534C128.745 461.279 152.139 361.819 219.546 271.908C158.933 356.864 138.823 449.737 174.487 526.091V526.089ZM163.188 544.175C231.315 690.036 469.485 723.645 694.073 619.047C918.702 514.495 1045.99 310.777 977.865 164.917C940.685 85.304 852.855 39.129 744.225 30.6039C861.027 37.1147 956.023 85.0045 995.514 169.538C1065.65 319.729 934.301 529.615 702.651 637.459C471.064 745.293 225.542 710.82 155.412 560.618C115.929 476.085 140.259 372.639 210.361 279.121C147.048 367.691 125.997 464.555 163.188 544.175ZM151.881 562.289C222.692 713.944 470.348 748.832 703.899 640.083C937.475 531.343 1069.88 319.551 999.042 167.887C960.358 85.0772 868.989 37.072 755.985 28.2343C877.145 35.0629 975.67 84.7811 1016.64 172.488C1089.5 328.517 953.08 546.529 712.528 658.519C471.975 770.509 216.956 734.718 144.086 578.701C103.166 491.092 128.25 383.919 200.706 286.953C135.035 378.968 113.244 479.57 151.88 562.29L151.881 562.289ZM140.566 580.337C214.113 737.807 471.245 774.089 713.729 661.178C956.243 548.28 1093.69 328.306 1020.16 170.859C980 84.8847 885.117 35.0331 767.769 25.8623C893.29 33.0195 995.343 84.5822 1037.78 175.46C1113.36 337.293 971.866 563.409 722.345 679.571C472.847 795.751 208.368 758.605 132.763 596.775C90.2735 505.778 116.421 394.428 191.823 293.74C123.221 389.483 100.369 494.255 140.566 580.339V580.337ZM129.236 598.418C205.513 761.723 472.132 799.286 723.58 682.223C975.029 565.16 1117.59 337.114 1041.31 173.807C999.607 84.4964 900.901 32.7931 778.875 23.4417C909.053 30.7819 1014.91 84.2119 1058.93 178.445C1137.22 346.054 990.658 580.298 732.187 700.648C473.702 820.965 199.767 782.461 121.464 614.865C77.5086 520.757 104.456 405.604 182.305 301.413C111.245 400.648 87.5753 509.222 129.236 598.418ZM117.939 616.503C196.935 785.585 473.047 824.488 733.432 703.268C993.79 582.037 1141.41 345.888 1062.45 176.806C1019.3 84.4304 917.308 30.9059 791.204 21.1125C925.479 28.8996 1034.62 84.1386 1080.04 181.408C1161.04 354.832 1009.42 597.17 742.01 721.682C474.617 846.168 191.177 806.346 110.174 632.923C64.7872 535.751 92.4662 416.905 172.626 309.284C99.245 411.942 74.8455 524.212 117.939 616.502L117.939 616.503ZM106.649 634.561C188.329 809.437 473.917 849.736 743.247 724.329C1012.61 598.933 1165.27 354.664 1083.56 179.768C1038.91 84.1536 933.294 28.783 802.71 18.7212C941.467 26.7804 1054.25 83.8779 1101.2 184.413C1184.92 363.629 1028.18 614.108 751.862 742.725C475.492 871.386 182.587 830.236 98.8912 651.044C51.913 550.464 80.6237 427.457 163.688 316.132C87.4077 422.5 61.9754 538.914 106.649 634.561ZM95.341 652.677C179.757 833.364 474.779 874.922 753.089 745.4C1031.39 615.817 1189.15 363.458 1104.72 182.773C1058.5 83.8058 949.079 26.561 813.826 16.3042C957.232 24.5465 1073.82 83.504 1122.35 187.384C1208.76 372.388 1046.97 630.993 761.666 763.814C476.414 896.653 173.989 854.151 87.5655 669.122C38.9783 565.097 68.8191 437.836 154.934 322.743C75.6105 432.898 49.0564 553.582 95.341 652.677ZM84.044 670.763C171.141 857.242 475.7 900.189 762.931 766.469C1050.16 632.749 1212.97 372.211 1125.88 185.731C1078.18 83.6201 965.303 24.5435 825.779 13.9292C973.468 22.5286 1093.5 83.3165 1143.5 190.342C1232.64 381.171 1065.76 647.876 771.518 784.856C477.304 921.848 165.374 878.026 76.2523 687.169C26.218 580.047 56.8447 449.018 145.386 330.445C63.6346 444.076 36.2939 568.531 84.044 670.763ZM72.7161 688.839C162.529 881.121 476.579 925.411 772.745 787.534C1068.95 649.638 1236.83 381 1147.03 188.692C1097.91 83.5422 981.763 22.6528 838.152 11.5984C989.927 20.6558 1113.23 83.2666 1164.62 193.306C1256.48 389.963 1084.57 664.772 781.359 805.932C478.172 947.102 156.811 901.931 64.9402 705.286C13.6197 595.409 44.6606 461.108 134.939 339.36C51.4398 456.137 23.6826 583.855 72.7167 688.836L72.7161 688.839ZM61.419 706.925C153.93 905.038 477.483 950.641 782.596 808.578C1087.71 666.514 1260.69 389.774 1168.14 191.651C1117.44 83.099 997.342 20.3338 848.922 9.15477C1005.5 18.3214 1132.76 82.807 1185.78 196.313C1280.33 398.751 1103.31 681.635 791.185 826.964C479.083 972.239 148.232 925.791 53.6804 723.356C0.747741 610.056 32.881 471.531 126.148 346.034C39.6457 466.576 10.7848 598.518 61.4195 706.924L61.419 706.925ZM50.155 724.995C145.388 928.884 478.371 975.834 792.422 829.612C1106.52 683.404 1284.51 398.536 1189.29 194.672C1136.43 81.4969 1010.33 16.6696 854.865 6.37811C1018.77 14.5258 1152.3 81.0976 1207.53 199.356C1304.88 407.762 1122.69 699.034 801.316 848.649C479.966 998.272 139.33 950.377 42.0065 741.965C-13.3726 623.421 21.6799 478.083 121.334 347.247C28.765 473.003 -2.84267 611.525 50.1554 724.994L50.155 724.995ZM448.962 92.3102C456.72 89.0005 464.694 90.2188 466.99 95.1348C469.363 100.215 464.796 107.362 456.799 111.094C448.845 114.799 440.446 113.675 438.073 108.598C435.779 103.687 439.929 96.817 447.433 93.0199C447.69 92.8959 447.943 92.7677 448.203 92.6472C448.463 92.5266 448.709 92.4226 448.962 92.3102Z" fill="black"/>
</svg>
