<svg width="25" height="26" viewBox="0 0 25 26" fill="none" xmlns="http://www.w3.org/2000/svg">
<g clip-path="url(#clip0_3868_26629)">
<path fill-rule="evenodd" clip-rule="evenodd" d="M25 12.7241C25 19.6277 19.4036 25.2241 12.5 25.2241C5.59644 25.2241 0 19.6277 0 12.7241C0 5.82056 5.59644 0.224121 12.5 0.224121C19.4036 0.224121 25 5.82056 25 12.7241ZM12.9479 9.45217C11.7321 9.95787 9.30223 11.0045 5.65822 12.5922C5.06649 12.8275 4.75652 13.0577 4.7283 13.2828C4.68061 13.6632 5.15699 13.813 5.8057 14.017C5.89394 14.0447 5.98537 14.0735 6.0791 14.1039C6.71733 14.3114 7.57586 14.5541 8.02217 14.5637C8.42702 14.5725 8.87888 14.4056 9.37775 14.063C12.7825 11.7647 14.54 10.6031 14.6503 10.578C14.7282 10.5604 14.836 10.5382 14.9091 10.6031C14.9822 10.6681 14.975 10.7911 14.9673 10.8241C14.9201 11.0253 13.0501 12.7638 12.0824 13.6635C11.7807 13.9439 11.5667 14.1429 11.523 14.1883C11.425 14.2901 11.3251 14.3864 11.2291 14.4789C10.6362 15.0505 10.1916 15.4791 11.2538 16.1791C11.7642 16.5155 12.1727 16.7936 12.5802 17.0711C13.0252 17.3742 13.4691 17.6765 14.0433 18.0529C14.1897 18.1488 14.3294 18.2485 14.4655 18.3455C14.9834 18.7147 15.4487 19.0464 16.0235 18.9935C16.3575 18.9628 16.7026 18.6487 16.8778 17.712C17.2919 15.4982 18.1059 10.7017 18.294 8.72514C18.3105 8.55196 18.2897 8.33034 18.2731 8.23305C18.2564 8.13576 18.2216 7.99715 18.0952 7.89454C17.9454 7.77301 17.7142 7.74739 17.6108 7.74921C17.1406 7.75749 16.4193 8.00831 12.9479 9.45217Z" fill="white"/>
</g>
<defs>
<clipPath id="clip0_3868_26629">
<rect width="25" height="25" fill="white" transform="translate(0 0.224121)"/>
</clipPath>
</defs>
</svg>
