<svg width="92" height="65" viewBox="0 0 92 65" fill="none" xmlns="http://www.w3.org/2000/svg">
<path d="M90.0764 10.12C89.5562 8.16275 88.5312 6.37644 87.1037 4.93985C85.6763 3.50325 83.8966 2.46675 81.9427 1.93409C74.75 2.28484e-07 46 0 46 0C46 0 17.25 2.28484e-07 10.0573 1.93409C8.1034 2.46675 6.32369 3.50325 4.89627 4.93985C3.46884 6.37644 2.44377 8.16275 1.92364 10.12C2.28484e-07 17.3441 0 32.4091 0 32.4091C0 32.4091 2.28484e-07 47.4741 1.92364 54.6982C2.44377 56.6554 3.46884 58.4417 4.89627 59.8783C6.32369 61.3149 8.1034 62.3514 10.0573 62.8841C17.25 64.8182 46 64.8182 46 64.8182C46 64.8182 74.75 64.8182 81.9427 62.8841C83.8966 62.3514 85.6763 61.3149 87.1037 59.8783C88.5312 58.4417 89.5562 56.6554 90.0764 54.6982C92 47.4741 92 32.4091 92 32.4091C92 32.4091 92 17.3441 90.0764 10.12Z" fill="#FF0302"/>
<path d="M34.5 46.5262V19.1667L58.5454 32.8465L34.5 46.5262Z" fill="#FEFEFE"/>
</svg>
