<svg width="25" height="26" viewBox="0 0 25 26" fill="none" xmlns="http://www.w3.org/2000/svg">
<path d="M24.751 8C24.751 8 24.5068 6.27637 23.7549 5.51953C22.8027 4.52344 21.7383 4.51855 21.25 4.45996C17.7539 4.20605 12.5049 4.20605 12.5049 4.20605H12.4951C12.4951 4.20605 7.24609 4.20605 3.75 4.45996C3.26172 4.51855 2.19727 4.52344 1.24512 5.51953C0.493164 6.27637 0.253906 8 0.253906 8C0.253906 8 0 10.0264 0 12.0479V13.9424C0 15.9639 0.249023 17.9902 0.249023 17.9902C0.249023 17.9902 0.493164 19.7139 1.24023 20.4707C2.19238 21.4668 3.44238 21.4326 3.99902 21.54C6.00098 21.7305 12.5 21.7891 12.5 21.7891C12.5 21.7891 17.7539 21.7793 21.25 21.5303C21.7383 21.4717 22.8027 21.4668 23.7549 20.4707C24.5068 19.7139 24.751 17.9902 24.751 17.9902C24.751 17.9902 25 15.9688 25 13.9424V12.0479C25 10.0264 24.751 8 24.751 8ZM9.91699 16.2422V9.21582L16.6699 12.7412L9.91699 16.2422Z" fill="white"/>
</svg>
